<?xml version="1.0" standalone="no"?>
<!DOCTYPE svg PUBLIC "-//W3C//DTD SVG 1.1//EN" "http://www.w3.org/Graphics/SVG/1.1/DTD/svg11.dtd" >
<svg xmlns="http://www.w3.org/2000/svg" xmlns:xlink="http://www.w3.org/1999/xlink" version="1.1">
<metadata></metadata>
<defs>
<font id="yeseva_oneregular" horiz-adv-x="1146" >
<font-face units-per-em="2048" ascent="1638" descent="-410" />
<missing-glyph horiz-adv-x="573" />
<glyph unicode=" "  horiz-adv-x="573" />
<glyph unicode="&#x09;" horiz-adv-x="573" />
<glyph unicode="&#xa0;" horiz-adv-x="573" />
<glyph unicode="!" horiz-adv-x="634" d="M123 1229q0 106 56.5 170.5t137.5 64.5q82 0 138.5 -64.5t56.5 -170.5l-164 -789h-61zM164 143q0 68 46 116t107 48t107.5 -48t46.5 -116t-46 -115.5t-108 -47.5q-61 0 -107 48t-46 115z" />
<glyph unicode="&#x22;" horiz-adv-x="757" d="M92 1311q0 68 34 105.5t89 37.5t89 -38t34 -105l-82 -400h-82zM420 1311q0 68 33.5 105.5t89.5 37.5q55 0 89 -38t34 -105l-82 -400h-82z" />
<glyph unicode="#" horiz-adv-x="1331" d="M41 379v102h256l121 471h-275v103h301l99 379h123l-99 -379h369l98 379h123l-98 -379h231v-103h-258l-121 -471h277v-102h-303l-97 -379h-122l96 379h-369l-96 -379h-123l96 379h-229zM420 481h368l121 471h-368z" />
<glyph unicode="$" horiz-adv-x="1218" d="M72 -10v389h82q31 -100 86 -180q125 -178 323 -179q25 0 31 3v522l-94 55q-133 78 -214 138.5t-137.5 151.5t-56.5 216q0 100 56.5 181t169 129t276.5 48v133h61v-139q115 -20 193 -72q41 -25 74 -55q35 53 71 84q37 27 41 29h51v-389h-81q-29 98 -76 172 q-47 76 -116 127t-157 57v-508q57 -37 123 -74q127 -72 204 -129t131 -139t54 -192q0 -104 -57 -192.5t-173 -142.5t-282 -63v-135h-61v133q-139 2 -266 68q-49 27 -92 65q-29 -47 -72 -84q-37 -27 -41 -28h-51zM440 1188q0 -74 40 -132.5t114 -111.5v463 q-68 -16 -111 -75.5t-43 -143.5zM655 35q76 24 120 87.5t44 153.5q0 68 -43 124.5t-121 107.5v-473z" />
<glyph unicode="%" horiz-adv-x="1536" d="M61 1096q0 106 44.5 187t121 126t172.5 45t173 -45t121 -126t44 -187t-44 -187.5t-120.5 -126.5t-173.5 -45q-96 0 -172.5 45t-121 126t-44.5 188zM184 0l1055 1434h113l-1055 -1434h-113zM287 1096q0 -174 32.5 -246t79.5 -72t80 72t33 246t-33 245.5t-80 71.5 t-79.5 -71.5t-32.5 -245.5zM799 338q0 106 44 187t120.5 126t173.5 45q96 0 172.5 -45t121 -126t44.5 -187t-44.5 -187t-121 -126t-172.5 -45q-97 0 -173.5 45t-120.5 125.5t-44 187.5zM1024 338q0 -174 33 -246t80 -72t79.5 72t32.5 246t-32.5 245.5t-79.5 71.5t-80 -71.5 t-33 -245.5z" />
<glyph unicode="&#x26;" horiz-adv-x="1413" d="M41 328q0 106 55.5 179t143.5 126q90 49 200 74l-112 163q-47 68 -75 133.5t-28 143.5q0 88 48.5 159.5t143.5 114.5t228 43q109 0 209 -67q43 -29 78 -66q35 53 72 84q37 27 40 29h52v-389h-82q-27 92 -76 178q-49 80 -109.5 130t-142.5 50q-63 0 -108.5 -50t-45.5 -134 q0 -68 37 -135.5t90 -141.5l365 -512q18 35 35 76q37 94 37 191l-164 61v31h379v-31l-164 -61q0 -102 -45 -222q-25 -57 -43 -96l231 -328l103 -30v-31h-287q-84 0 -144.5 26.5t-91.5 75.5q-35 -41 -75 -67q-98 -66 -222 -66q-532 1 -532 359zM389 328q0 -147 64.5 -227.5 t160.5 -80.5q84 1 162 62q41 33 64 61l-369 523q-25 -27 -41 -70q-41 -92 -41 -268z" />
<glyph unicode="'" horiz-adv-x="430" d="M92 1311q0 68 34 105.5t89 37.5t89 -38t34 -105l-82 -400h-82z" />
<glyph unicode="(" horiz-adv-x="727" d="M102 543q0 338 159 599t415 435l20 -31q-121 -158 -183 -420t-62 -583q0 -322 62 -584t183 -420l-20 -31q-252 166 -413 431.5t-161 603.5z" />
<glyph unicode=")" horiz-adv-x="727" d="M31 -461q121 158 183 420t62 584t-62 584t-183 419l20 31q256 -174 415 -435t159 -599t-161 -603.5t-413 -431.5z" />
<glyph unicode="*" horiz-adv-x="798" d="M82 975q0 25 13.5 46t37.5 34l205 51l-205 51q-25 12 -38 33.5t-13 46.5q0 43 25.5 65.5t62.5 22.5q33 0 55 -14l144 -154l-62 205q0 39 26.5 65.5t65.5 26.5t66 -26.5t27 -65.5l-62 -205l143 154q23 14 56 14q27 0 47 -11t31 -34q10 -25 10 -43q0 -25 -13.5 -46.5 t-37.5 -33.5l-205 -51l205 -51q25 -12 38 -34t13 -46q0 -43 -25.5 -65.5t-62.5 -22.5q-33 0 -56 14l-143 154l62 -205q0 -39 -27 -65.5t-66 -26.5t-65.5 26.5t-26.5 65.5l62 205l-144 -154q-23 -14 -55 -14q-27 0 -47.5 11t-30.5 34q-10 25 -10 43z" />
<glyph unicode="+" horiz-adv-x="1054" d="M72 635v92h409v440h92v-440h410v-92h-410v-440h-92v440h-409z" />
<glyph unicode="," horiz-adv-x="501" d="M92 133q0 61 46 107.5t108 46.5q72 0 118 -50.5t46 -134.5q0 -188 -123 -295q-53 -49 -123 -73l-21 51q43 14 86 47q88 66 109 178l-27 -16q-27 -14 -65 -14q-61 0 -107.5 46t-46.5 107z" />
<glyph unicode="-" horiz-adv-x="962" d="M72 614v93h819v-93h-819z" />
<glyph unicode="." horiz-adv-x="491" d="M92 133q0 61 46 107.5t108 46.5q61 0 107 -46t46 -108q0 -61 -46 -107t-107 -46q-62 0 -108 46t-46 107z" />
<glyph unicode="/" horiz-adv-x="716" d="M-41 -102l707 1638h92l-707 -1638h-92z" />
<glyph unicode="0" horiz-adv-x="1372" d="M92 717q0 233 79 402t214 257t301 88t301 -88t214 -257t79 -402t-79 -402.5t-214 -257.5t-301 -88t-301 88t-214 257t-79 403zM451 717q0 -707 235 -707q236 0 236 707t-236 706q-236 0 -235 -706z" />
<glyph unicode="1" horiz-adv-x="849" d="M31 1096l372 338h222v-1362l143 -41v-31h-625v31l144 41v1124l-215 -152z" />
<glyph unicode="2" horiz-adv-x="1177" d="M61 0v92q0 121 48.5 220.5t118 173t182.5 173.5q104 92 163.5 155t100.5 141.5t41 170.5q0 135 -65.5 211t-170.5 76q-59 0 -121 -16l-43 -15v-327l-26 -6q-33 -4 -56 -5q-70 0 -111.5 42t-41.5 112q0 66 50 127t149.5 100t240.5 39q276 0 409.5 -110.5t133.5 -309.5 q0 -125 -64.5 -215t-157.5 -149t-249 -135q-131 -63 -212 -111.5t-149.5 -116t-97.5 -153.5h758q14 111 70 184q23 35 53 62h61v-410h-1014z" />
<glyph unicode="3" horiz-adv-x="1198" d="M51 236q0 70 42 111.5t112 41.5q16 0 32.5 -3t22.5 -3l27 -4v-328q2 0 43 -16q53 -14 121 -15q143 0 220 87.5t77 261.5q0 178 -75 268t-202 90h-102v51h102q92 0 153.5 82t61.5 236t-63.5 235.5t-161.5 81.5q-53 0 -103 -16q-6 -2 -41 -15v-327l-26 -6q-33 -4 -55 -5 q-70 0 -112 42t-42 112q0 63 49 124.5t144.5 101.5t226.5 40q172 0 291.5 -50t180 -134t60.5 -184q0 -117 -59.5 -185.5t-155.5 -109.5q-94 -37 -215 -43v-10q135 -6 246 -48q246 -98 246 -331q0 -180 -148.5 -290t-455.5 -110q-142 0 -241 39t-149.5 100.5t-50.5 127.5z " />
<glyph unicode="4" horiz-adv-x="1228" d="M0 440l768 1014h195v-983h215v-92h-215v-307l143 -41v-31h-625v31l144 41v307h-584zM113 471h512v676z" />
<glyph unicode="5" horiz-adv-x="1167" d="M72 236q0 70 42 111.5t111 41.5q16 0 32.5 -3t23.5 -3l26 -4v-328q2 0 43 -16q53 -14 121 -15q123 0 194.5 101.5t71.5 318.5q0 215 -73.5 312.5t-212.5 97.5q-53 0 -100.5 -18.5t-100.5 -49.5q-43 -27 -86 -65l-41 31l82 686h604q14 111 70 184q23 35 53 61h61v-399 h-743l-55 -471q29 20 84 45q115 47 213 47q299 0 446 -122t147 -339q0 -221 -145 -346t-428 -125q-141 0 -240.5 39t-149.5 100.5t-50 127.5z" />
<glyph unicode="6" horiz-adv-x="1269" d="M102 717q0 369 161 558t444 189q121 0 212 -40t139 -101t48 -125q0 -70 -42 -112t-112 -42q-29 0 -57 5l-25 6v327l-39 15q-45 16 -83 16q-100 0 -165 -53t-98.5 -196.5t-33.5 -405.5q23 35 55 61q78 61 180 62q150 0 261.5 -56.5t171 -157t59.5 -227.5 q0 -219 -136.5 -345t-386.5 -126q-258 0 -405.5 184.5t-147.5 563.5zM461 492q0 -260 56 -371t138 -111q41 0 81 41t66.5 133t26.5 236q0 143 -27.5 235.5t-69.5 133t-87 40.5q-84 0 -134 -81.5t-50 -255.5z" />
<glyph unicode="7" horiz-adv-x="1085" d="M61 1034v400h973v-93q0 -115 -35.5 -213t-111.5 -254q-74 -145 -120 -257.5t-79 -269.5t-33 -347h-358q0 203 56.5 359.5t136 268t208.5 253.5q113 123 177.5 210t97.5 189h-727q-14 -111 -70 -184q-23 -35 -53 -62h-62z" />
<glyph unicode="8" horiz-adv-x="1259" d="M82 338q0 113 98.5 218.5t239.5 150.5q-135 76 -206 167t-71 222q0 164 132.5 266t390.5 102q129 0 226 -47t150.5 -122.5t53.5 -157.5q0 -96 -83 -186.5t-194 -121.5q186 -82 282.5 -194.5t96.5 -276.5q0 -106 -65.5 -194t-198.5 -141.5t-330 -53.5q-258 0 -390 102.5 t-132 266.5zM256 338q0 -86 44 -159t119 -116t165 -43q131 0 203.5 73t72.5 204q0 98 -98 198.5t-260 170.5q-115 -41 -180.5 -122t-65.5 -206zM481 1157q0 -164 277 -287q78 35 126 100.5t48 166.5q0 74 -36 137t-92 101t-118 38q-88 0 -146.5 -68.5t-58.5 -187.5z" />
<glyph unicode="9" horiz-adv-x="1269" d="M92 993q0 219 136.5 345t385.5 126q258 0 405.5 -184t147.5 -563q0 -369 -160.5 -558.5t-443.5 -189.5q-121 0 -212 40t-139 101.5t-48 125.5q0 70 42 111.5t111 41.5q16 0 33 -3t23 -3l26 -4v-328l39 -16q37 -14 84 -15q100 0 164 53.5t98.5 197t34.5 405.5 q-18 -31 -57 -62q-78 -61 -178 -61q-150 0 -261.5 56.5t-171 156.5t-59.5 227zM440 1014q0 -143 28 -235.5t70 -133.5t87 -41q84 0 134 82t50 256q0 260 -56.5 370.5t-138.5 110.5q-41 0 -80.5 -41t-66.5 -133t-27 -235z" />
<glyph unicode=":" horiz-adv-x="491" d="M92 133q0 61 46 107.5t108 46.5q61 0 107 -46t46 -108q0 -61 -46 -107t-107 -46q-62 0 -108 46t-46 107zM92 891q0 61 46 107t108 46q61 0 107 -46t46 -107t-46 -107.5t-107 -46.5q-62 0 -108 46t-46 108z" />
<glyph unicode=";" horiz-adv-x="501" d="M92 133q0 61 46 107.5t108 46.5q72 0 118 -50.5t46 -134.5q0 -188 -123 -295q-53 -49 -123 -73l-21 51q43 14 86 47q88 66 109 178l-27 -16q-27 -14 -65 -14q-61 0 -107.5 46t-46.5 107zM92 891q0 61 46 107t108 46q61 0 107 -46t46 -107t-46 -107.5t-107 -46.5 q-62 0 -108 46t-46 108z" />
<glyph unicode="&#x3c;" horiz-adv-x="1034" d="M51 512l912 512v-113l-707 -399l707 -399v-113z" />
<glyph unicode="=" horiz-adv-x="942" d="M72 481v92h798v-92h-798zM72 788v93h798v-93h-798z" />
<glyph unicode="&#x3e;" horiz-adv-x="1034" d="M72 0v113l706 399l-706 399v113l911 -512z" />
<glyph unicode="?" d="M31 1198q0 66 50 127t149.5 100t240.5 39q299 0 451.5 -116.5t152.5 -303.5q0 -174 -128 -288.5t-384 -151.5l-10 -164h-82l-10 195q125 49 190.5 143t65.5 266q0 197 -71 283t-216 86q-59 0 -121 -16l-43 -15v-327l-26 -6q-33 -4 -56 -5q-70 0 -111.5 42t-41.5 112z M348 143q0 68 46 116t108 48q61 0 107 -48t46 -116t-46 -115.5t-107 -47.5q-62 0 -108 48t-46 115z" />
<glyph unicode="@" horiz-adv-x="1720" d="M82 594q0 221 104.5 404.5t282.5 289t391 105.5t391.5 -105.5t282.5 -289t104 -404.5q0 -133 -47 -233.5t-124.5 -153.5t-166.5 -53q-193 0 -278 82q-37 37 -49 81q-14 -45 -43 -81q-66 -82 -182 -82q-150 0 -244 102t-94 276q0 233 134 362.5t388 129.5h297v-666 q0 -76 31.5 -114.5t80.5 -38.5t101.5 46t88.5 134t36 209q0 205 -95.5 374t-257 266t-354.5 97t-354.5 -97t-256.5 -266t-95 -374t95 -374t257 -266t354 -97q135 0 279 61q61 29 110 62l31 -52q-49 -39 -119 -67q-147 -66 -301 -66q-213 0 -391 105.5t-282.5 289 t-104.5 404.5zM707 532q0 -164 34.5 -235.5t87.5 -71.5q45 1 78 62q16 29 25 61v625q-225 0 -225 -441z" />
<glyph unicode="A" horiz-adv-x="1392" d="M-41 0v31l164 61l563 1362h62l583 -1393l103 -30v-31h-246q-106 0 -174 48t-101 126l-104 246h-490l-135 -328l154 -61v-31h-379zM340 471h448l-225 539z" />
<glyph unicode="B" horiz-adv-x="1392" d="M102 0v31l123 30v1311l-123 31v31h553q311 0 458 -99.5t147 -259.5q0 -111 -63.5 -178.5t-162.5 -99.5q-104 -37 -225 -39v-10q150 -6 260 -46q113 -37 187.5 -114.5t74.5 -198.5q0 -182 -149.5 -285.5t-485.5 -103.5h-594zM563 51h133q127 0 207 90t80 248t-80 248 t-207 90h-133v-676zM563 778h92q68 0 126.5 38t94 106.5t35.5 152.5q0 90 -35.5 160t-94 108.5t-126.5 38.5h-92v-604z" />
<glyph unicode="C" horiz-adv-x="1331" d="M92 717q0 236 81 404.5t227.5 255.5t338.5 87q117 0 236 -67q45 -25 90 -66q35 53 72 84q37 27 41 29h51v-389h-82q-27 98 -80 178q-49 78 -122 129t-167 51q-141 0 -234 -164t-93 -532q0 -375 101 -536t277 -161q96 0 183.5 54.5t141.5 144.5t54 191h52 q0 -117 -62.5 -218.5t-170 -162t-239.5 -60.5q-327 0 -511.5 194.5t-184.5 553.5z" />
<glyph unicode="D" horiz-adv-x="1464" d="M102 0v31l123 30v1311l-123 31v31h523q367 0 562 -188.5t195 -528.5t-195.5 -528.5t-561.5 -188.5h-523zM563 51h62q190 0 294.5 154.5t104.5 511.5q0 356 -104.5 510.5t-294.5 154.5h-62v-1331z" />
<glyph unicode="E" horiz-adv-x="1320" d="M102 0v31l123 30v1311l-123 31v31h1096v-369h-61q-39 31 -68 78q-66 111 -65 239h-441v-645h236q14 78 53 146q16 31 39 59h61v-461h-61q-23 29 -39 60q-39 68 -53 145h-236v-635h481q0 129 66 240q29 47 68 78h61v-369h-1137z" />
<glyph unicode="F" horiz-adv-x="1249" d="M102 0v31l123 30v1311l-123 31v31h1096v-369h-61q-39 31 -68 78q-66 111 -65 239h-441v-645h236q14 78 53 146q16 31 39 59h61v-461h-61q-23 29 -39 60q-39 68 -53 145h-236v-625l123 -30v-31h-584z" />
<glyph unicode="G" horiz-adv-x="1433" d="M92 717q0 236 81 404.5t227.5 255.5t338.5 87q117 0 236 -67q45 -25 90 -66q35 53 72 84q37 27 41 29h51v-389h-82q-27 98 -80 178q-49 78 -122 129t-167 51q-141 0 -234 -164t-93 -532q0 -369 82.5 -522.5t214.5 -153.5q76 0 137 82q23 31 47 82v471l-123 31v30h584v-30 l-123 -31v-686h-31q-150 0 -227 82q-35 37 -49 82q-29 -51 -68 -93q-92 -92 -229 -92q-156 0 -287 88t-209 257t-78 403z" />
<glyph unicode="H" horiz-adv-x="1566" d="M102 0v31l123 30v1311l-123 31v31h584v-31l-123 -31v-635h441v635l-123 31v31h583v-31l-123 -31v-1311l123 -30v-31h-583v31l123 30v625h-441v-625l123 -30v-31h-584z" />
<glyph unicode="I" horiz-adv-x="788" d="M102 0v31l123 30v1311l-123 31v31h584v-31l-123 -31v-1311l123 -30v-31h-584z" />
<glyph unicode="J" horiz-adv-x="1126" d="M0 195q0 70 42 111.5t112 41.5q16 0 32.5 -3t22.5 -3l27 -4v-307q14 -8 28 -11q35 -10 74 -10q246 0 246 400v962l-123 31v31h583v-31l-122 -31v-962q0 -213 -133.5 -327t-409.5 -114q-189 0 -284 65.5t-95 160.5z" />
<glyph unicode="K" horiz-adv-x="1413" d="M102 0v31l123 30v1311l-123 31v31h584v-31l-123 -31v-643l502 612l-154 62v31h389v-31l-163 -62l-359 -440l553 -840l103 -30v-31h-287q-92 0 -156.5 46t-120.5 128l-307 471v-584l123 -30v-31h-584z" />
<glyph unicode="L" horiz-adv-x="1249" d="M102 0v31l123 30v1311l-123 31v31h584v-31l-123 -31v-1321h441q0 129 65 240q29 47 68 78h61v-369h-1096z" />
<glyph unicode="M" horiz-adv-x="2017" d="M61 0v31l164 61v1280l-123 31v31h256q106 0 169 -44t108 -130l446 -854l342 854q35 90 94.5 132t182.5 42h215v-31l-123 -31v-1311l123 -30v-31h-584v31l123 30v1117l-481 -1198h-62l-624 1198v-1086l164 -61v-31h-390z" />
<glyph unicode="N" horiz-adv-x="1515" d="M61 0v31l164 61v1270l-143 41v31h215q109 0 170 -39t117 -105l655 -768v819l-164 62v31h389v-31l-164 -62v-1372h-61l-952 1116v-993l164 -61v-31h-390z" />
<glyph unicode="O" horiz-adv-x="1515" d="M92 717q0 238 82 405.5t232.5 254.5t351.5 87t351.5 -87t232 -255t81.5 -405q0 -238 -81.5 -406t-232.5 -255t-351 -87q-201 0 -351.5 87t-232.5 255t-82 406zM451 717q0 -256 45 -414t113.5 -225.5t148.5 -67.5t148.5 67.5t113.5 225.5t45 414t-45 413.5t-113.5 225 t-148.5 67.5t-148.5 -67.5t-113.5 -225t-45 -413.5z" />
<glyph unicode="P" horiz-adv-x="1382" d="M102 0v31l123 30v1311l-123 31v31h574q340 0 487.5 -112t147.5 -329t-147.5 -328.5t-487.5 -111.5h-113v-492l123 -30v-31h-584zM563 604h113q129 0 208 98.5t79 290.5q0 190 -79 289.5t-208 99.5h-113v-778z" />
<glyph unicode="Q" horiz-adv-x="1515" d="M92 717q0 238 82 405.5t232.5 254.5t351.5 87t351.5 -87t232 -255t81.5 -405q0 -303 -133 -490.5t-368 -236.5q0 -276 102 -277q29 0 45 11q2 0 16 10l21 -51q-8 -6 -33 -17q-37 -14 -110 -14q-111 0 -195 44t-129 121t-45 173q-236 49 -369 236.5t-133 490.5zM451 717 q0 -256 45 -414t113.5 -225.5t148.5 -67.5t148.5 67.5t113.5 225.5t45 414t-45 413.5t-113.5 225t-148.5 67.5t-148.5 -67.5t-113.5 -225t-45 -413.5z" />
<glyph unicode="R" horiz-adv-x="1433" d="M102 0v31l123 30v1311l-123 31v31h543q348 0 501.5 -105.5t153.5 -294.5q0 -127 -67.5 -205.5t-173.5 -117.5q-113 -43 -240 -45v-11q76 -4 133 -22q143 -45 195 -162l184 -410l103 -30v-31h-287q-168 0 -246 174l-205 461h-133v-574l144 -30v-31h-605zM563 686h82 q143 0 225 90t82 258t-82 258t-225 90h-82v-696z" />
<glyph unicode="S" horiz-adv-x="1218" d="M72 -10v389h82q31 -100 86 -180q125 -178 323 -179q117 0 186.5 70t69.5 186q0 68 -40 121.5t-99 94t-166 102.5q-135 76 -219 137.5t-143.5 154.5t-59.5 220q0 100 56.5 181t169 129t276.5 48q119 0 237 -67q45 -25 91 -66q35 53 71 84q37 27 41 29h51v-389h-81 q-27 98 -80 178q-49 78 -122 129t-167 51q-80 0 -137.5 -63.5t-57.5 -161.5q0 -76 44 -136.5t108.5 -105.5t175.5 -108q129 -74 209 -131.5t135 -142.5t55 -195q0 -111 -63.5 -202t-190.5 -144.5t-309 -53.5q-145 0 -272 66q-57 29 -96 67q-29 -47 -72 -84q-37 -27 -41 -28 h-51z" />
<glyph unicode="T" horiz-adv-x="1300" d="M51 1065v369h1198v-369h-61q-39 31 -68 78q-66 111 -65 239h-236v-1321l123 -30v-31h-584v31l123 30v1321h-235q0 -125 -68 -239q-29 -47 -65 -78h-62z" />
<glyph unicode="U" horiz-adv-x="1454" d="M72 1403v31h583v-31l-123 -31v-860q0 -264 82 -378t236 -114q94 0 179 60.5t137.5 172.5t52.5 259v829l-164 62v31h389v-31l-164 -62v-829q0 -166 -61.5 -289t-168 -188.5t-241.5 -65.5q-303 0 -458.5 142.5t-155.5 400.5v860z" />
<glyph unicode="V" horiz-adv-x="1361" d="M-41 1403v31h246q106 0 173.5 -48.5t102.5 -125.5l363 -826l334 907l-154 62v31h379v-31l-164 -62l-502 -1361h-61l-615 1392z" />
<glyph unicode="W" horiz-adv-x="2017" d="M-41 1403v31h246q109 0 178.5 -49.5t97.5 -124.5l310 -789l180 528l-152 383l-112 21v31h245q109 0 176.5 -48.5t100.5 -125.5l309 -789l295 870l-154 62v31h379v-31l-164 -62l-460 -1361h-62l-368 935l-318 -935h-61l-553 1402z" />
<glyph unicode="X" horiz-adv-x="1361" d="M-10 1403v31h297q102 0 162.5 -43t113.5 -131l197 -336l284 417l-153 62v31h389v-31l-164 -62l-321 -473l475 -807l102 -30v-31h-297q-100 0 -161.5 43t-114.5 131l-221 375l-312 -457l154 -61v-31h-389v31l164 61l348 514l-451 766z" />
<glyph unicode="Y" horiz-adv-x="1361" d="M0 1403v31h256q106 0 171 -45.5t105 -128.5l304 -605l311 686l-154 62v31h389v-31l-163 -62l-359 -788v-492l123 -30v-31h-584v31l123 30v471l-420 840z" />
<glyph unicode="Z" horiz-adv-x="1300" d="M82 0v51l760 1331h-535q0 -125 -67 -239q-29 -47 -66 -78h-61v369h1106v-52l-758 -1331h553q0 129 65 240q29 47 68 78h61v-369h-1126z" />
<glyph unicode="[" horiz-adv-x="716" d="M174 -451v1926h522v-52h-194v-1822h194v-52h-522z" />
<glyph unicode="\" horiz-adv-x="716" d="M-41 1536h92l707 -1638h-92z" />
<glyph unicode="]" horiz-adv-x="716" d="M20 -399h195v1822h-195v52h523v-1926h-523v52z" />
<glyph unicode="^" horiz-adv-x="983" d="M61 881l431 594l430 -594h-123l-307 419l-308 -419h-123z" />
<glyph unicode="_" horiz-adv-x="798" d="M0 -113h799v-92h-799v92z" />
<glyph unicode="`" horiz-adv-x="450" d="M41 1434h266l82 -308h-72z" />
<glyph unicode="a" horiz-adv-x="1239" d="M102 246q0 80 35 157q14 37 37 68q84 20 182 37q221 37 392 45v61q0 227 -55.5 313.5t-170.5 86.5q-43 0 -73 -10l-29 -11v-307l-27 -6q-33 -4 -55 -4q-70 0 -112 42t-42 111q0 94 95.5 160t283.5 66q160 0 275.5 -56.5t176 -156t60.5 -228.5v-553l123 -30v-31h-184 q-123 0 -191 76q-29 31 -45 78q-29 -51 -67 -93q-92 -92 -230 -92q-182 0 -280.5 78t-98.5 199zM440 266q0 -115 35 -170t88 -55q76 0 137 82q23 31 48 82v297q-94 0 -181 -10q-63 -8 -86 -11q-10 -23 -20 -61q-20 -78 -21 -154z" />
<glyph unicode="b" horiz-adv-x="1259" d="M41 1403v31h266q184 0 185 -185v-276q33 27 63 41q74 41 172 41q207 0 329 -140.5t122 -402.5q0 -174 -55.5 -296t-149.5 -184.5t-215 -62.5q-138 0 -230 92q-39 41 -67 93q-14 -45 -49 -82q-78 -82 -228 -82h-20v1382zM492 205q18 -47 45 -82q61 -82 139 -82 q65 0 109 103.5t44 367.5q0 276 -48 378.5t-136 102.5q-53 0 -108 -41q-16 -12 -45 -41v-706z" />
<glyph unicode="c" horiz-adv-x="1085" d="M82 512q0 254 145.5 398.5t407.5 144.5q188 0 283.5 -65.5t95.5 -160.5q0 -70 -42 -111.5t-112 -41.5q-29 0 -57 4l-25 6v307l-28 11q-31 10 -74 10q-117 0 -181.5 -110.5t-64.5 -391.5q0 -272 64.5 -382t181.5 -110q80 0 148.5 38t108.5 100.5t40 128.5h51 q0 -82 -49 -156t-137 -118t-203 -44q-262 0 -407.5 144.5t-145.5 398.5z" />
<glyph unicode="d" horiz-adv-x="1269" d="M82 512q0 262 122 402.5t328 140.5q98 0 173 -41q31 -14 63 -41v399l-123 31v31h266q184 0 185 -185v-1188l123 -30v-31h-185q-123 0 -190 76q-29 31 -45 78q-27 -51 -68 -93q-92 -92 -229 -92q-121 0 -215 62.5t-149.5 184.5t-55.5 296zM430 512q0 -264 44 -367.5 t110 -103.5q76 0 137 82q23 31 47 82v706q-23 23 -47 41q-55 41 -107 41q-88 0 -136 -102.5t-48 -378.5z" />
<glyph unicode="e" d="M82 512q0 166 63.5 289t177 188.5t261.5 65.5q147 0 258.5 -55.5t172 -148.5t60.5 -206q0 -51 -10 -88l-10 -35q-88 -18 -191 -30q-215 -31 -434 -31q0 -238 65.5 -339.5t180.5 -101.5q80 0 148.5 38t108.5 100.5t40 128.5h51q0 -82 -49 -156t-137 -118t-203 -44 q-262 0 -407.5 144.5t-145.5 398.5zM430 512q131 0 213 10q35 2 74 10q2 10 10 46q10 51 10 108q0 170 -45 249t-108 79q-154 0 -154 -502z" />
<glyph unicode="f" horiz-adv-x="870" d="M51 932v51h144v102q0 109 52 195t149.5 135t228.5 49q106 0 183 -31.5t116 -84t39 -109.5q0 -70 -42 -112t-112 -42q-29 0 -57 5l-25 6v317l-18 4q-8 2 -18.5 4t-24.5 2q-70 0 -107 -72.5t-37 -265.5v-102h328v-51h-328v-871l123 -30v-31h-573v31l123 30v871h-144z" />
<glyph unicode="g" horiz-adv-x="1239" d="M51 -215q0 70 42 112t112 42q16 0 59 -7l23 -4v-286q25 -8 78 -21q94 -20 178 -20q250 0 365.5 70.5t115.5 174.5q0 133 -246 134h-389q-154 0 -235.5 63t-81.5 162q0 98 96 174q39 29 98 51q-76 47 -109.5 111.5t-33.5 154.5q0 152 114.5 245t335.5 93q96 0 177 -19.5 t131 -51.5q16 35 43 61q61 61 151 61q70 0 117 -48t47 -126q0 -59 -31.5 -96t-81.5 -37q-23 0 -51 4l-20 6v246q-53 0 -101 -51q-18 -18 -32 -51q102 -90 102 -236q0 -152 -114.5 -245t-336.5 -93q-147 0 -266 52l-41 -21q-20 -12 -30.5 -23.5t-10.5 -27.5q0 -35 36 -53.5 t128 -18.5h389q154 0 241 -89t87 -249q0 -164 -136 -266t-407 -102q-182 0 -296.5 32.5t-165 84t-50.5 108.5zM430 696q0 -166 38 -231.5t105 -65.5q68 0 106 65.5t38 231.5t-38 231.5t-106 65.5t-105.5 -65.5t-37.5 -231.5z" />
<glyph unicode="h" horiz-adv-x="1361" d="M82 0v31l123 30v1311l-123 31v31h266q184 0 184 -185v-327q31 41 64 65q88 68 203 68t206 -48.5t142 -126t51 -163.5v-656l123 -30v-31h-266q-184 0 -185 184v533q0 129 -46 197.5t-107 68.5q-78 0 -139 -82q-27 -35 -46 -82v-758l123 -30v-31h-573z" />
<glyph unicode="i" horiz-adv-x="696" d="M82 0v31l123 30v902l-123 30v31h266q184 0 184 -184v-779l123 -30v-31h-573zM204 1290q0 61 41 102.5t103 41.5q61 0 102 -41t41 -103q0 -61 -41 -102t-102 -41q-62 0 -103 41t-41 102z" />
<glyph unicode="j" horiz-adv-x="675" d="M-225 -246q0 70 42 112t111 42q16 0 32.5 -3t23.5 -3l26 -4v-287l13 -6q20 -4 28 -4q63 0 103.5 76.5t40.5 261.5v1024l-123 30v31h266q184 0 184 -184v-901q0 -109 -53 -195t-155.5 -135t-241.5 -49q-154 0 -225.5 51t-71.5 143zM194 1290q0 61 41 102.5t103 41.5 q61 0 102 -41t41 -103q0 -61 -41 -102t-102 -41q-62 0 -103 41t-41 102z" />
<glyph unicode="k" horiz-adv-x="1228" d="M82 0v31l123 30v1311l-123 31v31h266q184 0 184 -185v-717l379 400l-153 61v31h389v-31l-164 -61l-235 -246l399 -625l102 -30v-31h-266q-98 0 -159.5 43t-116.5 131l-175 277v-390l123 -30v-31h-573z" />
<glyph unicode="l" horiz-adv-x="696" d="M82 0v31l123 30v1311l-123 31v31h266q184 0 184 -185v-1188l123 -30v-31h-573z" />
<glyph unicode="m" horiz-adv-x="1945" d="M82 0v31l123 30v902l-123 30v31h184q121 0 191 -78q27 -31 45 -76q31 57 65 93q92 92 211 92t209 -52.5t139 -142.5q31 59 66 96q94 98 211 99q109 0 196 -45t135 -123t48 -170v-656l123 -30v-31h-267q-184 0 -184 184v533q0 133 -41 199.5t-92 66.5q-59 0 -121 -82 q-25 -39 -43 -82v-758l123 -30v-31h-573v31l122 30v656q0 133 -40.5 199.5t-92.5 66.5q-59 0 -121 -82q-25 -39 -43 -82v-758l123 -30v-31h-573z" />
<glyph unicode="n" horiz-adv-x="1361" d="M82 0v31l123 30v902l-123 30v31h184q121 0 191 -78q27 -31 45 -76q29 53 67 93q92 92 230 92q115 0 206 -48.5t142 -126t51 -163.5v-656l123 -30v-31h-266q-184 0 -185 184v533q0 129 -46 197.5t-107 68.5q-78 0 -139 -82q-27 -35 -46 -82v-758l123 -30v-31h-573z" />
<glyph unicode="o" horiz-adv-x="1249" d="M82 512q0 254 144.5 398.5t398.5 144.5t398 -144.5t144 -398.5t-144 -398.5t-398 -144.5t-398.5 144.5t-144.5 398.5zM430 512q0 -272 56.5 -387t138.5 -115t138 115t56 387t-56 387t-138 115t-138.5 -115t-56.5 -387z" />
<glyph unicode="p" horiz-adv-x="1280" d="M61 -379l123 31v1311l-123 30v31h185q121 0 190 -78q27 -31 45 -76q27 53 68 93q92 92 229 92q121 0 215 -62.5t149.5 -184.5t55.5 -296q0 -262 -122 -402.5t-328 -140.5q-98 0 -173 41q-31 14 -63 41v-399l123 -31v-31h-574v31zM512 113q29 -29 45 -41q55 -41 109 -41 q88 0 136 102.5t48 378.5q0 264 -44 367.5t-110 103.5q-78 0 -139 -82q-27 -35 -45 -82v-706z" />
<glyph unicode="q" horiz-adv-x="1259" d="M82 512q0 174 55.5 296t149.5 184.5t215 62.5q137 0 229 -92q39 -39 68 -93q14 45 49 82q78 82 227 82h21v-1382l123 -31v-31h-574v31l123 31v399q-33 -27 -63 -41q-74 -41 -173 -41q-207 0 -328.5 140.5t-121.5 402.5zM430 512q0 -276 48 -378.5t136 -102.5q52 0 107 41 q25 18 47 41v706q-25 51 -47 82q-61 82 -137 82q-66 0 -110 -103.5t-44 -367.5z" />
<glyph unicode="r" horiz-adv-x="1034" d="M82 0v31l123 30v902l-123 30v31h184q121 0 191 -78q27 -31 45 -76q31 45 76 82q102 82 229 82q109 0 163 -50t54 -144q0 -70 -42 -112t-112 -42q-29 0 -57 4l-25 6v287q-104 0 -190 -82q-41 -41 -66 -82v-758l123 -30v-31h-573z" />
<glyph unicode="s" horiz-adv-x="1105" d="M92 -10v348h82q27 -86 78 -160q109 -158 270 -158q86 0 130 42t44 122q0 68 -60.5 114t-189.5 114q-111 55 -179 99t-116.5 110.5t-48.5 156.5q0 123 105.5 200t324.5 77q109 0 201 -58q45 -27 78 -55q27 37 72 70q35 20 41 22h51v-348h-82q-31 88 -76 158 q-102 160 -244 160q-55 0 -94 -41t-39 -103q0 -78 65.5 -130t199.5 -120q109 -55 173 -97t110 -103.5t46 -143.5q0 -297 -471 -297q-127 1 -227 56q-49 27 -80 57q-33 -45 -72 -70q-18 -12 -41 -22h-51z" />
<glyph unicode="t" horiz-adv-x="921" d="M31 973v51h143v102q0 184 184 185h144v-287h286v-51h-286v-625q0 -188 39 -258t114 -70q74 0 129.5 72t55.5 195h51q0 -152 -76 -235t-201 -83q-135 0 -234 49.5t-152.5 135.5t-53.5 194v625h-143z" />
<glyph unicode="u" horiz-adv-x="1331" d="M51 993v31h266q184 0 185 -184v-533q0 -129 46 -197.5t107 -68.5q76 0 138 82q23 31 47 82v758l-123 30v31h573v-31l-123 -30v-973h-20q-150 0 -227 82q-35 37 -50 82q-29 -51 -67 -93q-92 -92 -230 -92q-114 0 -205.5 48.5t-142.5 126t-51 163.5v656z" />
<glyph unicode="v" d="M-41 993v31h256q106 0 168.5 -44t108.5 -130l243 -473l228 555l-154 61v31h379v-31l-164 -61l-389 -952h-62l-512 983z" />
<glyph unicode="w" horiz-adv-x="1710" d="M-41 993v31h236q109 0 172 -45t104 -129l225 -471l117 299l-137 285l-103 30v31h236q109 0 172 -45t104 -129l226 -471l215 553l-154 61v31h379v-31l-164 -61l-379 -952h-61l-303 630l-250 -630h-62l-471 983z" />
<glyph unicode="x" horiz-adv-x="1136" d="M-10 993v31h276q98 0 159.5 -44t117.5 -130l104 -166l193 248l-154 61v31h389v-31l-164 -61l-233 -297l366 -574l103 -30v-31h-277q-98 0 -159.5 43t-116.5 131l-123 193l-215 -275l154 -61v-31h-390v31l164 61l254 326l-346 545z" />
<glyph unicode="y" d="M-41 993v31h256q106 0 168.5 -44t108.5 -130l256 -473l215 555l-154 61v31h379v-31l-164 -61l-410 -1055q-66 -168 -139.5 -242.5t-167.5 -74.5q-92 0 -143 49t-51 135q0 78 42 121t111 43q16 0 32.5 -3t23.5 -3l26 -4v-277q59 10 104.5 65.5t100.5 190.5l41 103 l-533 983z" />
<glyph unicode="z" horiz-adv-x="1116" d="M82 0v51l584 922h-369q0 -113 -68 -228q-27 -43 -65 -79h-62v358h932v-51l-583 -922h389q0 117 65 228q29 47 68 79h61v-358h-952z" />
<glyph unicode="{" horiz-adv-x="757" d="M61 481v62q72 0 113 50t41 155v419q0 84 47 154t138.5 112t213.5 42h123v-52h-20q-80 0 -127 -54t-47 -161v-379q0 -193 -164 -274q-70 -37 -164 -43q94 -6 164 -43q164 -82 164 -274v-379q0 -106 47 -160.5t127 -54.5h20v-52h-123q-122 0 -213.5 42t-138.5 112t-47 154 v419q0 104 -41 154.5t-113 50.5z" />
<glyph unicode="|" horiz-adv-x="460" d="M174 -410v1844h113v-1844h-113z" />
<glyph unicode="}" horiz-adv-x="757" d="M20 -399h21q80 0 127 54t47 161v379q0 193 164 274q70 37 164 43q-94 6 -164 43q-164 82 -164 274v379q0 106 -47 160.5t-127 54.5h-21v52h123q123 0 214.5 -42t138.5 -112t47 -154v-419q0 -104 41 -154.5t112 -50.5v-62q-72 0 -112.5 -50t-40.5 -155v-419 q0 -84 -47 -154t-138.5 -112t-214.5 -42h-123v52z" />
<glyph unicode="~" horiz-adv-x="1054" d="M61 481q0 193 74 286t203 93q68 0 120 -20.5t120 -61.5q63 -37 106 -54t94 -17q68 0 116 46t48 107h51q0 -195 -72.5 -287t-203.5 -92q-68 0 -117 20.5t-117 59.5q-66 39 -108.5 56.5t-98.5 17.5q-68 0 -115.5 -46t-47.5 -108h-52z" />
<glyph unicode="&#xa1;" horiz-adv-x="634" d="M123 -205l164 789h61l164 -789q0 -106 -56.5 -170.5t-138.5 -64.5q-81 0 -137.5 64.5t-56.5 170.5zM164 881q0 68 46 115.5t107 47.5t107.5 -48t46.5 -115q0 -68 -46 -116t-108 -48q-61 0 -107 48t-46 116z" />
<glyph unicode="&#xa2;" horiz-adv-x="1085" d="M82 512q0 248 140 392.5t392 150.5v133h62v-135q166 -8 252 -71.5t86 -152.5q0 -70 -42 -111.5t-112 -41.5q-29 0 -57 4l-25 6v307l-28 11q-31 10 -74 10v-994q80 0 148.5 38t108.5 100.5t40 128.5h51q0 -80 -43 -148.5t-123 -113.5t-182 -54v-135h-62v133 q-256 6 -394 148.5t-138 394.5zM430 512q0 -236 48 -347.5t136 -137.5v979q-88 -20 -136 -137t-48 -357z" />
<glyph unicode="&#xa3;" horiz-adv-x="1228" d="M72 0v49q68 8 106.5 74.5t46.5 224.5l17 369h-150v61h152l12 266q10 197 131 308.5t340 111.5q186 0 272 -63.5t86 -159.5q0 -70 -42 -112t-111 -42q-29 0 -58 5l-24 6v307l-19 8q-25 10 -63 10q-78 0 -120 -81.5t-54 -297.5l-12 -266h360v-61h-362l-17 -369 q-8 -133 -100 -198q-39 -27 -94 -37h604q14 111 69 184q23 35 54 61h61v-358h-1085z" />
<glyph unicode="&#xa4;" horiz-adv-x="1413" d="M102 358v62h154v133h-154v61h154v758l-123 31v31h574q340 0 487 -112t147 -329t-147 -328.5t-487 -111.5h-113v-133h512v-62h-512v-297l123 -30v-31h-584v31l123 30v297h-154zM594 614h113q129 0 207.5 97.5t78.5 281.5q0 190 -78.5 289.5t-207.5 99.5h-113v-768z" />
<glyph unicode="&#xa5;" horiz-adv-x="1361" d="M0 1403v31h256q106 0 171 -45.5t105 -128.5l304 -601l311 682l-154 62v31h389v-31l-163 -62l-324 -706h221v-62h-248l-8 -20v-102h256v-62h-256v-328l123 -30v-31h-584v31l123 30v328h-256v62h256v81l-20 41h-236v62h205l-369 737z" />
<glyph unicode="&#xa6;" horiz-adv-x="460" d="M174 328h113v-738h-113v738zM174 696v738h113v-738h-113z" />
<glyph unicode="&#xa7;" horiz-adv-x="1064" d="M82 481q0 92 69.5 167t206.5 110q-111 72 -173 157.5t-62 210.5q0 145 116.5 236.5t344.5 91.5q117 0 197.5 -31.5t120.5 -83t40 -110.5q0 -70 -42 -112t-112 -42q-29 0 -57 4l-24 6v318l-27 4q-6 0 -22.5 3t-32.5 3q-66 0 -115 -60.5t-49 -164.5q0 -94 61.5 -156.5 t184.5 -136.5q90 -55 145 -99t93 -106.5t38 -146.5q0 -86 -69.5 -157t-206.5 -99q129 -72 202.5 -157t73.5 -222q0 -156 -125 -247t-387 -91q-188 0 -283.5 65.5t-95.5 159.5q0 70 42 112t112 42q16 0 32.5 -3t22.5 -3l27 -4v-308q14 -8 28 -10q35 -10 74 -10 q102 0 158.5 60.5t56.5 174.5q0 63 -35 113.5t-87 86.5t-140 83q-100 55 -158.5 97t-100.5 105.5t-42 149.5zM389 594q0 -113 133 -209q66 -47 133 -78l11 29q10 37 10 104q0 109 -133 209q-59 45 -133 78q-8 -10 -11 -29q-10 -37 -10 -104z" />
<glyph unicode="&#xa8;" horiz-adv-x="747" d="M41 1290q0 61 41 102.5t102 41.5t102.5 -41t41.5 -103q0 -61 -41 -102t-103 -41q-61 0 -102 41t-41 102zM420 1290q0 61 41 102.5t102 41.5t102.5 -41t41.5 -103q0 -61 -41 -102t-103 -41q-61 0 -102 41t-41 102z" />
<glyph unicode="&#xa9;" horiz-adv-x="1720" d="M82 717q0 221 104.5 404.5t282.5 289t391 105.5t391.5 -105.5t282.5 -289t104 -404.5t-104 -404.5t-282.5 -289t-391.5 -105.5t-391 105.5t-282.5 289t-104.5 404.5zM154 717q0 -213 93 -381t254 -262t359 -94q199 0 359.5 94t254 262t93.5 381t-93.5 381t-254 262 t-359.5 94t-359.5 -94t-253.5 -262t-93 -381zM461 717q0 209 115.5 324.5t324.5 115.5q160 0 244 -59.5t84 -145.5q0 -61 -36 -97t-97 -36q-29 0 -58 4l-24 6v277l-21 4q-6 0 -20.5 3t-30.5 3q-80 0 -137 -97t-57 -302q0 -201 58 -295t146 -94q98 0 167 65.5t69 159.5h51 q0 -72 -41 -135.5t-116.5 -102.5t-170.5 -39q-215 0 -332.5 116t-117.5 325z" />
<glyph unicode="&#xaa;" horiz-adv-x="849" d="M61 922q0 51 21 96q10 25 20 37l121 30q154 31 258 31v72q0 123 -31.5 174t-91.5 51q-16 0 -32.5 -3t-22.5 -3l-27 -4v-205l-20 -6q-29 -4 -51 -4q-47 0 -75 27.5t-28 74.5q0 70 74 117t223 47q147 0 227.5 -80t80.5 -227v-338l81 -21v-30h-122q-92 0 -136 51 q-16 18 -28 51q-16 -37 -39 -61q-61 -61 -146 -62q-124 0 -190 51.5t-66 133.5zM287 942q0 -72 28.5 -113t63.5 -41q37 1 74 54q18 25 28 55v178q-20 0 -112 -6l-52 -4q-6 -8 -16 -35q-14 -37 -14 -88z" />
<glyph unicode="&#xab;" horiz-adv-x="901" d="M31 512l532 471l51 -51l-378 -420l378 -420l-51 -51zM399 512l389 358l52 -51l-246 -307l246 -307l-52 -51z" />
<glyph unicode="&#xac;" horiz-adv-x="962" d="M61 655v93h840v-297h-92v204h-748z" />
<glyph unicode="&#xad;" horiz-adv-x="942" d="M61 614v93h820v-93h-820z" />
<glyph unicode="&#xae;" horiz-adv-x="1720" d="M82 717q0 221 104.5 404.5t282.5 289t391 105.5t391.5 -105.5t282.5 -289t104 -404.5t-104 -404.5t-282.5 -289t-391.5 -105.5t-391 105.5t-282.5 289t-104.5 404.5zM154 717q0 -213 93 -381t254 -262t359 -94q199 0 359.5 94t254 262t93.5 381t-93.5 381t-254 262 t-359.5 94t-359.5 -94t-253.5 -262t-93 -381zM430 287v30l102 21v758l-102 20v31h389q246 0 348.5 -64.5t102.5 -181.5q0 -131 -144 -184q-66 -25 -143 -31q41 -4 78 -18q82 -31 117 -105l102 -225l72 -21v-30h-205q-74 0 -123 34.5t-72 88.5l-112 256h-41v-328l102 -21v-30 h-471zM799 707h20q80 0 122 50t42 144q0 90 -46 142.5t-118 52.5h-20v-389z" />
<glyph unicode="&#xaf;" horiz-adv-x="614" d="M41 1341v93h532v-93h-532z" />
<glyph unicode="&#xb0;" horiz-adv-x="757" d="M61 1137q0 86 39 158.5t112 115.5t167 43t166.5 -43t111.5 -115.5t39 -158.5t-39 -159t-111.5 -116t-166.5 -43t-167 43t-112 116t-39 159zM215 1137q0 -104 46 -159.5t118 -55.5t118 55t46 160q0 104 -46 159.5t-118 55.5t-118 -55.5t-46 -159.5z" />
<glyph unicode="&#xb1;" horiz-adv-x="1034" d="M61 655v93h410v419h92v-419h410v-93h-410v-379h-92v379h-410zM82 102v93h870v-93h-870z" />
<glyph unicode="&#xb2;" horiz-adv-x="706" d="M61 758v61q0 57 26 101.5t60.5 74t98.5 72.5q88 57 131 103.5t43 119.5q0 51 -32 87t-71 36q-16 0 -32.5 -3t-22.5 -3l-26 -4v-205l-21 -6q-29 -4 -51 -4q-47 0 -75 27.5t-28 74.5q0 70 74 117t223 47q139 0 213 -57.5t74 -147.5q0 -70 -39 -118t-96 -77.5t-154 -68.5 q-92 -37 -146 -65.5t-87 -69.5h389q6 53 45 117q16 27 37 47h41v-256h-574z" />
<glyph unicode="&#xb3;" horiz-adv-x="737" d="M61 901q0 47 28 75t75 28q16 0 30.5 -3.5t20.5 -3.5l21 -4v-205l26 -6q33 -4 55 -4q61 0 97.5 40t36.5 114q0 76 -34 114.5t-89 38.5h-54v41h54q35 0 63.5 39t28.5 105t-29 104.5t-63 38.5q-16 0 -32.5 -3t-23.5 -3l-26 -4v-205l-21 -6q-29 -4 -51 -4q-47 0 -74.5 27.5 t-27.5 74.5q0 70 73.5 117t223.5 47q131 0 203.5 -54t72.5 -130q0 -53 -30.5 -86t-82.5 -54q-53 -23 -112 -24q76 -6 127 -27q129 -45 129 -147q0 -84 -80 -139.5t-238 -55.5q-149 0 -223 47t-74 117z" />
<glyph unicode="&#xb4;" horiz-adv-x="450" d="M61 1126l82 308h267l-277 -308h-72z" />
<glyph unicode="&#xb5;" horiz-adv-x="1341" d="M61 -379l123 31v1311l-123 30v31h267q184 0 184 -184v-512q0 -129 46 -198t108 -69q76 0 137 82q23 31 47 82v738l-123 30v31h573v-31l-122 -30v-973h-21q-152 0 -227 92q-33 41 -49 92q-18 -53 -50 -92q-68 -92 -165 -92q-68 0 -115 35q-27 18 -39 36v-286 q0 -184 -184 -185h-267v31z" />
<glyph unicode="&#xb6;" horiz-adv-x="1208" d="M72 993q0 211 121.5 326t359.5 115h604v-62h-164v-1782h-112v1782h-215v-1782h-113v963q-238 0 -359.5 114.5t-121.5 325.5z" />
<glyph unicode="&#xb7;" horiz-adv-x="573" d="M133 717q0 68 46 116t108 48q61 0 107 -48.5t46 -115.5q0 -68 -46 -116t-107 -48q-62 0 -108 48t-46 116z" />
<glyph unicode="&#xb8;" horiz-adv-x="411" d="M41 -338q12 -8 20 -10q25 -10 54 -10q47 0 74.5 27.5t27.5 74.5t-29.5 74.5t-83.5 27.5v154h72v-102q88 0 141.5 -45.5t53.5 -108.5q0 -66 -55.5 -110t-159.5 -44q-35 0 -80 4l-35 7v61z" />
<glyph unicode="&#xb9;" horiz-adv-x="583" d="M61 1208l226 226h153v-625l82 -21v-30h-389v30l82 21v461l-123 -92z" />
<glyph unicode="&#xba;" horiz-adv-x="798" d="M61 1096q0 106 44.5 187t121 126t172.5 45t173 -45t121 -126t44 -187t-44 -187.5t-120.5 -126.5t-173.5 -45q-96 0 -172.5 45t-121 126t-44.5 188zM287 1096q0 -174 32.5 -246t79.5 -72t80 72t33 246t-33 245.5t-80 71.5t-79.5 -71.5t-32.5 -245.5z" />
<glyph unicode="&#xbb;" horiz-adv-x="901" d="M61 205l246 307l-246 307l52 51l389 -358l-389 -358zM287 92l379 420l-379 420l51 51l532 -471l-532 -471z" />
<glyph unicode="&#xbc;" horiz-adv-x="1406" d="M41 1208l225 226h154v-625l82 -21v-30h-389v30l82 21v461l-123 -92zM154 0l1054 1434h113l-1055 -1434h-112zM666 205l430 471h123v-461h127v-61h-127v-103l81 -20v-31h-389v31l82 20v103h-297zM748 215h245v266z" />
<glyph unicode="&#xbd;" horiz-adv-x="1443" d="M41 1208l225 226h154v-625l82 -21v-30h-389v30l82 21v461l-123 -92zM133 0l1055 1434h112l-1054 -1434h-113zM799 0v61q0 57 25.5 101.5t60.5 74t98 72.5q88 57 131 103.5t43 119.5q0 51 -31.5 87t-70.5 36q-16 0 -32.5 -3t-23.5 -3l-26 -4v-205l-21 -6q-29 -4 -51 -4 q-47 0 -74.5 27.5t-27.5 74.5q0 70 73.5 117t223.5 47q139 0 212.5 -57t73.5 -147q0 -70 -38.5 -118t-96 -78t-153.5 -69q-92 -37 -146.5 -65.5t-87.5 -69.5h389q6 53 45 117q16 27 37 47h41v-256h-573z" />
<glyph unicode="&#xbe;" horiz-adv-x="1447" d="M61 901q0 47 28 75t75 28q16 0 30.5 -3.5t20.5 -3.5l21 -4v-205l26 -6q33 -4 55 -4q61 0 97.5 40t36.5 114q0 76 -34 114.5t-89 38.5h-54v41h54q35 0 63.5 39t28.5 105t-29 104.5t-63 38.5q-16 0 -32.5 -3t-23.5 -3l-26 -4v-205l-21 -6q-29 -4 -51 -4q-47 0 -74.5 27.5 t-27.5 74.5q0 70 73.5 117t223.5 47q131 0 203.5 -54t72.5 -130q0 -53 -30.5 -86t-82.5 -54q-53 -23 -112 -24q76 -6 127 -27q129 -45 129 -147q0 -84 -80 -139.5t-238 -55.5q-149 0 -223 47t-74 117zM215 0l1055 1434h112l-1054 -1434h-113zM707 205l430 471h123v-461h126 v-61h-126v-103l81 -20v-31h-389v31l82 20v103h-297zM788 215h246v266z" />
<glyph unicode="&#xbf;" d="M72 -20q0 174 128 288.5t384 151.5l10 164h82l10 -195q-125 -49 -190.5 -143t-65.5 -266q0 -197 70.5 -283t216.5 -86q68 0 121 14q41 14 43 17v327l24 4q43 6 58 7q70 0 111.5 -42t41.5 -112q0 -66 -50 -127t-149.5 -100t-240.5 -39q-299 0 -451.5 116.5t-152.5 303.5z M492 881q0 68 46 115.5t107 47.5t107.5 -48t46.5 -115q0 -68 -46 -116t-108 -48q-61 0 -107 48t-46 116z" />
<glyph unicode="&#xc0;" horiz-adv-x="1392" d="M-41 0v31l164 61l563 1362h62l583 -1393l103 -30v-31h-246q-106 0 -174 48t-101 126l-104 246h-490l-135 -328l154 -61v-31h-379zM340 471h448l-225 539zM417 1844h267l82 -308h-72z" />
<glyph unicode="&#xc1;" horiz-adv-x="1392" d="M-41 0v31l164 61l563 1362h62l583 -1393l103 -30v-31h-246q-106 0 -174 48t-101 126l-104 246h-490l-135 -328l154 -61v-31h-379zM340 471h448l-225 539zM660 1536l82 308h266l-276 -308h-72z" />
<glyph unicode="&#xc2;" horiz-adv-x="1392" d="M-41 0v31l164 61l563 1362h62l583 -1393l103 -30v-31h-246q-106 0 -174 48t-101 126l-104 246h-490l-135 -328l154 -61v-31h-379zM340 471h448l-225 539zM420 1536l297 338l297 -338h-72l-225 144l-225 -144h-72z" />
<glyph unicode="&#xc3;" horiz-adv-x="1392" d="M-41 0v31l164 61l563 1362h62l583 -1393l103 -30v-31h-246q-106 0 -174 48t-101 126l-104 246h-490l-135 -328l154 -61v-31h-379zM340 471h448l-225 539zM434 1608q0 119 48 177.5t136 58.5q45 0 78 -15.5t72 -44.5q29 -20 50 -31.5t46 -11.5q39 0 65.5 26.5t26.5 65.5 h41q0 -119 -48 -177t-136 -58q-45 0 -78 15.5t-72 43.5q-29 23 -50 33t-46 10q-39 0 -65.5 -26.5t-26.5 -65.5h-41z" />
<glyph unicode="&#xc4;" horiz-adv-x="1392" d="M-41 0v31l164 61l563 1362h62l583 -1393l103 -30v-31h-246q-106 0 -174 48t-101 126l-104 246h-490l-135 -328l154 -61v-31h-379zM340 471h448l-225 539zM383 1700q0 61 41 102.5t103 41.5q61 0 102 -41t41 -103q0 -61 -41 -102t-102 -41q-62 0 -103 41t-41 102z M762 1700q0 61 41 102.5t103 41.5q61 0 102 -41t41 -103q0 -61 -41 -102t-102 -41q-62 0 -103 41t-41 102z" />
<glyph unicode="&#xc5;" horiz-adv-x="1392" d="M-41 0v31l164 61l563 1362h62l583 -1393l103 -30v-31h-246q-106 0 -174 48t-101 126l-104 246h-490l-135 -328l154 -61v-31h-379zM340 471h448l-225 539zM501 1741q0 86 61.5 145.5t154.5 59.5q92 0 153.5 -59.5t61.5 -145.5t-61.5 -145.5t-153.5 -59.5 q-93 0 -154.5 59.5t-61.5 145.5zM604 1741q0 -59 31.5 -96t81.5 -37q49 0 80.5 37t31.5 96t-31.5 96t-80.5 37t-81 -36.5t-32 -96.5z" />
<glyph unicode="&#xc6;" horiz-adv-x="2029" d="M-61 0v31l163 61l750 1342h1053v-369h-62q-39 31 -67 78q-66 111 -66 239h-420v-645h215q14 78 54 146q16 31 38 59h62v-461h-62q-23 29 -38 60q-39 68 -54 145h-215v-635h461q0 129 66 240q29 47 67 78h62v-369h-1117v31l123 30v482h-526l-250 -451l154 -61v-31h-391z M457 594h495v788h-55z" />
<glyph unicode="&#xc7;" horiz-adv-x="1331" d="M92 717q0 236 81 404.5t227.5 255.5t338.5 87q117 0 236 -67q45 -25 90 -66q35 53 72 84q37 27 41 29h51v-389h-82q-27 98 -80 178q-49 78 -122 129t-167 51q-141 0 -234 -164t-93 -532q0 -375 101 -536t277 -161q96 0 183.5 54.5t141.5 144.5t54 191h52 q0 -117 -62.5 -218.5t-170 -162t-239.5 -60.5h-24v-71q88 0 141 -45.5t53 -108.5q0 -66 -55 -110t-160 -44q-34 0 -79 4l-35 7v61q12 -8 20 -10q25 -10 53 -10q47 0 75 27.5t28 74.5t-30 74.5t-83 27.5v129q-285 27 -442.5 217.5t-157.5 524.5z" />
<glyph unicode="&#xc8;" horiz-adv-x="1320" d="M102 0v31l123 30v1311l-123 31v31h1096v-369h-61q-39 31 -68 78q-66 111 -65 239h-441v-645h236q14 78 53 146q16 31 39 59h61v-461h-61q-23 29 -39 60q-39 68 -53 145h-236v-635h481q0 129 66 240q29 47 68 78h61v-369h-1137zM444 1844h267l82 -308h-72z" />
<glyph unicode="&#xc9;" horiz-adv-x="1320" d="M102 0v31l123 30v1311l-123 31v31h1096v-369h-61q-39 31 -68 78q-66 111 -65 239h-441v-645h236q14 78 53 146q16 31 39 59h61v-461h-61q-23 29 -39 60q-39 68 -53 145h-236v-635h481q0 129 66 240q29 47 68 78h61v-369h-1137zM686 1536l82 308h266l-276 -308h-72z" />
<glyph unicode="&#xca;" horiz-adv-x="1320" d="M102 0v31l123 30v1311l-123 31v31h1096v-369h-61q-39 31 -68 78q-66 111 -65 239h-441v-645h236q14 78 53 146q16 31 39 59h61v-461h-61q-23 29 -39 60q-39 68 -53 145h-236v-635h481q0 129 66 240q29 47 68 78h61v-369h-1137zM446 1536l297 338l297 -338h-72l-225 144 l-225 -144h-72z" />
<glyph unicode="&#xcb;" horiz-adv-x="1320" d="M102 0v31l123 30v1311l-123 31v31h1096v-369h-61q-39 31 -68 78q-66 111 -65 239h-441v-645h236q14 78 53 146q16 31 39 59h61v-461h-61q-23 29 -39 60q-39 68 -53 145h-236v-635h481q0 129 66 240q29 47 68 78h61v-369h-1137zM409 1700q0 61 41 102.5t103 41.5 q61 0 102 -41t41 -103q0 -61 -41 -102t-102 -41q-62 0 -103 41t-41 102zM788 1700q0 61 41 102.5t103 41.5q61 0 102 -41t41 -103q0 -61 -41 -102t-102 -41q-62 0 -103 41t-41 102z" />
<glyph unicode="&#xcc;" horiz-adv-x="788" d="M96 1844h267l82 -308h-72zM102 0v31l123 30v1311l-123 31v31h584v-31l-123 -31v-1311l123 -30v-31h-584z" />
<glyph unicode="&#xcd;" horiz-adv-x="788" d="M102 0v31l123 30v1311l-123 31v31h584v-31l-123 -31v-1311l123 -30v-31h-584zM338 1536l82 308h266l-276 -308h-72z" />
<glyph unicode="&#xce;" horiz-adv-x="788" d="M98 1536l297 338l297 -338h-72l-225 144l-225 -144h-72zM102 0v31l123 30v1311l-123 31v31h584v-31l-123 -31v-1311l123 -30v-31h-584z" />
<glyph unicode="&#xcf;" horiz-adv-x="788" d="M61 1700q0 61 41 102.5t103 41.5q61 0 102 -41t41 -103q0 -61 -41 -102t-102 -41q-62 0 -103 41t-41 102zM102 0v31l123 30v1311l-123 31v31h584v-31l-123 -31v-1311l123 -30v-31h-584zM440 1700q0 61 41 102.5t103 41.5q61 0 102 -41t41 -103q0 -61 -41 -102t-102 -41 q-62 0 -103 41t-41 102z" />
<glyph unicode="&#xd0;" horiz-adv-x="1464" d="M102 696v62h134v614l-123 31v31h522q367 0 562.5 -188.5t195.5 -528.5t-196 -528.5t-562 -188.5h-522v31l123 30v635h-134zM573 51h62q190 0 294.5 154.5t104.5 511.5q0 356 -104.5 510.5t-294.5 154.5h-62v-624h246v-62h-246v-645z" />
<glyph unicode="&#xd1;" horiz-adv-x="1515" d="M61 0v31l164 61v1270l-143 41v31h215q109 0 170 -39t117 -105l655 -768v819l-164 62v31h389v-31l-164 -62v-1372h-61l-952 1116v-993l164 -61v-31h-390zM475 1608q0 119 48 177.5t136 58.5q45 0 78 -15.5t72 -44.5q29 -20 50 -31.5t46 -11.5q39 0 65.5 26.5t26.5 65.5h41 q0 -119 -48 -177t-136 -58q-45 0 -78 15.5t-72 43.5q-29 23 -50 33t-46 10q-39 0 -65.5 -26.5t-26.5 -65.5h-41z" />
<glyph unicode="&#xd2;" horiz-adv-x="1515" d="M92 717q0 238 82 405.5t232.5 254.5t351.5 87t351.5 -87t232 -255t81.5 -405q0 -238 -81.5 -406t-232.5 -255t-351 -87q-201 0 -351.5 87t-232.5 255t-82 406zM451 717q0 -256 45 -414t113.5 -225.5t148.5 -67.5t148.5 67.5t113.5 225.5t45 414t-45 413.5t-113.5 225 t-148.5 67.5t-148.5 -67.5t-113.5 -225t-45 -413.5zM458 1844h267l82 -308h-72z" />
<glyph unicode="&#xd3;" horiz-adv-x="1515" d="M92 717q0 238 82 405.5t232.5 254.5t351.5 87t351.5 -87t232 -255t81.5 -405q0 -238 -81.5 -406t-232.5 -255t-351 -87q-201 0 -351.5 87t-232.5 255t-82 406zM451 717q0 -256 45 -414t113.5 -225.5t148.5 -67.5t148.5 67.5t113.5 225.5t45 414t-45 413.5t-113.5 225 t-148.5 67.5t-148.5 -67.5t-113.5 -225t-45 -413.5zM701 1536l82 308h266l-276 -308h-72z" />
<glyph unicode="&#xd4;" horiz-adv-x="1515" d="M92 717q0 238 82 405.5t232.5 254.5t351.5 87t351.5 -87t232 -255t81.5 -405q0 -238 -81.5 -406t-232.5 -255t-351 -87q-201 0 -351.5 87t-232.5 255t-82 406zM451 717q0 -256 45 -414t113.5 -225.5t148.5 -67.5t148.5 67.5t113.5 225.5t45 414t-45 413.5t-113.5 225 t-148.5 67.5t-148.5 -67.5t-113.5 -225t-45 -413.5zM461 1536l297 338l297 -338h-72l-225 144l-225 -144h-72z" />
<glyph unicode="&#xd5;" horiz-adv-x="1515" d="M92 717q0 238 82 405.5t232.5 254.5t351.5 87t351.5 -87t232 -255t81.5 -405q0 -238 -81.5 -406t-232.5 -255t-351 -87q-201 0 -351.5 87t-232.5 255t-82 406zM451 717q0 -256 45 -414t113.5 -225.5t148.5 -67.5t148.5 67.5t113.5 225.5t45 414t-45 413.5t-113.5 225 t-148.5 67.5t-148.5 -67.5t-113.5 -225t-45 -413.5zM475 1608q0 119 48 177.5t136 58.5q45 0 78 -15.5t72 -44.5q29 -20 50 -31.5t46 -11.5q39 0 65.5 26.5t26.5 65.5h41q0 -119 -48 -177t-136 -58q-45 0 -78 15.5t-72 43.5q-29 23 -50 33t-46 10q-39 0 -65.5 -26.5 t-26.5 -65.5h-41z" />
<glyph unicode="&#xd6;" horiz-adv-x="1515" d="M92 717q0 238 82 405.5t232.5 254.5t351.5 87t351.5 -87t232 -255t81.5 -405q0 -238 -81.5 -406t-232.5 -255t-351 -87q-201 0 -351.5 87t-232.5 255t-82 406zM423 1700q0 61 41 102.5t103 41.5q61 0 102 -41t41 -103q0 -61 -41 -102t-102 -41q-62 0 -103 41t-41 102z M451 717q0 -256 45 -414t113.5 -225.5t148.5 -67.5t148.5 67.5t113.5 225.5t45 414t-45 413.5t-113.5 225t-148.5 67.5t-148.5 -67.5t-113.5 -225t-45 -413.5zM802 1700q0 61 41 102.5t103 41.5q61 0 102 -41t41 -103q0 -61 -41 -102t-102 -41q-62 0 -103 41t-41 102z" />
<glyph unicode="&#xd7;" horiz-adv-x="831" d="M61 406l289 290l-289 289l66 66l289 -289l289 289l65 -66l-289 -289l289 -290l-65 -64l-289 289l-289 -289z" />
<glyph unicode="&#xd8;" horiz-adv-x="1515" d="M92 717q0 238 82 405.5t232.5 254.5t351.5 87q254 0 424 -145l88 115h71l-118 -156q201 -211 200 -561q0 -238 -81.5 -406t-232.5 -255t-351 -87q-254 1 -424 146l-88 -115h-72l117 154q-94 100 -146.5 241.5t-52.5 321.5zM451 717q0 -190 24 -324l549 719 q-41 162 -112.5 236.5t-153.5 74.5q-80 0 -148.5 -67.5t-113.5 -225t-45 -413.5zM489 319q39 -162 112 -235.5t157 -73.5q80 0 148.5 67.5t113.5 225.5t45 414q0 170 -25 321z" />
<glyph unicode="&#xd9;" horiz-adv-x="1454" d="M72 1403v31h583v-31l-123 -31v-860q0 -264 82 -378t236 -114q94 0 179 60.5t137.5 172.5t52.5 259v829l-164 62v31h389v-31l-164 -62v-829q0 -166 -61.5 -289t-168 -188.5t-241.5 -65.5q-303 0 -458.5 142.5t-155.5 400.5v860zM551 1844h267l82 -308h-72z" />
<glyph unicode="&#xda;" horiz-adv-x="1454" d="M72 1403v31h583v-31l-123 -31v-860q0 -264 82 -378t236 -114q94 0 179 60.5t137.5 172.5t52.5 259v829l-164 62v31h389v-31l-164 -62v-829q0 -166 -61.5 -289t-168 -188.5t-241.5 -65.5q-303 0 -458.5 142.5t-155.5 400.5v860zM793 1536l82 308h266l-276 -308h-72z" />
<glyph unicode="&#xdb;" horiz-adv-x="1454" d="M72 1403v31h583v-31l-123 -31v-860q0 -264 82 -378t236 -114q94 0 179 60.5t137.5 172.5t52.5 259v829l-164 62v31h389v-31l-164 -62v-829q0 -166 -61.5 -289t-168 -188.5t-241.5 -65.5q-303 0 -458.5 142.5t-155.5 400.5v860zM553 1536l297 338l297 -338h-72l-225 144 l-225 -144h-72z" />
<glyph unicode="&#xdc;" horiz-adv-x="1454" d="M72 1403v31h583v-31l-123 -31v-860q0 -264 82 -378t236 -114q94 0 179 60.5t137.5 172.5t52.5 259v829l-164 62v31h389v-31l-164 -62v-829q0 -166 -61.5 -289t-168 -188.5t-241.5 -65.5q-303 0 -458.5 142.5t-155.5 400.5v860zM516 1700q0 61 41 102.5t103 41.5 q61 0 102 -41t41 -103q0 -61 -41 -102t-102 -41q-62 0 -103 41t-41 102zM895 1700q0 61 41 102.5t103 41.5q61 0 102 -41t41 -103q0 -61 -41 -102t-102 -41q-62 0 -103 41t-41 102z" />
<glyph unicode="&#xdd;" horiz-adv-x="1361" d="M0 1403v31h256q106 0 171 -45.5t105 -128.5l304 -605l311 686l-154 62v31h389v-31l-163 -62l-359 -788v-492l123 -30v-31h-584v31l123 30v471l-420 840zM625 1536l82 308h266l-276 -308h-72z" />
<glyph unicode="&#xde;" horiz-adv-x="1433" d="M102 0v31l123 30v1311l-123 31v31h584v-31l-123 -31v-123h92q240 0 401 -67.5t238.5 -187.5t77.5 -277q0 -158 -77.5 -278t-238.5 -187.5t-401 -67.5h-92v-123l123 -30v-31h-584zM563 236h92q100 0 181.5 55t129.5 163.5t48 262.5t-48 262t-129 163.5t-182 55.5h-92v-962 z" />
<glyph unicode="&#xdf;" horiz-adv-x="1413" d="M61 0v31l123 30v963q0 127 59.5 227.5t171 156.5t261.5 56q121 0 217 -45t149.5 -114.5t53.5 -137.5q0 -82 -18.5 -132t-53.5 -109q-27 -45 -39 -75t-12 -73q0 -61 41 -104t129 -105q72 -49 114.5 -86t73.5 -91t31 -126q0 -135 -92 -216t-266 -81q-90 0 -156 45 q-31 25 -49 47q-29 -41 -72 -59q-23 -10 -41 -12h-51v348h82q27 -84 65 -160q84 -158 181 -158q35 0 58 35t23 109q0 86 -45 142t-139 130q-68 53 -108.5 93t-68.5 97.5t-28 131.5q0 76 22.5 126t67.5 109q41 55 62.5 101.5t21.5 113.5q0 96 -44 150.5t-109 54.5 q-78 0 -121 -84t-43 -305v-1024h-451z" />
<glyph unicode="&#xe0;" horiz-adv-x="1239" d="M102 246q0 80 35 157q14 37 37 68q84 20 182 37q221 37 392 45v61q0 227 -55.5 313.5t-170.5 86.5q-43 0 -73 -10l-29 -11v-307l-27 -6q-33 -4 -55 -4q-70 0 -112 42t-42 111q0 94 95.5 160t283.5 66q160 0 275.5 -56.5t176 -156t60.5 -228.5v-553l123 -30v-31h-184 q-123 0 -191 76q-29 31 -45 78q-29 -51 -67 -93q-92 -92 -230 -92q-182 0 -280.5 78t-98.5 199zM321 1434h267l82 -308h-72zM440 266q0 -115 35 -170t88 -55q76 0 137 82q23 31 48 82v297q-94 0 -181 -10q-63 -8 -86 -11q-10 -23 -20 -61q-20 -78 -21 -154z" />
<glyph unicode="&#xe1;" horiz-adv-x="1239" d="M102 246q0 80 35 157q14 37 37 68q84 20 182 37q221 37 392 45v61q0 227 -55.5 313.5t-170.5 86.5q-43 0 -73 -10l-29 -11v-307l-27 -6q-33 -4 -55 -4q-70 0 -112 42t-42 111q0 94 95.5 160t283.5 66q160 0 275.5 -56.5t176 -156t60.5 -228.5v-553l123 -30v-31h-184 q-123 0 -191 76q-29 31 -45 78q-29 -51 -67 -93q-92 -92 -230 -92q-182 0 -280.5 78t-98.5 199zM440 266q0 -115 35 -170t88 -55q76 0 137 82q23 31 48 82v297q-94 0 -181 -10q-63 -8 -86 -11q-10 -23 -20 -61q-20 -78 -21 -154zM563 1126l82 308h266l-276 -308h-72z" />
<glyph unicode="&#xe2;" horiz-adv-x="1239" d="M102 246q0 80 35 157q14 37 37 68q84 20 182 37q221 37 392 45v61q0 227 -55.5 313.5t-170.5 86.5q-43 0 -73 -10l-29 -11v-307l-27 -6q-33 -4 -55 -4q-70 0 -112 42t-42 111q0 94 95.5 160t283.5 66q160 0 275.5 -56.5t176 -156t60.5 -228.5v-553l123 -30v-31h-184 q-123 0 -191 76q-29 31 -45 78q-29 -51 -67 -93q-92 -92 -230 -92q-182 0 -280.5 78t-98.5 199zM323 1126l297 338l297 -338h-72l-225 144l-225 -144h-72zM440 266q0 -115 35 -170t88 -55q76 0 137 82q23 31 48 82v297q-94 0 -181 -10q-63 -8 -86 -11q-10 -23 -20 -61 q-20 -78 -21 -154z" />
<glyph unicode="&#xe3;" horiz-adv-x="1239" d="M102 246q0 80 35 157q14 37 37 68q84 20 182 37q221 37 392 45v61q0 227 -55.5 313.5t-170.5 86.5q-43 0 -73 -10l-29 -11v-307l-27 -6q-33 -4 -55 -4q-70 0 -112 42t-42 111q0 94 95.5 160t283.5 66q160 0 275.5 -56.5t176 -156t60.5 -228.5v-553l123 -30v-31h-184 q-123 0 -191 76q-29 31 -45 78q-29 -51 -67 -93q-92 -92 -230 -92q-182 0 -280.5 78t-98.5 199zM338 1198q0 119 48 177.5t136 58.5q45 0 78 -15.5t72 -44.5q29 -20 50 -31.5t46 -11.5q39 0 65.5 26.5t26.5 65.5h41q0 -119 -48 -177t-136 -58q-45 0 -78 15.5t-72 43.5 q-29 23 -50 33t-46 10q-39 0 -65.5 -26.5t-26.5 -65.5h-41zM440 266q0 -115 35 -170t88 -55q76 0 137 82q23 31 48 82v297q-94 0 -181 -10q-63 -8 -86 -11q-10 -23 -20 -61q-20 -78 -21 -154z" />
<glyph unicode="&#xe4;" horiz-adv-x="1239" d="M102 246q0 80 35 157q14 37 37 68q84 20 182 37q221 37 392 45v61q0 227 -55.5 313.5t-170.5 86.5q-43 0 -73 -10l-29 -11v-307l-27 -6q-33 -4 -55 -4q-70 0 -112 42t-42 111q0 94 95.5 160t283.5 66q160 0 275.5 -56.5t176 -156t60.5 -228.5v-553l123 -30v-31h-184 q-123 0 -191 76q-29 31 -45 78q-29 -51 -67 -93q-92 -92 -230 -92q-182 0 -280.5 78t-98.5 199zM286 1290q0 61 41 102.5t103 41.5q61 0 102 -41t41 -103q0 -61 -41 -102t-102 -41q-62 0 -103 41t-41 102zM440 266q0 -115 35 -170t88 -55q76 0 137 82q23 31 48 82v297 q-94 0 -181 -10q-63 -8 -86 -11q-10 -23 -20 -61q-20 -78 -21 -154zM665 1290q0 61 41 102.5t103 41.5q61 0 102 -41t41 -103q0 -61 -41 -102t-102 -41q-62 0 -103 41t-41 102z" />
<glyph unicode="&#xe5;" horiz-adv-x="1239" d="M102 246q0 80 35 157q14 37 37 68q84 20 182 37q221 37 392 45v61q0 227 -55.5 313.5t-170.5 86.5q-43 0 -73 -10l-29 -11v-307l-27 -6q-33 -4 -55 -4q-70 0 -112 42t-42 111q0 94 95.5 160t283.5 66q160 0 275.5 -56.5t176 -156t60.5 -228.5v-553l123 -30v-31h-184 q-123 0 -191 76q-29 31 -45 78q-29 -51 -67 -93q-92 -92 -230 -92q-182 0 -280.5 78t-98.5 199zM405 1331q0 86 61.5 145.5t154.5 59.5q92 0 153.5 -59.5t61.5 -145.5t-61.5 -145.5t-153.5 -59.5q-93 0 -154.5 59.5t-61.5 145.5zM440 266q0 -115 35 -170t88 -55q76 0 137 82 q23 31 48 82v297q-94 0 -181 -10q-63 -8 -86 -11q-10 -23 -20 -61q-20 -78 -21 -154zM508 1331q0 -59 31.5 -96t81.5 -37q49 0 80.5 37t31.5 96t-31.5 96t-80.5 37t-81 -36.5t-32 -96.5z" />
<glyph unicode="&#xe6;" horiz-adv-x="1802" d="M102 246q0 74 35 147q14 29 37 58q84 20 182 36q221 37 392 45v82q0 227 -55.5 313.5t-170.5 86.5q-43 0 -73 -10l-29 -11v-307l-27 -6q-33 -4 -55 -4q-70 0 -112 42t-42 111q0 94 95.5 160t283.5 66q166 0 279 -92q49 -41 80 -93q27 49 75 93q109 92 263 92 q139 0 245.5 -55.5t166 -148.5t59.5 -206q0 -43 -11 -74l-10 -28q-88 -18 -190 -31q-215 -31 -435 -31v-45q4 -227 68 -321.5t178 -94.5q80 0 148.5 38t108.5 100.5t40 128.5h51q0 -82 -49 -156t-137 -118t-203 -44q-176 0 -289 97q-53 43 -79 98q-45 -57 -101 -98 q-133 -96 -299 -97q-211 0 -315.5 77t-104.5 200zM440 246q0 -115 35 -170.5t88 -55.5q87 1 146 97q23 39 39 98v266q-94 0 -181 -10q-63 -8 -86 -10q-10 -23 -20 -62q-20 -78 -21 -153zM1085 532q131 1 213 11q35 2 74 10q2 14 10 43q10 41 11 90q0 170 -45 249t-109 79 q-66 0 -107.5 -101.5t-46.5 -369.5v-11z" />
<glyph unicode="&#xe7;" horiz-adv-x="1085" d="M82 512q0 254 145.5 398.5t407.5 144.5q188 0 283.5 -65.5t95.5 -160.5q0 -70 -42 -111.5t-112 -41.5q-29 0 -57 4l-25 6v307l-28 11q-31 10 -74 10q-117 0 -181.5 -110.5t-64.5 -391.5q0 -272 64.5 -382t181.5 -110q80 0 148.5 38t108.5 100.5t40 128.5h51 q0 -82 -49 -156t-137 -118t-203 -44h-10v-71q88 0 141 -45.5t53 -108.5q0 -66 -55 -110t-160 -44q-35 0 -80 4l-35 7v61q12 -8 21 -10q25 -10 53 -10q47 0 75 27.5t28 74.5t-30 74.5t-83 27.5v127q-223 20 -347 163t-124 376z" />
<glyph unicode="&#xe8;" d="M82 512q0 166 63.5 289t177 188.5t261.5 65.5q147 0 258.5 -55.5t172 -148.5t60.5 -206q0 -51 -10 -88l-10 -35q-88 -18 -191 -30q-215 -31 -434 -31q0 -238 65.5 -339.5t180.5 -101.5q80 0 148.5 38t108.5 100.5t40 128.5h51q0 -82 -49 -156t-137 -118t-203 -44 q-262 0 -407.5 144.5t-145.5 398.5zM274 1434h267l82 -308h-72zM430 512q131 0 213 10q35 2 74 10q2 10 10 46q10 51 10 108q0 170 -45 249t-108 79q-154 0 -154 -502z" />
<glyph unicode="&#xe9;" d="M82 512q0 166 63.5 289t177 188.5t261.5 65.5q147 0 258.5 -55.5t172 -148.5t60.5 -206q0 -51 -10 -88l-10 -35q-88 -18 -191 -30q-215 -31 -434 -31q0 -238 65.5 -339.5t180.5 -101.5q80 0 148.5 38t108.5 100.5t40 128.5h51q0 -82 -49 -156t-137 -118t-203 -44 q-262 0 -407.5 144.5t-145.5 398.5zM430 512q131 0 213 10q35 2 74 10q2 10 10 46q10 51 10 108q0 170 -45 249t-108 79q-154 0 -154 -502zM516 1126l82 308h266l-276 -308h-72z" />
<glyph unicode="&#xea;" d="M82 512q0 166 63.5 289t177 188.5t261.5 65.5q147 0 258.5 -55.5t172 -148.5t60.5 -206q0 -51 -10 -88l-10 -35q-88 -18 -191 -30q-215 -31 -434 -31q0 -238 65.5 -339.5t180.5 -101.5q80 0 148.5 38t108.5 100.5t40 128.5h51q0 -82 -49 -156t-137 -118t-203 -44 q-262 0 -407.5 144.5t-145.5 398.5zM276 1126l297 338l297 -338h-72l-225 144l-225 -144h-72zM430 512q131 0 213 10q35 2 74 10q2 10 10 46q10 51 10 108q0 170 -45 249t-108 79q-154 0 -154 -502z" />
<glyph unicode="&#xeb;" d="M82 512q0 166 63.5 289t177 188.5t261.5 65.5q147 0 258.5 -55.5t172 -148.5t60.5 -206q0 -51 -10 -88l-10 -35q-88 -18 -191 -30q-215 -31 -434 -31q0 -238 65.5 -339.5t180.5 -101.5q80 0 148.5 38t108.5 100.5t40 128.5h51q0 -82 -49 -156t-137 -118t-203 -44 q-262 0 -407.5 144.5t-145.5 398.5zM239 1290q0 61 41 102.5t103 41.5q61 0 102 -41t41 -103q0 -61 -41 -102t-102 -41q-62 0 -103 41t-41 102zM430 512q131 0 213 10q35 2 74 10q2 10 10 46q10 51 10 108q0 170 -45 249t-108 79q-154 0 -154 -502zM618 1290q0 61 41 102.5 t103 41.5q61 0 102 -41t41 -103q0 -61 -41 -102t-102 -41q-62 0 -103 41t-41 102z" />
<glyph unicode="&#xec;" horiz-adv-x="696" d="M49 1434h267l82 -308h-72zM82 0v31l123 30v902l-123 30v31h266q184 0 184 -184v-779l123 -30v-31h-573z" />
<glyph unicode="&#xed;" horiz-adv-x="696" d="M82 0v31l123 30v902l-123 30v31h266q184 0 184 -184v-779l123 -30v-31h-573zM291 1126l82 308h266l-276 -308h-72z" />
<glyph unicode="&#xee;" horiz-adv-x="696" d="M51 1126l297 338l297 -338h-72l-225 144l-225 -144h-72zM82 0v31l123 30v902l-123 30v31h266q184 0 184 -184v-779l123 -30v-31h-573z" />
<glyph unicode="&#xef;" horiz-adv-x="696" d="M14 1290q0 61 41 102.5t103 41.5q61 0 102 -41t41 -103q0 -61 -41 -102t-102 -41q-62 0 -103 41t-41 102zM82 0v31l123 30v902l-123 30v31h266q184 0 184 -184v-779l123 -30v-31h-573zM393 1290q0 61 41 102.5t103 41.5q61 0 102 -41t41 -103q0 -61 -41 -102t-102 -41 q-62 0 -103 41t-41 102z" />
<glyph unicode="&#xf0;" horiz-adv-x="1239" d="M72 471q0 147 61.5 261t172 177.5t247.5 63.5q117 0 211 -78q31 -27 65 -76q-8 135 -52 235.5t-122 184.5l-84 -154l-43 27l90 164q-141 117 -337 117v41q211 0 389 -64l82 150l43 -27l-78 -143q213 -94 326.5 -294t113.5 -503q0 -283 -143.5 -433.5t-401.5 -150.5 q-166 0 -287.5 63.5t-187 177.5t-65.5 261zM420 471q0 -246 56 -353.5t136 -107.5q82 0 139.5 107.5t57.5 353.5v21q0 229 -60.5 334.5t-156.5 105.5q-39 0 -79 -44t-66.5 -147.5t-26.5 -269.5z" />
<glyph unicode="&#xf1;" horiz-adv-x="1361" d="M82 0v31l123 30v902l-123 30v31h184q121 0 191 -78q27 -31 45 -76q29 53 67 93q92 92 230 92q115 0 206 -48.5t142 -126t51 -163.5v-656l123 -30v-31h-266q-184 0 -185 184v533q0 129 -46 197.5t-107 68.5q-78 0 -139 -82q-27 -35 -46 -82v-758l123 -30v-31h-573z M440 1198q0 119 48 177.5t136 58.5q45 0 78 -15.5t72 -44.5q29 -20 50 -31.5t46 -11.5q39 0 65.5 26.5t26.5 65.5h41q0 -119 -48 -177t-136 -58q-45 0 -78 15.5t-72 43.5q-29 23 -50 33t-46 10q-39 0 -65.5 -26.5t-26.5 -65.5h-41z" />
<glyph unicode="&#xf2;" horiz-adv-x="1249" d="M82 512q0 254 144.5 398.5t398.5 144.5t398 -144.5t144 -398.5t-144 -398.5t-398 -144.5t-398.5 144.5t-144.5 398.5zM325 1434h267l82 -308h-72zM430 512q0 -272 56.5 -387t138.5 -115t138 115t56 387t-56 387t-138 115t-138.5 -115t-56.5 -387z" />
<glyph unicode="&#xf3;" horiz-adv-x="1249" d="M82 512q0 254 144.5 398.5t398.5 144.5t398 -144.5t144 -398.5t-144 -398.5t-398 -144.5t-398.5 144.5t-144.5 398.5zM430 512q0 -272 56.5 -387t138.5 -115t138 115t56 387t-56 387t-138 115t-138.5 -115t-56.5 -387zM567 1126l82 308h266l-276 -308h-72z" />
<glyph unicode="&#xf4;" horiz-adv-x="1249" d="M82 512q0 254 144.5 398.5t398.5 144.5t398 -144.5t144 -398.5t-144 -398.5t-398 -144.5t-398.5 144.5t-144.5 398.5zM328 1126l297 338l297 -338h-72l-225 144l-225 -144h-72zM430 512q0 -272 56.5 -387t138.5 -115t138 115t56 387t-56 387t-138 115t-138.5 -115 t-56.5 -387z" />
<glyph unicode="&#xf5;" horiz-adv-x="1249" d="M82 512q0 254 144.5 398.5t398.5 144.5t398 -144.5t144 -398.5t-144 -398.5t-398 -144.5t-398.5 144.5t-144.5 398.5zM342 1198q0 119 48 177.5t136 58.5q45 0 78 -15.5t72 -44.5q29 -20 50 -31.5t46 -11.5q39 0 65.5 26.5t26.5 65.5h41q0 -119 -48 -177t-136 -58 q-45 0 -78 15.5t-72 43.5q-29 23 -50 33t-46 10q-39 0 -65.5 -26.5t-26.5 -65.5h-41zM430 512q0 -272 56.5 -387t138.5 -115t138 115t56 387t-56 387t-138 115t-138.5 -115t-56.5 -387z" />
<glyph unicode="&#xf6;" horiz-adv-x="1249" d="M82 512q0 254 144.5 398.5t398.5 144.5t398 -144.5t144 -398.5t-144 -398.5t-398 -144.5t-398.5 144.5t-144.5 398.5zM290 1290q0 61 41 102.5t103 41.5q61 0 102 -41t41 -103q0 -61 -41 -102t-102 -41q-62 0 -103 41t-41 102zM430 512q0 -272 56.5 -387t138.5 -115 t138 115t56 387t-56 387t-138 115t-138.5 -115t-56.5 -387zM669 1290q0 61 41 102.5t103 41.5q61 0 102 -41t41 -103q0 -61 -41 -102t-102 -41q-62 0 -103 41t-41 102z" />
<glyph unicode="&#xf7;" horiz-adv-x="1024" d="M61 635v92h902v-92h-902zM358 307q0 61 46.5 107.5t107.5 46.5t107.5 -46t46.5 -108q0 -61 -46.5 -107t-107.5 -46t-107.5 46t-46.5 107zM358 1055q0 61 46.5 107t107.5 46t107.5 -46t46.5 -107t-46.5 -107.5t-107.5 -46.5t-107.5 46t-46.5 108z" />
<glyph unicode="&#xf8;" horiz-adv-x="1249" d="M82 512q0 254 144.5 398.5t398.5 144.5q197 0 333 -99l56 68h71l-84 -102q78 -72 122 -176.5t44 -233.5q0 -254 -144 -398.5t-398 -144.5q-201 1 -334 97l-55 -66h-72l84 100q-166 160 -166 412zM430 512q0 -109 8 -182l363 436q-23 131 -71 189.5t-105 58.5 q-82 0 -138.5 -115t-56.5 -387zM449 256q23 -133 69.5 -189.5t106.5 -56.5q82 0 138 115t56 387q0 113 -8 180z" />
<glyph unicode="&#xf9;" horiz-adv-x="1331" d="M51 993v31h266q184 0 185 -184v-533q0 -129 46 -197.5t107 -68.5q76 0 138 82q23 31 47 82v758l-123 30v31h573v-31l-123 -30v-973h-20q-150 0 -227 82q-35 37 -50 82q-29 -51 -67 -93q-92 -92 -230 -92q-114 0 -205.5 48.5t-142.5 126t-51 163.5v656zM366 1434h267 l82 -308h-72z" />
<glyph unicode="&#xfa;" horiz-adv-x="1331" d="M51 993v31h266q184 0 185 -184v-533q0 -129 46 -197.5t107 -68.5q76 0 138 82q23 31 47 82v758l-123 30v31h573v-31l-123 -30v-973h-20q-150 0 -227 82q-35 37 -50 82q-29 -51 -67 -93q-92 -92 -230 -92q-114 0 -205.5 48.5t-142.5 126t-51 163.5v656zM608 1126l82 308 h266l-276 -308h-72z" />
<glyph unicode="&#xfb;" horiz-adv-x="1331" d="M51 993v31h266q184 0 185 -184v-533q0 -129 46 -197.5t107 -68.5q76 0 138 82q23 31 47 82v758l-123 30v31h573v-31l-123 -30v-973h-20q-150 0 -227 82q-35 37 -50 82q-29 -51 -67 -93q-92 -92 -230 -92q-114 0 -205.5 48.5t-142.5 126t-51 163.5v656zM369 1126l297 338 l297 -338h-72l-225 144l-225 -144h-72z" />
<glyph unicode="&#xfc;" horiz-adv-x="1331" d="M51 993v31h266q184 0 185 -184v-533q0 -129 46 -197.5t107 -68.5q76 0 138 82q23 31 47 82v758l-123 30v31h573v-31l-123 -30v-973h-20q-150 0 -227 82q-35 37 -50 82q-29 -51 -67 -93q-92 -92 -230 -92q-114 0 -205.5 48.5t-142.5 126t-51 163.5v656zM331 1290 q0 61 41 102.5t103 41.5q61 0 102 -41t41 -103q0 -61 -41 -102t-102 -41q-62 0 -103 41t-41 102zM710 1290q0 61 41 102.5t103 41.5q61 0 102 -41t41 -103q0 -61 -41 -102t-102 -41q-62 0 -103 41t-41 102z" />
<glyph unicode="&#xfd;" d="M-41 993v31h256q106 0 168.5 -44t108.5 -130l256 -473l215 555l-154 61v31h379v-31l-164 -61l-410 -1055q-66 -168 -139.5 -242.5t-167.5 -74.5q-92 0 -143 49t-51 135q0 78 42 121t111 43q16 0 32.5 -3t23.5 -3l26 -4v-277q59 10 104.5 65.5t100.5 190.5l41 103 l-533 983zM516 1126l82 308h266l-276 -308h-72z" />
<glyph unicode="&#xfe;" horiz-adv-x="1280" d="M61 -379l123 31v1720l-123 31v31h267q184 0 184 -185v-327q29 39 68 65q96 68 198 68q121 0 215 -62.5t149.5 -184.5t55.5 -296q0 -262 -122 -402.5t-328 -140.5q-98 0 -173 41q-31 14 -63 41v-399l123 -31v-31h-574v31zM512 113q29 -29 45 -41q55 -41 109 -41 q88 0 136 102.5t48 378.5q0 264 -44 367.5t-110 103.5q-70 0 -135 -82q-29 -39 -49 -82v-706z" />
<glyph unicode="&#xff;" d="M-41 993v31h256q106 0 168.5 -44t108.5 -130l256 -473l215 555l-154 61v31h379v-31l-164 -61l-410 -1055q-66 -168 -139.5 -242.5t-167.5 -74.5q-92 0 -143 49t-51 135q0 78 42 121t111 43q16 0 32.5 -3t23.5 -3l26 -4v-277q59 10 104.5 65.5t100.5 190.5l41 103 l-533 983zM239 1290q0 61 41 102.5t103 41.5q61 0 102 -41t41 -103q0 -61 -41 -102t-102 -41q-62 0 -103 41t-41 102zM618 1290q0 61 41 102.5t103 41.5q61 0 102 -41t41 -103q0 -61 -41 -102t-102 -41q-62 0 -103 41t-41 102z" />
<glyph unicode="&#x100;" horiz-adv-x="1392" d="M-41 0v31l164 61l563 1362h62l583 -1393l103 -30v-31h-246q-106 0 -174 48t-101 126l-104 246h-490l-135 -328l154 -61v-31h-379zM340 471h448l-225 539zM451 1751v93h532v-93h-532z" />
<glyph unicode="&#x101;" horiz-adv-x="1239" d="M102 246q0 80 35 157q14 37 37 68q84 20 182 37q221 37 392 45v61q0 227 -55.5 313.5t-170.5 86.5q-43 0 -73 -10l-29 -11v-307l-27 -6q-33 -4 -55 -4q-70 0 -112 42t-42 111q0 94 95.5 160t283.5 66q160 0 275.5 -56.5t176 -156t60.5 -228.5v-553l123 -30v-31h-184 q-123 0 -191 76q-29 31 -45 78q-29 -51 -67 -93q-92 -92 -230 -92q-182 0 -280.5 78t-98.5 199zM355 1341v93h532v-93h-532zM440 266q0 -115 35 -170t88 -55q76 0 137 82q23 31 48 82v297q-94 0 -181 -10q-63 -8 -86 -11q-10 -23 -20 -61q-20 -78 -21 -154z" />
<glyph unicode="&#x102;" horiz-adv-x="1392" d="M-41 0v31l164 61l563 1362h62l583 -1393l103 -30v-31h-246q-106 0 -174 48t-101 126l-104 246h-490l-135 -328l154 -61v-31h-379zM340 471h448l-225 539zM410 1710q0 53 35 88t88 35q4 0 47 -6l24 -4v-225q2 0 30 -10.5t83 -10.5t83 10.5t30 10.5v225l24 4q43 6 47 6 q53 0 88 -34.5t35 -88.5q0 -76 -74.5 -125t-232.5 -49t-232.5 49.5t-74.5 124.5z" />
<glyph unicode="&#x103;" horiz-adv-x="1239" d="M102 246q0 80 35 157q14 37 37 68q84 20 182 37q221 37 392 45v61q0 227 -55.5 313.5t-170.5 86.5q-43 0 -73 -10l-29 -11v-307l-27 -6q-33 -4 -55 -4q-70 0 -112 42t-42 111q0 94 95.5 160t283.5 66q160 0 275.5 -56.5t176 -156t60.5 -228.5v-553l123 -30v-31h-184 q-123 0 -191 76q-29 31 -45 78q-29 -51 -67 -93q-92 -92 -230 -92q-182 0 -280.5 78t-98.5 199zM313 1300q0 53 35 88t88 35q4 0 47 -6l24 -4v-225q2 0 30 -10.5t83 -10.5t83 10.5t30 10.5v225l24 4q43 6 47 6q53 0 88 -34.5t35 -88.5q0 -76 -74.5 -125t-232.5 -49 t-232.5 49.5t-74.5 124.5zM440 266q0 -115 35 -170t88 -55q76 0 137 82q23 31 48 82v297q-94 0 -181 -10q-63 -8 -86 -11q-10 -23 -20 -61q-20 -78 -21 -154z" />
<glyph unicode="&#x104;" horiz-adv-x="1392" d="M-41 0v31l164 61l563 1362h62l583 -1393l103 -30v-31q-57 -29 -99 -63q-96 -84 -96 -193q0 -82 82 -82q33 0 65 21q14 8 27 20v-61q-4 -2 -37 -17q-37 -14 -96 -14q-104 0 -159.5 44t-55.5 109q0 76 56.5 126.5t96 66.5t121.5 43h-151q-106 0 -174 48t-101 126l-104 246 h-490l-135 -328l154 -61v-31h-379zM340 471h448l-225 539z" />
<glyph unicode="&#x105;" horiz-adv-x="1239" d="M102 246q0 80 35 157q14 37 37 68q84 20 182 37q221 37 392 45v61q0 227 -55.5 313.5t-170.5 86.5q-43 0 -73 -10l-29 -11v-307l-27 -6q-33 -4 -55 -4q-70 0 -112 42t-42 111q0 94 95.5 160t283.5 66q160 0 275.5 -56.5t176 -156t60.5 -228.5v-553l123 -30v-31 q-57 -29 -98 -63q-96 -84 -96 -193q0 -82 81 -82q33 0 66 21q16 10 27 20v-61q-4 -2 -37 -17q-37 -14 -97 -14q-104 0 -159.5 44t-55.5 109q0 76 56.5 126.5t96.5 66.5t122 43h-90q-117 0 -170 54.5t-66 97.5q0 -10 -35.5 -56.5t-102.5 -86.5t-159 -40q-182 0 -280.5 78 t-98.5 199zM440 266q0 -115 35 -170t88 -55q76 0 137 82q23 31 48 82v297q-94 0 -181 -10q-63 -8 -86 -11q-10 -23 -20 -61q-20 -78 -21 -154z" />
<glyph unicode="&#x106;" horiz-adv-x="1331" d="M92 717q0 236 81 404.5t227.5 255.5t338.5 87q117 0 236 -67q45 -25 90 -66q35 53 72 84q37 27 41 29h51v-389h-82q-27 98 -80 178q-49 78 -122 129t-167 51q-141 0 -234 -164t-93 -532q0 -375 101 -536t277 -161q96 0 183.5 54.5t141.5 144.5t54 191h52 q0 -117 -62.5 -218.5t-170 -162t-239.5 -60.5q-327 0 -511.5 194.5t-184.5 553.5zM690 1536l82 308h266l-276 -308h-72z" />
<glyph unicode="&#x107;" horiz-adv-x="1085" d="M82 512q0 254 145.5 398.5t407.5 144.5q188 0 283.5 -65.5t95.5 -160.5q0 -70 -42 -111.5t-112 -41.5q-29 0 -57 4l-25 6v307l-28 11q-31 10 -74 10q-117 0 -181.5 -110.5t-64.5 -391.5q0 -272 64.5 -382t181.5 -110q80 0 148.5 38t108.5 100.5t40 128.5h51 q0 -82 -49 -156t-137 -118t-203 -44q-262 0 -407.5 144.5t-145.5 398.5zM588 1126l82 308h266l-276 -308h-72z" />
<glyph unicode="&#x108;" horiz-adv-x="1331" d="M92 717q0 236 81 404.5t227.5 255.5t338.5 87q117 0 236 -67q45 -25 90 -66q35 53 72 84q37 27 41 29h51v-389h-82q-27 98 -80 178q-49 78 -122 129t-167 51q-141 0 -234 -164t-93 -532q0 -375 101 -536t277 -161q96 0 183.5 54.5t141.5 144.5t54 191h52 q0 -117 -62.5 -218.5t-170 -162t-239.5 -60.5q-327 0 -511.5 194.5t-184.5 553.5zM450 1536l297 338l297 -338h-72l-225 144l-225 -144h-72z" />
<glyph unicode="&#x109;" horiz-adv-x="1085" d="M82 512q0 254 145.5 398.5t407.5 144.5q188 0 283.5 -65.5t95.5 -160.5q0 -70 -42 -111.5t-112 -41.5q-29 0 -57 4l-25 6v307l-28 11q-31 10 -74 10q-117 0 -181.5 -110.5t-64.5 -391.5q0 -272 64.5 -382t181.5 -110q80 0 148.5 38t108.5 100.5t40 128.5h51 q0 -82 -49 -156t-137 -118t-203 -44q-262 0 -407.5 144.5t-145.5 398.5zM348 1126l297 338l297 -338h-72l-225 144l-225 -144h-72z" />
<glyph unicode="&#x10a;" horiz-adv-x="1331" d="M92 717q0 236 81 404.5t227.5 255.5t338.5 87q117 0 236 -67q45 -25 90 -66q35 53 72 84q37 27 41 29h51v-389h-82q-27 98 -80 178q-49 78 -122 129t-167 51q-141 0 -234 -164t-93 -532q0 -375 101 -536t277 -161q96 0 183.5 54.5t141.5 144.5t54 191h52 q0 -117 -62.5 -218.5t-170 -162t-239.5 -60.5q-327 0 -511.5 194.5t-184.5 553.5zM604 1700q0 61 41 102.5t103 41.5q61 0 102 -41t41 -103q0 -61 -41 -102t-102 -41q-62 0 -103 41t-41 102z" />
<glyph unicode="&#x10b;" horiz-adv-x="1085" d="M82 512q0 254 145.5 398.5t407.5 144.5q188 0 283.5 -65.5t95.5 -160.5q0 -70 -42 -111.5t-112 -41.5q-29 0 -57 4l-25 6v307l-28 11q-31 10 -74 10q-117 0 -181.5 -110.5t-64.5 -391.5q0 -272 64.5 -382t181.5 -110q80 0 148.5 38t108.5 100.5t40 128.5h51 q0 -82 -49 -156t-137 -118t-203 -44q-262 0 -407.5 144.5t-145.5 398.5zM501 1290q0 61 41 102.5t103 41.5q61 0 102 -41t41 -103q0 -61 -41 -102t-102 -41q-62 0 -103 41t-41 102z" />
<glyph unicode="&#x10c;" horiz-adv-x="1331" d="M92 717q0 236 81 404.5t227.5 255.5t338.5 87q117 0 236 -67q45 -25 90 -66q35 53 72 84q37 27 41 29h51v-389h-82q-27 98 -80 178q-49 78 -122 129t-167 51q-141 0 -234 -164t-93 -532q0 -375 101 -536t277 -161q96 0 183.5 54.5t141.5 144.5t54 191h52 q0 -117 -62.5 -218.5t-170 -162t-239.5 -60.5q-327 0 -511.5 194.5t-184.5 553.5zM450 1874h72l225 -143l225 143h72l-297 -338z" />
<glyph unicode="&#x10d;" horiz-adv-x="1085" d="M82 512q0 254 145.5 398.5t407.5 144.5q188 0 283.5 -65.5t95.5 -160.5q0 -70 -42 -111.5t-112 -41.5q-29 0 -57 4l-25 6v307l-28 11q-31 10 -74 10q-117 0 -181.5 -110.5t-64.5 -391.5q0 -272 64.5 -382t181.5 -110q80 0 148.5 38t108.5 100.5t40 128.5h51 q0 -82 -49 -156t-137 -118t-203 -44q-262 0 -407.5 144.5t-145.5 398.5zM348 1464h72l225 -143l225 143h72l-297 -338z" />
<glyph unicode="&#x10e;" horiz-adv-x="1464" d="M102 0v31l123 30v1311l-123 31v31h523q367 0 562 -188.5t195 -528.5t-195.5 -528.5t-561.5 -188.5h-523zM436 1874h72l225 -143l225 143h72l-297 -338zM563 51h62q190 0 294.5 154.5t104.5 511.5q0 356 -104.5 510.5t-294.5 154.5h-62v-1331z" />
<glyph unicode="&#x10f;" horiz-adv-x="1427" d="M82 512q0 262 122 402.5t328 140.5q98 0 173 -41q31 -14 63 -41v399l-123 31v31h266q184 0 185 -185v-1188l123 -30v-31h-185q-123 0 -190 76q-29 31 -45 78q-27 -51 -68 -93q-92 -92 -229 -92q-121 0 -215 62.5t-149.5 184.5t-55.5 296zM430 512q0 -264 44 -367.5 t110 -103.5q76 0 137 82q23 31 47 82v706q-23 23 -47 41q-55 41 -107 41q-88 0 -136 -102.5t-48 -378.5zM1151 1403q0 61 46.5 107t107.5 46q72 0 118 -50t46 -134q0 -188 -123 -295q-53 -49 -123 -73l-20 51q43 14 86 47q88 66 108 178l-26 -16q-27 -14 -66 -15 q-61 0 -107.5 46t-46.5 108z" />
<glyph unicode="&#x110;" horiz-adv-x="1474" d="M102 696v62h134v614l-123 31v31h522q367 0 562.5 -188.5t195.5 -528.5t-196 -528.5t-562 -188.5h-522v31l123 30v635h-134zM573 51h62q190 0 294.5 154.5t104.5 511.5q0 356 -104.5 510.5t-294.5 154.5h-62v-624h246v-62h-246v-645z" />
<glyph unicode="&#x111;" horiz-adv-x="1280" d="M82 492q0 248 123 385t327 137q98 0 173 -41q31 -14 63 -41v215h-256v61h256v164l-123 31v31h266q184 0 185 -185v-41h133v-61h-133v-1086l123 -30v-31h-185q-123 0 -190 76q-29 31 -45 78q-27 -51 -68 -93q-92 -92 -229 -92q-119 0 -214 61.5t-150.5 179.5t-55.5 282z M430 492q0 -250 44 -350.5t110 -100.5q76 0 137 82q23 31 47 82v665q-2 0 -43 40t-111 42q-88 0 -136 -98t-48 -362z" />
<glyph unicode="&#x112;" horiz-adv-x="1320" d="M102 0v31l123 30v1311l-123 31v31h1096v-369h-61q-39 31 -68 78q-66 111 -65 239h-441v-645h236q14 78 53 146q16 31 39 59h61v-461h-61q-23 29 -39 60q-39 68 -53 145h-236v-635h481q0 129 66 240q29 47 68 78h61v-369h-1137zM478 1751v93h532v-93h-532z" />
<glyph unicode="&#x113;" d="M82 512q0 166 63.5 289t177 188.5t261.5 65.5q147 0 258.5 -55.5t172 -148.5t60.5 -206q0 -51 -10 -88l-10 -35q-88 -18 -191 -30q-215 -31 -434 -31q0 -238 65.5 -339.5t180.5 -101.5q80 0 148.5 38t108.5 100.5t40 128.5h51q0 -82 -49 -156t-137 -118t-203 -44 q-262 0 -407.5 144.5t-145.5 398.5zM308 1341v93h532v-93h-532zM430 512q131 0 213 10q35 2 74 10q2 10 10 46q10 51 10 108q0 170 -45 249t-108 79q-154 0 -154 -502z" />
<glyph unicode="&#x114;" horiz-adv-x="1320" d="M102 0v31l123 30v1311l-123 31v31h1096v-369h-61q-39 31 -68 78q-66 111 -65 239h-441v-645h236q14 78 53 146q16 31 39 59h61v-461h-61q-23 29 -39 60q-39 68 -53 145h-236v-635h481q0 129 66 240q29 47 68 78h61v-369h-1137zM436 1710q0 53 35 88t88 35q4 0 47 -6 l24 -4v-225q2 0 30 -10.5t83 -10.5t83 10.5t30 10.5v225l24 4q43 6 47 6q53 0 88 -34.5t35 -88.5q0 -76 -74.5 -125t-232.5 -49t-232.5 49.5t-74.5 124.5z" />
<glyph unicode="&#x115;" d="M82 512q0 166 63.5 289t177 188.5t261.5 65.5q147 0 258.5 -55.5t172 -148.5t60.5 -206q0 -51 -10 -88l-10 -35q-88 -18 -191 -30q-215 -31 -434 -31q0 -238 65.5 -339.5t180.5 -101.5q80 0 148.5 38t108.5 100.5t40 128.5h51q0 -82 -49 -156t-137 -118t-203 -44 q-262 0 -407.5 144.5t-145.5 398.5zM266 1300q0 53 35 88t88 35q4 0 47 -6l24 -4v-225q2 0 30 -10.5t83 -10.5t83 10.5t30 10.5v225l24 4q43 6 47 6q53 0 88 -34.5t35 -88.5q0 -76 -74.5 -125t-232.5 -49t-232.5 49.5t-74.5 124.5zM430 512q131 0 213 10q35 2 74 10 q2 10 10 46q10 51 10 108q0 170 -45 249t-108 79q-154 0 -154 -502z" />
<glyph unicode="&#x116;" horiz-adv-x="1320" d="M102 0v31l123 30v1311l-123 31v31h1096v-369h-61q-39 31 -68 78q-66 111 -65 239h-441v-645h236q14 78 53 146q16 31 39 59h61v-461h-61q-23 29 -39 60q-39 68 -53 145h-236v-635h481q0 129 66 240q29 47 68 78h61v-369h-1137zM600 1700q0 61 41 102.5t103 41.5 q61 0 102 -41t41 -103q0 -61 -41 -102t-102 -41q-62 0 -103 41t-41 102z" />
<glyph unicode="&#x117;" d="M82 512q0 166 63.5 289t177 188.5t261.5 65.5q147 0 258.5 -55.5t172 -148.5t60.5 -206q0 -51 -10 -88l-10 -35q-88 -18 -191 -30q-215 -31 -434 -31q0 -238 65.5 -339.5t180.5 -101.5q80 0 148.5 38t108.5 100.5t40 128.5h51q0 -82 -49 -156t-137 -118t-203 -44 q-262 0 -407.5 144.5t-145.5 398.5zM430 512q131 0 213 10q35 2 74 10q2 10 10 46q10 51 10 108q0 170 -45 249t-108 79q-154 0 -154 -502zM430 1290q0 61 41 102.5t103 41.5q61 0 102 -41t41 -103q0 -61 -41 -102t-102 -41q-62 0 -103 41t-41 102z" />
<glyph unicode="&#x118;" horiz-adv-x="1320" d="M102 0v31l123 30v1311l-123 31v31h1096v-369h-61q-39 31 -68 78q-66 111 -65 239h-441v-645h236q14 78 53 146q16 31 39 59h61v-461h-61q-23 29 -39 60q-39 68 -53 145h-236v-635h481q0 129 66 240q29 47 68 78h61v-369h-328q-57 -29 -98 -63q-96 -84 -96 -193 q0 -82 82 -82q33 0 65 21q16 10 27 20v-61q-4 -2 -37 -17q-37 -14 -96 -14q-105 0 -160 44t-55 109q0 76 56 126.5t96 66.5t122 43h-715z" />
<glyph unicode="&#x119;" d="M82 512q0 166 63.5 289t177 188.5t261.5 65.5q147 0 258.5 -55.5t172 -148.5t60.5 -206q0 -51 -10 -88l-10 -35q-88 -18 -191 -30q-215 -31 -434 -31q0 -238 65.5 -339.5t180.5 -101.5q80 0 148.5 38t108.5 100.5t40 128.5h51q0 -86 -51 -160t-142 -117q-45 -25 -79 -53 q-96 -84 -97 -193q0 -82 82 -81q33 0 66 20q16 10 26 21v-62q-4 -2 -36 -16q-37 -14 -97 -15q-104 0 -159.5 44t-55.5 110q0 109 137 182l5 2q-256 2 -398.5 146.5t-142.5 396.5zM430 512q131 0 213 10q35 2 74 10q2 10 10 46q10 51 10 108q0 170 -45 249t-108 79 q-154 0 -154 -502z" />
<glyph unicode="&#x11a;" horiz-adv-x="1320" d="M102 0v31l123 30v1311l-123 31v31h1096v-369h-61q-39 31 -68 78q-66 111 -65 239h-441v-645h236q14 78 53 146q16 31 39 59h61v-461h-61q-23 29 -39 60q-39 68 -53 145h-236v-635h481q0 129 66 240q29 47 68 78h61v-369h-1137zM446 1874h72l225 -143l225 143h72 l-297 -338z" />
<glyph unicode="&#x11b;" d="M82 512q0 166 63.5 289t177 188.5t261.5 65.5q147 0 258.5 -55.5t172 -148.5t60.5 -206q0 -51 -10 -88l-10 -35q-88 -18 -191 -30q-215 -31 -434 -31q0 -238 65.5 -339.5t180.5 -101.5q80 0 148.5 38t108.5 100.5t40 128.5h51q0 -82 -49 -156t-137 -118t-203 -44 q-262 0 -407.5 144.5t-145.5 398.5zM276 1464h72l225 -143l225 143h72l-297 -338zM430 512q131 0 213 10q35 2 74 10q2 10 10 46q10 51 10 108q0 170 -45 249t-108 79q-154 0 -154 -502z" />
<glyph unicode="&#x11c;" horiz-adv-x="1433" d="M92 717q0 236 81 404.5t227.5 255.5t338.5 87q117 0 236 -67q45 -25 90 -66q35 53 72 84q37 27 41 29h51v-389h-82q-27 98 -80 178q-49 78 -122 129t-167 51q-141 0 -234 -164t-93 -532q0 -369 82.5 -522.5t214.5 -153.5q76 0 137 82q23 31 47 82v471l-123 31v30h584v-30 l-123 -31v-686h-31q-150 0 -227 82q-35 37 -49 82q-29 -51 -68 -93q-92 -92 -229 -92q-156 0 -287 88t-209 257t-78 403zM461 1536l297 338l297 -338h-72l-225 144l-225 -144h-72z" />
<glyph unicode="&#x11d;" horiz-adv-x="1239" d="M51 -215q0 70 42 112t112 42q16 0 59 -7l23 -4v-286q25 -8 78 -21q94 -20 178 -20q250 0 365.5 70.5t115.5 174.5q0 133 -246 134h-389q-154 0 -235.5 63t-81.5 162q0 98 96 174q39 29 98 51q-76 47 -109.5 111.5t-33.5 154.5q0 152 114.5 245t335.5 93q96 0 177 -19.5 t131 -51.5q16 35 43 61q61 61 151 61q70 0 117 -48t47 -126q0 -59 -31.5 -96t-81.5 -37q-23 0 -51 4l-20 6v246q-53 0 -101 -51q-18 -18 -32 -51q102 -90 102 -236q0 -152 -114.5 -245t-336.5 -93q-147 0 -266 52l-41 -21q-20 -12 -30.5 -23.5t-10.5 -27.5q0 -35 36 -53.5 t128 -18.5h389q154 0 241 -89t87 -249q0 -164 -136 -266t-407 -102q-182 0 -296.5 32.5t-165 84t-50.5 108.5zM323 1126l297 338l297 -338h-72l-225 144l-225 -144h-72zM430 696q0 -166 38 -231.5t105 -65.5q68 0 106 65.5t38 231.5t-38 231.5t-106 65.5t-105.5 -65.5 t-37.5 -231.5z" />
<glyph unicode="&#x11e;" horiz-adv-x="1433" d="M92 717q0 236 81 404.5t227.5 255.5t338.5 87q117 0 236 -67q45 -25 90 -66q35 53 72 84q37 27 41 29h51v-389h-82q-27 98 -80 178q-49 78 -122 129t-167 51q-141 0 -234 -164t-93 -532q0 -369 82.5 -522.5t214.5 -153.5q76 0 137 82q23 31 47 82v471l-123 31v30h584v-30 l-123 -31v-686h-31q-150 0 -227 82q-35 37 -49 82q-29 -51 -68 -93q-92 -92 -229 -92q-156 0 -287 88t-209 257t-78 403zM451 1710q0 53 35 88t88 35q4 0 47 -6l24 -4v-225q2 0 30 -10.5t83 -10.5t83 10.5t30 10.5v225l24 4q43 6 47 6q53 0 88 -34.5t35 -88.5 q0 -76 -74.5 -125t-232.5 -49t-232.5 49.5t-74.5 124.5z" />
<glyph unicode="&#x11f;" horiz-adv-x="1239" d="M51 -215q0 70 42 112t112 42q16 0 59 -7l23 -4v-286q25 -8 78 -21q94 -20 178 -20q250 0 365.5 70.5t115.5 174.5q0 133 -246 134h-389q-154 0 -235.5 63t-81.5 162q0 98 96 174q39 29 98 51q-76 47 -109.5 111.5t-33.5 154.5q0 152 114.5 245t335.5 93q96 0 177 -19.5 t131 -51.5q16 35 43 61q61 61 151 61q70 0 117 -48t47 -126q0 -59 -31.5 -96t-81.5 -37q-23 0 -51 4l-20 6v246q-53 0 -101 -51q-18 -18 -32 -51q102 -90 102 -236q0 -152 -114.5 -245t-336.5 -93q-147 0 -266 52l-41 -21q-20 -12 -30.5 -23.5t-10.5 -27.5q0 -35 36 -53.5 t128 -18.5h389q154 0 241 -89t87 -249q0 -164 -136 -266t-407 -102q-182 0 -296.5 32.5t-165 84t-50.5 108.5zM313 1300q0 53 35 88t88 35q4 0 47 -6l24 -4v-225q2 0 30 -10.5t83 -10.5t83 10.5t30 10.5v225l24 4q43 6 47 6q53 0 88 -34.5t35 -88.5q0 -76 -74.5 -125 t-232.5 -49t-232.5 49.5t-74.5 124.5zM430 696q0 -166 38 -231.5t105 -65.5q68 0 106 65.5t38 231.5t-38 231.5t-106 65.5t-105.5 -65.5t-37.5 -231.5z" />
<glyph unicode="&#x120;" horiz-adv-x="1433" d="M92 717q0 236 81 404.5t227.5 255.5t338.5 87q117 0 236 -67q45 -25 90 -66q35 53 72 84q37 27 41 29h51v-389h-82q-27 98 -80 178q-49 78 -122 129t-167 51q-141 0 -234 -164t-93 -532q0 -369 82.5 -522.5t214.5 -153.5q76 0 137 82q23 31 47 82v471l-123 31v30h584v-30 l-123 -31v-686h-31q-150 0 -227 82q-35 37 -49 82q-29 -51 -68 -93q-92 -92 -229 -92q-156 0 -287 88t-209 257t-78 403zM614 1700q0 61 41 102.5t103 41.5q61 0 102 -41t41 -103q0 -61 -41 -102t-102 -41q-62 0 -103 41t-41 102z" />
<glyph unicode="&#x121;" horiz-adv-x="1239" d="M51 -215q0 70 42 112t112 42q16 0 59 -7l23 -4v-286q25 -8 78 -21q94 -20 178 -20q250 0 365.5 70.5t115.5 174.5q0 133 -246 134h-389q-154 0 -235.5 63t-81.5 162q0 98 96 174q39 29 98 51q-76 47 -109.5 111.5t-33.5 154.5q0 152 114.5 245t335.5 93q96 0 177 -19.5 t131 -51.5q16 35 43 61q61 61 151 61q70 0 117 -48t47 -126q0 -59 -31.5 -96t-81.5 -37q-23 0 -51 4l-20 6v246q-53 0 -101 -51q-18 -18 -32 -51q102 -90 102 -236q0 -152 -114.5 -245t-336.5 -93q-147 0 -266 52l-41 -21q-20 -12 -30.5 -23.5t-10.5 -27.5q0 -35 36 -53.5 t128 -18.5h389q154 0 241 -89t87 -249q0 -164 -136 -266t-407 -102q-182 0 -296.5 32.5t-165 84t-50.5 108.5zM430 696q0 -166 38 -231.5t105 -65.5q68 0 106 65.5t38 231.5t-38 231.5t-106 65.5t-105.5 -65.5t-37.5 -231.5zM477 1290q0 61 41 102.5t103 41.5q61 0 102 -41 t41 -103q0 -61 -41 -102t-102 -41q-62 0 -103 41t-41 102z" />
<glyph unicode="&#x122;" horiz-adv-x="1433" d="M92 717q0 236 81 404.5t227.5 255.5t338.5 87q117 0 236 -67q45 -25 90 -66q35 53 72 84q37 27 41 29h51v-389h-82q-27 98 -80 178q-49 78 -122 129t-167 51q-141 0 -234 -164t-93 -532q0 -369 82.5 -522.5t214.5 -153.5q76 0 137 82q23 31 47 82v471l-123 31v30h584v-30 l-123 -31v-686h-31q-150 0 -227 82q-35 37 -49 82q-29 -51 -68 -93q-92 -92 -229 -92q-156 0 -287 88t-209 257t-78 403zM506 -266q0 61 41 102t102 41q72 0 113 -45t41 -129q0 -92 -31.5 -158.5t-81.5 -109.5q-51 -45 -112 -70l-21 41q39 14 76 45q78 66 98 170 q-6 -6 -12 -9t-10 -7q-18 -14 -60 -15q-61 0 -102 41t-41 103z" />
<glyph unicode="&#x123;" horiz-adv-x="1239" d="M51 -215q0 70 42 112t112 42q16 0 59 -7l23 -4v-286q25 -8 78 -21q94 -20 178 -20q250 0 365.5 70.5t115.5 174.5q0 133 -246 134h-389q-154 0 -235.5 63t-81.5 162q0 98 96 174q39 29 98 51q-76 47 -109.5 111.5t-33.5 154.5q0 152 114.5 245t335.5 93q96 0 177 -19.5 t131 -51.5q16 35 43 61q61 61 151 61q70 0 117 -48t47 -126q0 -59 -31.5 -96t-81.5 -37q-23 0 -51 4l-20 6v246q-53 0 -101 -51q-18 -18 -32 -51q102 -90 102 -236q0 -152 -114.5 -245t-336.5 -93q-147 0 -266 52l-41 -21q-20 -12 -30.5 -23.5t-10.5 -27.5q0 -35 36 -53.5 t128 -18.5h389q154 0 241 -89t87 -249q0 -164 -136 -266t-407 -102q-182 0 -296.5 32.5t-165 84t-50.5 108.5zM430 696q0 -166 38 -231.5t105 -65.5q68 0 106 65.5t38 231.5t-38 231.5t-106 65.5t-105.5 -65.5t-37.5 -231.5zM473 1321q0 92 32 158.5t81 109.5q51 45 112 70 l21 -41q-39 -14 -76 -45q-78 -66 -98 -170q6 6 12 9t10 7q18 14 60 15q61 0 102 -41t41 -103q0 -61 -41 -102t-102 -41q-72 0 -113 45t-41 129z" />
<glyph unicode="&#x124;" horiz-adv-x="1566" d="M102 0v31l123 30v1311l-123 31v31h584v-31l-123 -31v-635h441v635l-123 31v31h583v-31l-123 -31v-1311l123 -30v-31h-583v31l123 30v625h-441v-625l123 -30v-31h-584zM487 1536l297 338l297 -338h-72l-225 144l-225 -144h-72z" />
<glyph unicode="&#x125;" horiz-adv-x="1361" d="M82 0v31l123 30v1311l-123 31v31h266q162 0 182 -144l152 174l297 -338h-72l-225 144l-150 -94v-254q31 41 64 65q88 68 203 68t206 -48.5t142 -126t51 -163.5v-656l123 -30v-31h-266q-184 0 -185 184v533q0 129 -46 197.5t-107 68.5q-78 0 -139 -82q-27 -35 -46 -82 v-758l123 -30v-31h-573z" />
<glyph unicode="&#x127;" horiz-adv-x="1372" d="M82 1116v51h133v205l-123 31v31h266q184 0 185 -185v-82h256v-51h-256v-256q31 41 63 66q88 68 203 67q115 0 206 -48t142 -126t51 -164v-594l123 -30v-31h-266q-184 0 -184 184v471q0 129 -46.5 198t-107.5 69q-78 0 -139 -82q-27 -35 -45 -82v-697l123 -30v-31h-574v31 l123 30v1055h-133z" />
<glyph unicode="&#x128;" horiz-adv-x="788" d="M102 0v31l123 30v1311l-123 31v31h584v-31l-123 -31v-1311l123 -30v-31h-584zM113 1608q0 119 48 177.5t136 58.5q45 0 78 -15.5t72 -44.5q29 -20 50 -31.5t46 -11.5q39 0 65.5 26.5t26.5 65.5h41q0 -119 -48 -177t-136 -58q-45 0 -78 15.5t-72 43.5q-29 23 -50 33 t-46 10q-39 0 -65.5 -26.5t-26.5 -65.5h-41z" />
<glyph unicode="&#x129;" horiz-adv-x="696" d="M66 1198q0 119 48 177.5t136 58.5q45 0 78 -15.5t72 -44.5q29 -20 50 -31.5t46 -11.5q39 0 65.5 26.5t26.5 65.5h41q0 -119 -48 -177t-136 -58q-45 0 -78 15.5t-72 43.5q-29 23 -50 33t-46 10q-39 0 -65.5 -26.5t-26.5 -65.5h-41zM82 0v31l123 30v902l-123 30v31h266 q184 0 184 -184v-779l123 -30v-31h-573z" />
<glyph unicode="&#x12a;" horiz-adv-x="788" d="M102 0v31l123 30v1311l-123 31v31h584v-31l-123 -31v-1311l123 -30v-31h-584zM129 1751v93h532v-93h-532z" />
<glyph unicode="&#x12b;" horiz-adv-x="696" d="M82 0v31l123 30v902l-123 30v31h266q184 0 184 -184v-779l123 -30v-31h-573zM82 1341v93h532v-93h-532z" />
<glyph unicode="&#x12c;" horiz-adv-x="788" d="M88 1710q0 53 35 88t88 35q4 0 47 -6l24 -4v-225q2 0 30 -10.5t83 -10.5t83 10.5t30 10.5v225l24 4q43 6 47 6q53 0 88 -34.5t35 -88.5q0 -76 -74.5 -125t-232.5 -49t-232.5 49.5t-74.5 124.5zM102 0v31l123 30v1311l-123 31v31h584v-31l-123 -31v-1311l123 -30v-31h-584 z" />
<glyph unicode="&#x12d;" horiz-adv-x="696" d="M41 1300q0 53 35 88t88 35q4 0 47 -6l24 -4v-225q2 0 30 -10.5t83 -10.5t83 10.5t30 10.5v225l24 4q43 6 47 6q53 0 88 -34.5t35 -88.5q0 -76 -74.5 -125t-232.5 -49t-232.5 49.5t-74.5 124.5zM82 0v31l123 30v902l-123 30v31h266q184 0 184 -184v-779l123 -30v-31h-573z " />
<glyph unicode="&#x12e;" horiz-adv-x="788" d="M102 0v31l123 30v1311l-123 31v31h584v-31l-123 -31v-1311l123 -30v-31h-123q-57 -29 -98 -63q-96 -84 -96 -193q0 -82 82 -82q33 0 65 21q16 10 27 20v-61q-4 -2 -37 -17q-37 -14 -96 -14q-105 0 -160 44t-55 109q0 76 56 126.5t96 66.5t122 43h-367z" />
<glyph unicode="&#x12f;" horiz-adv-x="696" d="M82 0v31l123 30v902l-123 30v31h266q184 0 184 -184v-779l123 -30v-31h-123q-57 -29 -98 -63q-96 -84 -96 -193q0 -82 82 -82q33 0 65 21q16 10 27 20v-61q-4 -2 -37 -17q-37 -14 -96 -14q-105 0 -160 44t-55 109q0 76 56 126.5t96 66.5t122 43h-356zM195 1280 q0 70 52 122t122 52t122 -52t52 -122t-52.5 -122t-121.5 -52q-70 0 -122 52t-52 122z" />
<glyph unicode="&#x130;" horiz-adv-x="788" d="M102 0v31l123 30v1311l-123 31v31h584v-31l-123 -31v-1311l123 -30v-31h-584zM252 1700q0 61 41 102.5t103 41.5q61 0 102 -41t41 -103q0 -61 -41 -102t-102 -41q-62 0 -103 41t-41 102z" />
<glyph unicode="&#x131;" horiz-adv-x="696" d="M82 0v31l123 30v902l-123 30v31h266q184 0 184 -184v-779l123 -30v-31h-573z" />
<glyph unicode="&#x133;" horiz-adv-x="1310" d="M82 0v31l123 30v902l-123 30v31h891q184 0 184 -184v-901q0 -109 -53 -195t-155.5 -135t-241.5 -49q-154 0 -225.5 51t-71.5 143q0 70 42 112t111 42q16 0 32.5 -3t22.5 -3l27 -4v-287l12 -6q20 -4 29 -4q63 0 103 76.5t40 261.5v1034h-297v-912l123 -30v-31h-573z M195 1280q0 70 52 122t122 52t122 -52t52 -122t-52.5 -122t-121.5 -52q-70 0 -122 52t-52 122zM819 1280q0 70 52.5 122t121.5 52q70 0 122 -52t52 -122t-52 -122t-122 -52q-69 0 -121.5 52t-52.5 122z" />
<glyph unicode="&#x134;" horiz-adv-x="1126" d="M0 195q0 70 42 111.5t112 41.5q16 0 32.5 -3t22.5 -3l27 -4v-307q14 -8 28 -11q35 -10 74 -10q246 0 246 400v962l-123 31v31h583v-31l-122 -31v-962q0 -213 -133.5 -327t-409.5 -114q-189 0 -284 65.5t-95 160.5zM450 1536l297 338l297 -338h-72l-225 144l-225 -144h-72 z" />
<glyph unicode="&#x135;" horiz-adv-x="696" d="M-225 -246q0 70 42 112t111 42q16 0 32.5 -3t23.5 -3l26 -4v-287l13 -6q20 -4 28 -4q63 0 103.5 76.5t40.5 261.5v1024l-123 30v31h266q184 0 184 -184v-901q0 -109 -53 -195t-155.5 -135t-241.5 -49q-154 0 -225.5 51t-71.5 143zM20 1157l297 338l297 -338h-71l-226 143 l-225 -143h-72z" />
<glyph unicode="&#x136;" horiz-adv-x="1413" d="M102 0v31l123 30v1311l-123 31v31h584v-31l-123 -31v-643l502 612l-154 62v31h389v-31l-163 -62l-359 -440l553 -840l103 -30v-31h-287q-92 0 -156.5 46t-120.5 128l-307 471v-584l123 -30v-31h-584zM618 -266q0 61 41 102t102 41q72 0 113 -45t41 -129 q0 -92 -31.5 -158.5t-81.5 -109.5q-51 -45 -112 -70l-21 41q39 14 76 45q78 66 98 170q-6 -6 -12 -9t-10 -7q-18 -14 -60 -15q-61 0 -102 41t-41 103z" />
<glyph unicode="&#x137;" horiz-adv-x="1228" d="M82 0v31l123 30v1311l-123 31v31h266q184 0 184 -185v-717l379 400l-153 61v31h389v-31l-164 -61l-235 -246l399 -625l102 -30v-31h-266q-98 0 -159.5 43t-116.5 131l-175 277v-390l123 -30v-31h-573zM465 -266q0 61 41 102t102 41q72 0 113 -45t41 -129 q0 -92 -31.5 -158.5t-81.5 -109.5q-51 -45 -112 -70l-21 41q39 14 76 45q78 66 98 170q-6 -6 -12 -9t-10 -7q-18 -14 -60 -15q-61 0 -102 41t-41 103z" />
<glyph unicode="&#x138;" horiz-adv-x="1228" d="M82 0v31l123 30v902l-123 30v31h266q184 0 184 -184v-308l379 400l-153 61v31h389v-31l-164 -61l-235 -246l399 -625l102 -30v-31h-266q-98 0 -159.5 43t-116.5 131l-175 277v-390l123 -30v-31h-573z" />
<glyph unicode="&#x139;" horiz-adv-x="1249" d="M102 0v31l123 30v1311l-123 31v31h584v-31l-123 -31v-1321h441q0 129 65 240q29 47 68 78h61v-369h-1096zM567 1536l82 308h266l-276 -308h-72z" />
<glyph unicode="&#x13a;" horiz-adv-x="696" d="M82 0v31l123 30v1311l-123 31v31h266h25h266l-113 -125q6 -27 6 -60v-1188l123 -30v-31h-573z" />
<glyph unicode="&#x13b;" horiz-adv-x="1249" d="M102 0v31l123 30v1311l-123 31v31h584v-31l-123 -31v-1321h441q0 129 65 240q29 47 68 78h61v-369h-1096zM475 -266q0 61 41 102t102 41q72 0 113 -45t41 -129q0 -92 -31.5 -158.5t-81.5 -109.5q-51 -45 -112 -70l-21 41q39 14 76 45q78 66 98 170q-6 -6 -12 -9t-10 -7 q-18 -14 -60 -15q-61 0 -102 41t-41 103z" />
<glyph unicode="&#x13c;" horiz-adv-x="696" d="M82 0v31l123 30v1311l-123 31v31h266q184 0 184 -185v-1188l123 -30v-31h-573zM199 -266q0 61 41 102t102 41q72 0 113 -45t41 -129q0 -92 -31.5 -158.5t-81.5 -109.5q-51 -45 -112 -70l-21 41q39 14 76 45q78 66 98 170q-6 -6 -12 -9t-10 -7q-18 -14 -60 -15 q-61 0 -102 41t-41 103z" />
<glyph unicode="&#x13d;" horiz-adv-x="1249" d="M102 0v31l123 30v1311l-123 31v31h584v-31l-123 -31v-1321h441q0 129 65 240q29 47 68 78h61v-369h-1096zM328 1874h72l225 -143l225 143h72l-297 -338z" />
<glyph unicode="&#x13e;" horiz-adv-x="696" d="M82 0v31l123 30v1311l-123 31v31h266q184 0 184 -185v-1188l123 -30v-31h-573zM577 1403q0 61 46.5 107t107.5 46q72 0 118 -50t46 -134q0 -188 -123 -295q-53 -49 -123 -73l-20 51q43 14 86 47q88 66 108 178l-26 -16q-27 -14 -66 -15q-61 0 -107.5 46t-46.5 108z" />
<glyph unicode="&#x13f;" horiz-adv-x="1249" d="M102 0v31l123 30v1311l-123 31v31h584v-31l-123 -31v-1321h441q0 129 65 240q29 47 68 78h61v-369h-1096zM805 717q0 68 46 116t108 48q61 0 107 -48.5t46 -115.5q0 -68 -46 -116t-107 -48q-62 0 -108 48t-46 116z" />
<glyph unicode="&#x140;" horiz-adv-x="993" d="M82 0v31l123 30v1311l-123 31v31h266q184 0 184 -185v-1188l123 -30v-31h-573zM665 717q0 68 46 116t108 48q61 0 107 -48.5t46 -115.5q0 -68 -46 -116t-107 -48q-62 0 -108 48t-46 116z" />
<glyph unicode="&#x141;" horiz-adv-x="1269" d="M72 543v71l174 105v653l-123 31v31h584v-31l-123 -31v-448l164 100v-72l-164 -100v-801h440q0 129 66 240q29 47 67 78h62v-369h-1096v31l123 30v586z" />
<glyph unicode="&#x142;" horiz-adv-x="747" d="M41 543v71l174 107v651l-123 31v31h266q184 0 185 -185v-325l164 100v-72l-164 -100v-791l123 -30v-31h-574v31l123 30v588z" />
<glyph unicode="&#x143;" horiz-adv-x="1515" d="M61 0v31l164 61v1270l-143 41v31h215q109 0 170 -39t117 -105l655 -768v819l-164 62v31h389v-31l-164 -62v-1372h-61l-952 1116v-993l164 -61v-31h-390zM701 1536l82 308h266l-276 -308h-72z" />
<glyph unicode="&#x144;" horiz-adv-x="1361" d="M82 0v31l123 30v902l-123 30v31h184q121 0 191 -78q27 -31 45 -76q29 53 67 93q92 92 230 92q115 0 206 -48.5t142 -126t51 -163.5v-656l123 -30v-31h-266q-184 0 -185 184v533q0 129 -46 197.5t-107 68.5q-78 0 -139 -82q-27 -35 -46 -82v-758l123 -30v-31h-573z M666 1126l82 308h266l-276 -308h-72z" />
<glyph unicode="&#x145;" horiz-adv-x="1515" d="M61 0v31l164 61v1270l-143 41v31h215q109 0 170 -39t117 -105l655 -768v819l-164 62v31h389v-31l-164 -62v-1372h-61l-952 1116v-993l164 -61v-31h-390zM608 -266q0 61 41 102t102 41q72 0 113 -45t41 -129q0 -92 -31.5 -158.5t-81.5 -109.5q-51 -45 -112 -70l-21 41 q39 14 76 45q78 66 98 170q-6 -6 -12 -9t-10 -7q-18 -14 -60 -15q-61 0 -102 41t-41 103z" />
<glyph unicode="&#x146;" horiz-adv-x="1361" d="M82 0v31l123 30v902l-123 30v31h184q121 0 191 -78q27 -31 45 -76q29 53 67 93q92 92 230 92q115 0 206 -48.5t142 -126t51 -163.5v-656l123 -30v-31h-266q-184 0 -185 184v533q0 129 -46 197.5t-107 68.5q-78 0 -139 -82q-27 -35 -46 -82v-758l123 -30v-31h-573z M573 -266q0 61 41 102t102 41q72 0 113 -45t41 -129q0 -92 -31.5 -158.5t-81.5 -109.5q-51 -45 -112 -70l-21 41q39 14 76 45q78 66 98 170q-6 -6 -12 -9t-10 -7q-18 -14 -60 -15q-61 0 -102 41t-41 103z" />
<glyph unicode="&#x147;" horiz-adv-x="1515" d="M61 0v31l164 61v1270l-143 41v31h215q109 0 170 -39t117 -105l655 -768v819l-164 62v31h389v-31l-164 -62v-1372h-61l-952 1116v-993l164 -61v-31h-390zM461 1874h72l225 -143l225 143h72l-297 -338z" />
<glyph unicode="&#x148;" horiz-adv-x="1361" d="M82 0v31l123 30v902l-123 30v31h184q121 0 191 -78q27 -31 45 -76q29 53 67 93q92 92 230 92q115 0 206 -48.5t142 -126t51 -163.5v-656l123 -30v-31h-266q-184 0 -185 184v533q0 129 -46 197.5t-107 68.5q-78 0 -139 -82q-27 -35 -46 -82v-758l123 -30v-31h-573z M426 1464h72l225 -143l225 143h72l-297 -338z" />
<glyph unicode="&#x14c;" horiz-adv-x="1515" d="M92 717q0 238 82 405.5t232.5 254.5t351.5 87t351.5 -87t232 -255t81.5 -405q0 -238 -81.5 -406t-232.5 -255t-351 -87q-201 0 -351.5 87t-232.5 255t-82 406zM451 717q0 -256 45 -414t113.5 -225.5t148.5 -67.5t148.5 67.5t113.5 225.5t45 414t-45 413.5t-113.5 225 t-148.5 67.5t-148.5 -67.5t-113.5 -225t-45 -413.5zM492 1751v93h532v-93h-532z" />
<glyph unicode="&#x14d;" horiz-adv-x="1249" d="M82 512q0 254 144.5 398.5t398.5 144.5t398 -144.5t144 -398.5t-144 -398.5t-398 -144.5t-398.5 144.5t-144.5 398.5zM359 1341v93h532v-93h-532zM430 512q0 -272 56.5 -387t138.5 -115t138 115t56 387t-56 387t-138 115t-138.5 -115t-56.5 -387z" />
<glyph unicode="&#x14e;" horiz-adv-x="1515" d="M92 717q0 238 82 405.5t232.5 254.5t351.5 87t351.5 -87t232 -255t81.5 -405q0 -238 -81.5 -406t-232.5 -255t-351 -87q-201 0 -351.5 87t-232.5 255t-82 406zM451 717q0 -256 45 -414t113.5 -225.5t148.5 -67.5t148.5 67.5t113.5 225.5t45 414t-45 413.5t-113.5 225 t-148.5 67.5t-148.5 -67.5t-113.5 -225t-45 -413.5zM451 1710q0 53 35 88t88 35q4 0 47 -6l24 -4v-225q2 0 30 -10.5t83 -10.5t83 10.5t30 10.5v225l24 4q43 6 47 6q53 0 88 -34.5t35 -88.5q0 -76 -74.5 -125t-232.5 -49t-232.5 49.5t-74.5 124.5z" />
<glyph unicode="&#x14f;" horiz-adv-x="1249" d="M82 512q0 254 144.5 398.5t398.5 144.5t398 -144.5t144 -398.5t-144 -398.5t-398 -144.5t-398.5 144.5t-144.5 398.5zM318 1300q0 53 35 88t88 35q4 0 47 -6l24 -4v-225q2 0 30 -10.5t83 -10.5t83 10.5t30 10.5v225l24 4q43 6 47 6q53 0 88 -34.5t35 -88.5 q0 -76 -74.5 -125t-232.5 -49t-232.5 49.5t-74.5 124.5zM430 512q0 -272 56.5 -387t138.5 -115t138 115t56 387t-56 387t-138 115t-138.5 -115t-56.5 -387z" />
<glyph unicode="&#x150;" horiz-adv-x="1515" d="M92 717q0 238 82 405.5t232.5 254.5t351.5 87t351.5 -87t232 -255t81.5 -405q0 -238 -81.5 -406t-232.5 -255t-351 -87q-201 0 -351.5 87t-232.5 255t-82 406zM451 717q0 -256 45 -414t113.5 -225.5t148.5 -67.5t148.5 67.5t113.5 225.5t45 414t-45 413.5t-113.5 225 t-148.5 67.5t-148.5 -67.5t-113.5 -225t-45 -413.5zM582 1536l92 308h205l-225 -308h-72zM848 1536l92 308h205l-225 -308h-72z" />
<glyph unicode="&#x151;" horiz-adv-x="1249" d="M82 512q0 254 144.5 398.5t398.5 144.5t398 -144.5t144 -398.5t-144 -398.5t-398 -144.5t-398.5 144.5t-144.5 398.5zM430 512q0 -272 56.5 -387t138.5 -115t138 115t56 387t-56 387t-138 115t-138.5 -115t-56.5 -387zM449 1126l92 308h205l-225 -308h-72zM715 1126 l92 308h205l-225 -308h-72z" />
<glyph unicode="&#x152;" horiz-adv-x="2017" d="M92 717q0 340 195.5 528.5t562.5 188.5h1044v-369h-61q-39 31 -68 78q-66 111 -65 239h-420v-645h215q14 78 53 146q16 31 39 59h62v-461h-62q-23 29 -39 60q-39 68 -53 145h-215v-635h461q0 129 65 240q29 47 68 78h61v-369h-1085q-367 0 -562.5 188.5t-195.5 528.5z M451 717q0 -356 104 -511t295 -155h92v1331h-92q-190 0 -294.5 -154.5t-104.5 -510.5z" />
<glyph unicode="&#x153;" horiz-adv-x="1884" d="M82 512q0 168 64.5 290t182 187.5t275.5 65.5q188 0 301 -92q49 -37 78 -93q29 53 76 93q109 92 282 92q139 0 246 -55.5t166 -148.5t59 -206q0 -55 -10 -92l-10 -31q-90 -18 -190 -30q-215 -31 -435 -31q0 -238 65.5 -339.5t180.5 -101.5q80 0 148.5 38t108.5 100.5 t40 128.5h51q0 -82 -49 -156t-137 -118t-203 -44q-178 0 -303 92q-51 39 -86 93q-29 -55 -78 -93q-113 -92 -301 -92q-158 0 -275.5 65.5t-182 187.5t-64.5 290zM430 512q0 -272 56.5 -387t138.5 -115t138 115t56 387t-56 387t-138 115t-138.5 -115t-56.5 -387zM1167 512 q131 0 213 10q35 2 74 10q2 10 10 46q10 51 11 108q0 170 -45.5 249t-108.5 79q-154 0 -154 -502z" />
<glyph unicode="&#x154;" horiz-adv-x="1433" d="M102 0v31l123 30v1311l-123 31v31h543q348 0 501.5 -105.5t153.5 -294.5q0 -127 -67.5 -205.5t-173.5 -117.5q-113 -43 -240 -45v-11q76 -4 133 -22q143 -45 195 -162l184 -410l103 -30v-31h-287q-168 0 -246 174l-205 461h-133v-574l144 -30v-31h-605zM563 686h82 q143 0 225 90t82 258t-82 258t-225 90h-82v-696zM660 1536l82 308h266l-276 -308h-72z" />
<glyph unicode="&#x155;" horiz-adv-x="1034" d="M82 0v31l123 30v902l-123 30v31h184q121 0 191 -78q27 -31 45 -76q31 45 76 82q102 82 229 82q109 0 163 -50t54 -144q0 -70 -42 -112t-112 -42q-29 0 -57 4l-25 6v287q-104 0 -190 -82q-41 -41 -66 -82v-758l123 -30v-31h-573zM461 1126l82 308h266l-276 -308h-72z" />
<glyph unicode="&#x156;" horiz-adv-x="1433" d="M102 0v31l123 30v1311l-123 31v31h543q348 0 501.5 -105.5t153.5 -294.5q0 -127 -67.5 -205.5t-173.5 -117.5q-113 -43 -240 -45v-11q76 -4 133 -22q143 -45 195 -162l184 -410l103 -30v-31h-287q-168 0 -246 174l-205 461h-133v-574l144 -30v-31h-605zM563 686h82 q143 0 225 90t82 258t-82 258t-225 90h-82v-696zM567 -266q0 61 41 102t102 41q72 0 113 -45t41 -129q0 -92 -31.5 -158.5t-81.5 -109.5q-51 -45 -112 -70l-21 41q39 14 76 45q78 66 98 170q-6 -6 -12 -9t-10 -7q-18 -14 -60 -15q-61 0 -102 41t-41 103z" />
<glyph unicode="&#x157;" horiz-adv-x="1034" d="M82 0v31l123 30v902l-123 30v31h184q121 0 191 -78q27 -31 45 -76q31 45 76 82q102 82 229 82q109 0 163 -50t54 -144q0 -70 -42 -112t-112 -42q-29 0 -57 4l-25 6v287q-104 0 -190 -82q-41 -41 -66 -82v-758l123 -30v-31h-573zM215 -266q0 61 41 102t102 41 q72 0 113 -45t41 -129q0 -92 -31.5 -158.5t-81.5 -109.5q-51 -45 -112 -70l-21 41q39 14 76 45q78 66 98 170q-6 -6 -12 -9t-10 -7q-18 -14 -60 -15q-61 0 -102 41t-41 103z" />
<glyph unicode="&#x158;" horiz-adv-x="1433" d="M102 0v31l123 30v1311l-123 31v31h543q348 0 501.5 -105.5t153.5 -294.5q0 -127 -67.5 -205.5t-173.5 -117.5q-113 -43 -240 -45v-11q76 -4 133 -22q143 -45 195 -162l184 -410l103 -30v-31h-287q-168 0 -246 174l-205 461h-133v-574l144 -30v-31h-605zM420 1874h72 l225 -143l225 143h72l-297 -338zM563 686h82q143 0 225 90t82 258t-82 258t-225 90h-82v-696z" />
<glyph unicode="&#x159;" horiz-adv-x="1034" d="M82 0v31l123 30v902l-123 30v31h184q121 0 191 -78q27 -31 45 -76q31 45 76 82q102 82 229 82q109 0 163 -50t54 -144q0 -70 -42 -112t-112 -42q-29 0 -57 4l-25 6v287q-104 0 -190 -82q-41 -41 -66 -82v-758l123 -30v-31h-573zM221 1464h72l225 -143l225 143h72 l-297 -338z" />
<glyph unicode="&#x15a;" horiz-adv-x="1218" d="M72 -10v389h82q31 -100 86 -180q125 -178 323 -179q117 0 186.5 70t69.5 186q0 68 -40 121.5t-99 94t-166 102.5q-135 76 -219 137.5t-143.5 154.5t-59.5 220q0 100 56.5 181t169 129t276.5 48q119 0 237 -67q45 -25 91 -66q35 53 71 84q37 27 41 29h51v-389h-81 q-27 98 -80 178q-49 78 -122 129t-167 51q-80 0 -137.5 -63.5t-57.5 -161.5q0 -76 44 -136.5t108.5 -105.5t175.5 -108q129 -74 209 -131.5t135 -142.5t55 -195q0 -111 -63.5 -202t-190.5 -144.5t-309 -53.5q-145 0 -272 66q-57 29 -96 67q-29 -47 -72 -84q-37 -27 -41 -28 h-51zM553 1536l82 308h266l-276 -308h-72z" />
<glyph unicode="&#x15b;" horiz-adv-x="1105" d="M92 -10v348h82q27 -86 78 -160q109 -158 270 -158q86 0 130 42t44 122q0 68 -60.5 114t-189.5 114q-111 55 -179 99t-116.5 110.5t-48.5 156.5q0 123 105.5 200t324.5 77q109 0 201 -58q45 -27 78 -55q27 37 72 70q35 20 41 22h51v-348h-82q-31 88 -76 158 q-102 160 -244 160q-55 0 -94 -41t-39 -103q0 -78 65.5 -130t199.5 -120q109 -55 173 -97t110 -103.5t46 -143.5q0 -297 -471 -297q-127 1 -227 56q-49 27 -80 57q-33 -45 -72 -70q-18 -12 -41 -22h-51zM496 1126l82 308h266l-276 -308h-72z" />
<glyph unicode="&#x15c;" horiz-adv-x="1218" d="M72 -10v389h82q31 -100 86 -180q125 -178 323 -179q117 0 186.5 70t69.5 186q0 68 -40 121.5t-99 94t-166 102.5q-135 76 -219 137.5t-143.5 154.5t-59.5 220q0 100 56.5 181t169 129t276.5 48q119 0 237 -67q45 -25 91 -66q35 53 71 84q37 27 41 29h51v-389h-81 q-27 98 -80 178q-49 78 -122 129t-167 51q-80 0 -137.5 -63.5t-57.5 -161.5q0 -76 44 -136.5t108.5 -105.5t175.5 -108q129 -74 209 -131.5t135 -142.5t55 -195q0 -111 -63.5 -202t-190.5 -144.5t-309 -53.5q-145 0 -272 66q-57 29 -96 67q-29 -47 -72 -84q-37 -27 -41 -28 h-51zM313 1536l297 338l297 -338h-72l-225 144l-225 -144h-72z" />
<glyph unicode="&#x15d;" horiz-adv-x="1105" d="M92 -10v348h82q27 -86 78 -160q109 -158 270 -158q86 0 130 42t44 122q0 68 -60.5 114t-189.5 114q-111 55 -179 99t-116.5 110.5t-48.5 156.5q0 123 105.5 200t324.5 77q109 0 201 -58q45 -27 78 -55q27 37 72 70q35 20 41 22h51v-348h-82q-31 88 -76 158 q-102 160 -244 160q-55 0 -94 -41t-39 -103q0 -78 65.5 -130t199.5 -120q109 -55 173 -97t110 -103.5t46 -143.5q0 -297 -471 -297q-127 1 -227 56q-49 27 -80 57q-33 -45 -72 -70q-18 -12 -41 -22h-51zM256 1126l297 338l297 -338h-72l-225 144l-225 -144h-72z" />
<glyph unicode="&#x15e;" horiz-adv-x="1218" d="M72 -10v389h82q31 -100 86 -180q125 -178 323 -179q117 0 186.5 70t69.5 186q0 68 -40 121.5t-99 94t-166 102.5q-135 76 -219 137.5t-143.5 154.5t-59.5 220q0 100 56.5 181t169 129t276.5 48q119 0 237 -67q45 -25 91 -66q35 53 71 84q37 27 41 29h51v-389h-81 q-27 98 -80 178q-49 78 -122 129t-167 51q-80 0 -137.5 -63.5t-57.5 -161.5q0 -76 44 -136.5t108.5 -105.5t175.5 -108q129 -74 209 -131.5t135 -142.5t55 -195q0 -107 -59 -196t-177 -143.5t-290 -60.5v-71q88 0 141.5 -45.5t53.5 -108.5q0 -66 -55.5 -110t-159.5 -44 q-35 0 -80 4l-35 7v61q12 -8 20 -10q25 -10 54 -10q47 0 74.5 27.5t27.5 74.5t-29.5 74.5t-83.5 27.5v123q-121 8 -237 66q-57 29 -96 67q-29 -47 -72 -84q-37 -27 -41 -28h-51z" />
<glyph unicode="&#x15f;" horiz-adv-x="1105" d="M92 -10v348h82q27 -86 78 -160q109 -158 270 -158q86 0 130 42t44 122q0 68 -60.5 114t-189.5 114q-111 55 -179 99t-116.5 110.5t-48.5 156.5q0 123 105.5 200t324.5 77q109 0 201 -58q45 -27 78 -55q27 37 72 70q35 20 41 22h51v-348h-82q-31 88 -76 158 q-102 160 -244 160q-55 0 -94 -41t-39 -103q0 -78 65.5 -130t199.5 -120q109 -55 173 -97t110 -103.5t46 -143.5q1 -291 -450 -297v-71q88 0 141 -45.5t53 -108.5q0 -66 -55 -110t-160 -44q-35 0 -80 4l-34 7v61q12 -8 20 -10q25 -10 53 -10q47 0 75 27.5t28 74.5t-30 74.5 t-83 27.5v125q-92 8 -176 54q-49 27 -80 57q-33 -45 -72 -70q-18 -12 -41 -22h-51z" />
<glyph unicode="&#x160;" horiz-adv-x="1218" d="M72 -10v389h82q31 -100 86 -180q125 -178 323 -179q117 0 186.5 70t69.5 186q0 68 -40 121.5t-99 94t-166 102.5q-135 76 -219 137.5t-143.5 154.5t-59.5 220q0 100 56.5 181t169 129t276.5 48q119 0 237 -67q45 -25 91 -66q35 53 71 84q37 27 41 29h51v-389h-81 q-27 98 -80 178q-49 78 -122 129t-167 51q-80 0 -137.5 -63.5t-57.5 -161.5q0 -76 44 -136.5t108.5 -105.5t175.5 -108q129 -74 209 -131.5t135 -142.5t55 -195q0 -111 -63.5 -202t-190.5 -144.5t-309 -53.5q-145 0 -272 66q-57 29 -96 67q-29 -47 -72 -84q-37 -27 -41 -28 h-51zM313 1874h72l225 -143l225 143h72l-297 -338z" />
<glyph unicode="&#x161;" horiz-adv-x="1105" d="M92 -10v348h82q27 -86 78 -160q109 -158 270 -158q86 0 130 42t44 122q0 68 -60.5 114t-189.5 114q-111 55 -179 99t-116.5 110.5t-48.5 156.5q0 123 105.5 200t324.5 77q109 0 201 -58q45 -27 78 -55q27 37 72 70q35 20 41 22h51v-348h-82q-31 88 -76 158 q-102 160 -244 160q-55 0 -94 -41t-39 -103q0 -78 65.5 -130t199.5 -120q109 -55 173 -97t110 -103.5t46 -143.5q0 -297 -471 -297q-127 1 -227 56q-49 27 -80 57q-33 -45 -72 -70q-18 -12 -41 -22h-51zM256 1464h72l225 -143l225 143h72l-297 -338z" />
<glyph unicode="&#x164;" horiz-adv-x="1300" d="M51 1065v369h1198v-369h-61q-39 31 -68 78q-66 111 -65 239h-236v-1321l123 -30v-31h-584v31l123 30v1321h-235q0 -125 -68 -239q-29 -47 -65 -78h-62zM354 1874h72l225 -143l225 143h72l-297 -338z" />
<glyph unicode="&#x165;" horiz-adv-x="921" d="M31 973v51h143v102q0 184 184 185h144v-287h286v-51h-286v-625q0 -188 39 -258t114 -70q74 0 129.5 72t55.5 195h51q0 -152 -76 -235t-201 -83q-135 0 -234 49.5t-152.5 135.5t-53.5 194v625h-143zM802 1403q0 61 46.5 107t107.5 46q72 0 118 -50t46 -134 q0 -188 -123 -295q-53 -49 -123 -73l-20 51q43 14 86 47q88 66 108 178l-26 -16q-27 -14 -66 -15q-61 0 -107.5 46t-46.5 108z" />
<glyph unicode="&#x168;" horiz-adv-x="1454" d="M72 1403v31h583v-31l-123 -31v-860q0 -264 82 -378t236 -114q94 0 179 60.5t137.5 172.5t52.5 259v829l-164 62v31h389v-31l-164 -62v-829q0 -166 -61.5 -289t-168 -188.5t-241.5 -65.5q-303 0 -458.5 142.5t-155.5 400.5v860zM567 1608q0 119 48 177.5t136 58.5 q45 0 78 -15.5t72 -44.5q29 -20 50 -31.5t46 -11.5q39 0 65.5 26.5t26.5 65.5h41q0 -119 -48 -177t-136 -58q-45 0 -78 15.5t-72 43.5q-29 23 -50 33t-46 10q-39 0 -65.5 -26.5t-26.5 -65.5h-41z" />
<glyph unicode="&#x169;" horiz-adv-x="1331" d="M51 993v31h266q184 0 185 -184v-533q0 -129 46 -197.5t107 -68.5q76 0 138 82q23 31 47 82v758l-123 30v31h573v-31l-123 -30v-973h-20q-150 0 -227 82q-35 37 -50 82q-29 -51 -67 -93q-92 -92 -230 -92q-114 0 -205.5 48.5t-142.5 126t-51 163.5v656zM383 1198 q0 119 48 177.5t136 58.5q45 0 78 -15.5t72 -44.5q29 -20 50 -31.5t46 -11.5q39 0 65.5 26.5t26.5 65.5h41q0 -119 -48 -177t-136 -58q-45 0 -78 15.5t-72 43.5q-29 23 -50 33t-46 10q-39 0 -65.5 -26.5t-26.5 -65.5h-41z" />
<glyph unicode="&#x16a;" horiz-adv-x="1454" d="M72 1403v31h583v-31l-123 -31v-860q0 -264 82 -378t236 -114q94 0 179 60.5t137.5 172.5t52.5 259v829l-164 62v31h389v-31l-164 -62v-829q0 -166 -61.5 -289t-168 -188.5t-241.5 -65.5q-303 0 -458.5 142.5t-155.5 400.5v860zM584 1751v93h532v-93h-532z" />
<glyph unicode="&#x16b;" horiz-adv-x="1331" d="M51 993v31h266q184 0 185 -184v-533q0 -129 46 -197.5t107 -68.5q76 0 138 82q23 31 47 82v758l-123 30v31h573v-31l-123 -30v-973h-20q-150 0 -227 82q-35 37 -50 82q-29 -51 -67 -93q-92 -92 -230 -92q-114 0 -205.5 48.5t-142.5 126t-51 163.5v656zM400 1341v93h532 v-93h-532z" />
<glyph unicode="&#x16c;" horiz-adv-x="1454" d="M72 1403v31h583v-31l-123 -31v-860q0 -264 82 -378t236 -114q94 0 179 60.5t137.5 172.5t52.5 259v829l-164 62v31h389v-31l-164 -62v-829q0 -166 -61.5 -289t-168 -188.5t-241.5 -65.5q-303 0 -458.5 142.5t-155.5 400.5v860zM543 1710q0 53 35 88t88 35q4 0 47 -6 l24 -4v-225q2 0 30 -10.5t83 -10.5t83 10.5t30 10.5v225l24 4q43 6 47 6q53 0 88 -34.5t35 -88.5q0 -76 -74.5 -125t-232.5 -49t-232.5 49.5t-74.5 124.5z" />
<glyph unicode="&#x16d;" horiz-adv-x="1331" d="M51 993v31h266q184 0 185 -184v-533q0 -129 46 -197.5t107 -68.5q76 0 138 82q23 31 47 82v758l-123 30v31h573v-31l-123 -30v-973h-20q-150 0 -227 82q-35 37 -50 82q-29 -51 -67 -93q-92 -92 -230 -92q-114 0 -205.5 48.5t-142.5 126t-51 163.5v656zM359 1300 q0 53 35 88t88 35q4 0 47 -6l24 -4v-225q2 0 30 -10.5t83 -10.5t83 10.5t30 10.5v225l24 4q43 6 47 6q53 0 88 -34.5t35 -88.5q0 -76 -74.5 -125t-232.5 -49t-232.5 49.5t-74.5 124.5z" />
<glyph unicode="&#x16e;" horiz-adv-x="1454" d="M72 1403v31h583v-31l-123 -31v-860q0 -264 82 -378t236 -114q94 0 179 60.5t137.5 172.5t52.5 259v829l-164 62v31h389v-31l-164 -62v-829q0 -166 -61.5 -289t-168 -188.5t-241.5 -65.5q-303 0 -458.5 142.5t-155.5 400.5v860zM634 1741q0 86 61.5 145.5t154.5 59.5 q92 0 153.5 -59.5t61.5 -145.5t-61.5 -145.5t-153.5 -59.5q-93 0 -154.5 59.5t-61.5 145.5zM737 1741q0 -59 31.5 -96t81.5 -37q49 0 80.5 37t31.5 96t-31.5 96t-80.5 37t-81 -36.5t-32 -96.5z" />
<glyph unicode="&#x16f;" horiz-adv-x="1331" d="M51 993v31h266q184 0 185 -184v-533q0 -129 46 -197.5t107 -68.5q76 0 138 82q23 31 47 82v758l-123 30v31h573v-31l-123 -30v-973h-20q-150 0 -227 82q-35 37 -50 82q-29 -51 -67 -93q-92 -92 -230 -92q-114 0 -205.5 48.5t-142.5 126t-51 163.5v656zM450 1331 q0 86 61.5 145.5t154.5 59.5q92 0 153.5 -59.5t61.5 -145.5t-61.5 -145.5t-153.5 -59.5q-93 0 -154.5 59.5t-61.5 145.5zM553 1331q0 -59 31.5 -96t81.5 -37q49 0 80.5 37t31.5 96t-31.5 96t-80.5 37t-81 -36.5t-32 -96.5z" />
<glyph unicode="&#x170;" horiz-adv-x="1454" d="M72 1403v31h583v-31l-123 -31v-860q0 -264 82 -378t236 -114q94 0 179 60.5t137.5 172.5t52.5 259v829l-164 62v31h389v-31l-164 -62v-829q0 -166 -61.5 -289t-168 -188.5t-241.5 -65.5q-303 0 -458.5 142.5t-155.5 400.5v860zM674 1536l92 308h205l-225 -308h-72z M940 1536l92 308h205l-225 -308h-72z" />
<glyph unicode="&#x171;" horiz-adv-x="1331" d="M51 993v31h266q184 0 185 -184v-533q0 -129 46 -197.5t107 -68.5q76 0 138 82q23 31 47 82v758l-123 30v31h573v-31l-123 -30v-973h-20q-150 0 -227 82q-35 37 -50 82q-29 -51 -67 -93q-92 -92 -230 -92q-114 0 -205.5 48.5t-142.5 126t-51 163.5v656zM490 1126l92 308 h205l-225 -308h-72zM756 1126l92 308h205l-225 -308h-72z" />
<glyph unicode="&#x172;" horiz-adv-x="1454" d="M72 1403v31h583v-31l-123 -31v-860q0 -264 82 -378t236 -114q94 0 179 60.5t137.5 172.5t52.5 259v829l-164 62v31h389v-31l-164 -62v-829q0 -182 -73.5 -312t-200.5 -190q-39 -20 -80 -53q-96 -84 -97 -193q0 -82 82 -81q33 0 66 20q16 10 27 21v-62q-4 -2 -37 -16 q-37 -14 -97 -15q-104 0 -159.5 44t-55.5 110q0 109 138 182l4 2q-297 2 -449.5 145.5t-152.5 397.5v860z" />
<glyph unicode="&#x173;" horiz-adv-x="1331" d="M51 993v31h266q184 0 185 -184v-533q0 -129 46 -197.5t107 -68.5q76 0 138 82q23 31 47 82v758l-123 30v31h573v-31l-123 -30v-973q-57 -29 -98 -64q-96 -84 -96 -192q0 -82 82 -82q33 0 65 20q16 10 27 21v-62q-4 -2 -37 -16q-37 -14 -96 -14q-104 0 -159.5 44 t-55.5 109q0 109 137 183q53 29 139 53h72q-150 0 -227 82q-35 37 -50 82q-29 -51 -67 -93q-92 -92 -230 -92q-115 0 -206 48.5t-142 126t-51 163.5v656z" />
<glyph unicode="&#x174;" horiz-adv-x="2017" d="M-41 1403v31h246q109 0 178.5 -49.5t97.5 -124.5l310 -789l180 528l-152 383l-112 21v31h245q109 0 176.5 -48.5t100.5 -125.5l309 -789l295 870l-154 62v31h379v-31l-164 -62l-460 -1361h-62l-368 935l-318 -935h-61l-553 1402zM713 1536l297 338l297 -338h-72l-225 144 l-225 -144h-72z" />
<glyph unicode="&#x175;" horiz-adv-x="1710" d="M-41 993v31h236q109 0 172 -45t104 -129l225 -471l117 299l-137 285l-103 30v31h236q109 0 172 -45t104 -129l226 -471l215 553l-154 61v31h379v-31l-164 -61l-379 -952h-61l-303 630l-250 -630h-62l-471 983zM559 1126l297 338l297 -338h-72l-225 144l-225 -144h-72z " />
<glyph unicode="&#x176;" horiz-adv-x="1361" d="M0 1403v31h256q106 0 171 -45.5t105 -128.5l304 -605l311 686l-154 62v31h389v-31l-163 -62l-359 -788v-492l123 -30v-31h-584v31l123 30v471l-420 840zM385 1536l297 338l297 -338h-72l-225 144l-225 -144h-72z" />
<glyph unicode="&#x177;" d="M-41 993v31h256q106 0 168.5 -44t108.5 -130l256 -473l215 555l-154 61v31h379v-31l-164 -61l-410 -1055q-66 -168 -139.5 -242.5t-167.5 -74.5q-92 0 -143 49t-51 135q0 78 42 121t111 43q16 0 32.5 -3t23.5 -3l26 -4v-277q59 10 104.5 65.5t100.5 190.5l41 103 l-533 983zM276 1126l297 338l297 -338h-72l-225 144l-225 -144h-72z" />
<glyph unicode="&#x178;" horiz-adv-x="1361" d="M0 1403v31h256q106 0 171 -45.5t105 -128.5l304 -605l311 686l-154 62v31h389v-31l-163 -62l-359 -788v-492l123 -30v-31h-584v31l123 30v471l-420 840zM348 1700q0 61 41 102.5t103 41.5q61 0 102 -41t41 -103q0 -61 -41 -102t-102 -41q-62 0 -103 41t-41 102zM727 1700 q0 61 41 102.5t103 41.5q61 0 102 -41t41 -103q0 -61 -41 -102t-102 -41q-62 0 -103 41t-41 102z" />
<glyph unicode="&#x179;" horiz-adv-x="1300" d="M82 0v51l760 1331h-535q0 -125 -67 -239q-29 -47 -66 -78h-61v369h1106v-52l-758 -1331h553q0 129 65 240q29 47 68 78h61v-369h-1126zM594 1536l82 308h266l-276 -308h-72z" />
<glyph unicode="&#x17a;" horiz-adv-x="1116" d="M82 0v51l584 922h-369q0 -113 -68 -228q-27 -43 -65 -79h-62v358h932v-51l-583 -922h389q0 117 65 228q29 47 68 79h61v-358h-952zM502 1126l82 308h266l-276 -308h-72z" />
<glyph unicode="&#x17b;" horiz-adv-x="1300" d="M82 0v51l760 1331h-535q0 -125 -67 -239q-29 -47 -66 -78h-61v369h1106v-52l-758 -1331h553q0 129 65 240q29 47 68 78h61v-369h-1126zM508 1700q0 61 41 102.5t103 41.5q61 0 102 -41t41 -103q0 -61 -41 -102t-102 -41q-62 0 -103 41t-41 102z" />
<glyph unicode="&#x17c;" horiz-adv-x="1116" d="M82 0v51l584 922h-369q0 -113 -68 -228q-27 -43 -65 -79h-62v358h932v-51l-583 -922h389q0 117 65 228q29 47 68 79h61v-358h-952zM415 1290q0 61 41 102.5t103 41.5q61 0 102 -41t41 -103q0 -61 -41 -102t-102 -41q-62 0 -103 41t-41 102z" />
<glyph unicode="&#x17d;" horiz-adv-x="1300" d="M82 0v51l760 1331h-535q0 -125 -67 -239q-29 -47 -66 -78h-61v369h1106v-52l-758 -1331h553q0 129 65 240q29 47 68 78h61v-369h-1126zM354 1874h72l225 -143l225 143h72l-297 -338z" />
<glyph unicode="&#x17e;" horiz-adv-x="1116" d="M82 0v51l584 922h-369q0 -113 -68 -228q-27 -43 -65 -79h-62v358h932v-51l-583 -922h389q0 117 65 228q29 47 68 79h61v-358h-952zM262 1464h72l225 -143l225 143h72l-297 -338z" />
<glyph unicode="&#x192;" horiz-adv-x="921" d="M-266 -143h51q0 -125 45 -185.5t119 -60.5q135 0 184 328l154 993h-144l11 51h143l20 102q35 170 160 274.5t332 104.5q145 0 221 -55t76 -139q0 -86 -47 -135.5t-127 -49.5q-29 0 -58 5l-24 6l51 317l-18 4q-8 2 -18.5 4t-24.5 2q-59 0 -108.5 -75.5t-86.5 -262.5 l-20 -102h327l-10 -51h-328l-153 -993q-27 -168 -149 -273.5t-322 -105.5q-119 0 -187.5 75.5t-68.5 221.5z" />
<glyph unicode="&#x1a0;" horiz-adv-x="1515" d="M92 717q0 238 82 405.5t232.5 254.5t351.5 87q125 0 235 -34q72 4 92 8l60 8v260l24 6q14 4 58 4q41 0 65.5 -41t24.5 -110q0 -74 -53.5 -118t-180.5 -56q162 -84 251 -256t89 -418q0 -238 -81.5 -406t-232.5 -255t-351 -87q-201 0 -351.5 87t-232.5 255t-82 406z M451 717q0 -256 45 -414t113.5 -225.5t148.5 -67.5t148.5 67.5t113.5 225.5t45 414t-45 413.5t-113.5 225t-148.5 67.5t-148.5 -67.5t-113.5 -225t-45 -413.5z" />
<glyph unicode="&#x1a1;" horiz-adv-x="1249" d="M82 512q0 254 144.5 398.5t398.5 144.5q123 0 225 -37q55 4 96 10l60 8v260l24 7q14 4 57 4q41 0 66 -41t25 -111q0 -76 -56.5 -120t-191.5 -54q114 -66 175.5 -186.5t61.5 -282.5q0 -254 -144 -398.5t-398 -144.5t-398.5 144.5t-144.5 398.5zM430 512q0 -272 56.5 -387 t138.5 -115t138 115t56 387t-56 387t-138 115t-138.5 -115t-56.5 -387z" />
<glyph unicode="&#x1af;" horiz-adv-x="1454" d="M72 1403v31h583v-31l-123 -31v-860q0 -264 82 -378t236 -114q94 0 179 60.5t137.5 172.5t52.5 259v829l-164 62v31h225v-4q53 4 76 8l59 8v260l25 6q14 4 57 4q41 0 65.5 -41t24.5 -110q0 -84 -69.5 -129t-237.5 -50v-874q0 -166 -61.5 -289t-168 -188.5t-241.5 -65.5 q-303 0 -458.5 142.5t-155.5 400.5v860z" />
<glyph unicode="&#x1b0;" horiz-adv-x="1331" d="M51 993v31h266q184 0 185 -184v-533q0 -129 46 -197.5t107 -68.5q76 0 138 82q23 31 47 82v758l-123 30v31h567v260l25 6q14 4 57 4q41 0 65.5 -41t24.5 -110q0 -80 -61.5 -124t-210.5 -52l-17 -4v-973h-20q-150 0 -227 82q-35 37 -50 82q-29 -51 -67 -93 q-92 -92 -230 -92q-115 0 -206 48.5t-142 126t-51 163.5v656z" />
<glyph unicode="&#x1fe;" horiz-adv-x="1515" d="M92 717q0 238 82 405.5t232.5 254.5t351.5 87q254 0 424 -145l88 115h71l-118 -156q201 -211 200 -561q0 -238 -81.5 -406t-232.5 -255t-351 -87q-254 1 -424 146l-88 -115h-72l117 154q-94 100 -146.5 241.5t-52.5 321.5zM451 717q0 -190 24 -324l549 719 q-41 162 -112.5 236.5t-153.5 74.5q-80 0 -148.5 -67.5t-113.5 -225t-45 -413.5zM489 319q39 -162 112 -235.5t157 -73.5q80 0 148.5 67.5t113.5 225.5t45 414q0 170 -25 321zM701 1536l82 308h266l-276 -308h-72z" />
<glyph unicode="&#x1ff;" horiz-adv-x="1249" d="M82 512q0 254 144.5 398.5t398.5 144.5q197 0 333 -99l56 68h71l-84 -102q78 -72 122 -176.5t44 -233.5q0 -254 -144 -398.5t-398 -144.5q-201 1 -334 97l-55 -66h-72l84 100q-166 160 -166 412zM430 512q0 -109 8 -182l363 436q-23 131 -71 189.5t-105 58.5 q-82 0 -138.5 -115t-56.5 -387zM449 256q23 -133 69.5 -189.5t106.5 -56.5q82 0 138 115t56 387q0 113 -8 180zM532 1147l82 307h267l-277 -307h-72z" />
<glyph unicode="&#x218;" horiz-adv-x="1218" d="M72 -10v389h82q31 -100 86 -180q125 -178 323 -179q117 0 186.5 70t69.5 186q0 68 -40 121.5t-99 94t-166 102.5q-135 76 -219 137.5t-143.5 154.5t-59.5 220q0 100 56.5 181t169 129t276.5 48q119 0 237 -67q45 -25 91 -66q35 53 71 84q37 27 41 29h51v-389h-81 q-27 98 -80 178q-49 78 -122 129t-167 51q-80 0 -137.5 -63.5t-57.5 -161.5q0 -76 44 -136.5t108.5 -105.5t175.5 -108q129 -74 209 -131.5t135 -142.5t55 -195q0 -111 -63.5 -202t-190.5 -144.5t-309 -53.5q-145 0 -272 66q-57 29 -96 67q-29 -47 -72 -84q-37 -27 -41 -28 h-51zM461 -266q0 61 41 102t102 41q72 0 113 -45t41 -129q0 -92 -31.5 -158.5t-81.5 -109.5q-51 -45 -112 -70l-21 41q39 14 76 45q78 66 98 170q-6 -6 -12 -9t-10 -7q-18 -14 -60 -15q-61 0 -102 41t-41 103z" />
<glyph unicode="&#x219;" horiz-adv-x="1105" d="M92 -10v348h82q27 -86 78 -160q109 -158 270 -158q86 0 130 42t44 122q0 68 -60.5 114t-189.5 114q-111 55 -179 99t-116.5 110.5t-48.5 156.5q0 123 105.5 200t324.5 77q109 0 201 -58q45 -27 78 -55q27 37 72 70q35 20 41 22h51v-348h-82q-31 88 -76 158 q-102 160 -244 160q-55 0 -94 -41t-39 -103q0 -78 65.5 -130t199.5 -120q109 -55 173 -97t110 -103.5t46 -143.5q0 -297 -471 -297q-127 1 -227 56q-49 27 -80 57q-33 -45 -72 -70q-18 -12 -41 -22h-51zM403 -266q0 61 41 102t102 41q72 0 113 -45t41 -129 q0 -92 -31.5 -158.5t-81.5 -109.5q-51 -45 -112 -70l-21 41q39 14 76 45q78 66 98 170q-6 -6 -12 -9t-10 -7q-18 -14 -60 -15q-61 0 -102 41t-41 103z" />
<glyph unicode="&#x21a;" horiz-adv-x="1300" d="M51 1065v369h1198v-369h-61q-39 31 -68 78q-66 111 -65 239h-236v-1321l123 -30v-31h-584v31l123 30v1321h-235q0 -125 -68 -239q-29 -47 -65 -78h-62zM502 -266q0 61 41 102t102 41q72 0 113 -45t41 -129q0 -92 -31.5 -158.5t-81.5 -109.5q-51 -45 -112 -70l-21 41 q39 14 76 45q78 66 98 170q-6 -6 -12 -9t-10 -7q-18 -14 -60 -15q-61 0 -102 41t-41 103z" />
<glyph unicode="&#x21b;" horiz-adv-x="921" d="M31 973v51h143v102q0 184 184 185h144v-287h286v-51h-286v-625q0 -188 39 -258t114 -70q74 0 129.5 72t55.5 195h51q0 -152 -76 -235t-201 -83q-135 0 -234 49.5t-152.5 135.5t-53.5 194v625h-143zM311 -266q0 61 41 102t102 41q72 0 113 -45t41 -129q0 -92 -31.5 -158.5 t-81.5 -109.5q-51 -45 -112 -70l-21 41q39 14 76 45q78 66 98 170q-6 -6 -12 -9t-10 -7q-18 -14 -60 -15q-61 0 -102 41t-41 103z" />
<glyph unicode="&#x237;" horiz-adv-x="675" d="M-225 -246q0 70 42 112t111 42q16 0 32.5 -3t23.5 -3l26 -4v-287l13 -6q20 -4 28 -4q63 0 103.5 76.5t40.5 261.5v1024l-123 30v31h266q184 0 184 -184v-901q0 -109 -53 -195t-155.5 -135t-241.5 -49q-154 0 -225.5 51t-71.5 143z" />
<glyph unicode="&#x2bc;" horiz-adv-x="368" d="M0 1567q0 61 46 107.5t108 46.5q72 0 118 -50.5t46 -134.5q0 -188 -123 -295q-53 -49 -123 -73l-21 51q43 14 86 47q88 66 109 178l-27 -16q-27 -14 -65 -14q-61 0 -107.5 46t-46.5 107z" />
<glyph unicode="&#x2c6;" horiz-adv-x="675" d="M41 1126l297 338l297 -338h-72l-225 144l-225 -144h-72z" />
<glyph unicode="&#x2c7;" horiz-adv-x="675" d="M41 1761h72l225 -164l225 164h72l-236 -307h-123z" />
<glyph unicode="&#x2d8;" horiz-adv-x="675" d="M31 1300q0 53 34.5 88t88.5 35q4 0 47 -6l24 -4v-225q2 0 30 -10.5t83 -10.5t83 10.5t30 10.5v225l24 4q43 6 47 6q53 0 88 -34.5t35 -88.5q0 -76 -74.5 -125t-232.5 -49t-232.5 49.5t-74.5 124.5z" />
<glyph unicode="&#x2d9;" horiz-adv-x="368" d="M41 1290q0 61 41 102.5t102 41.5t102.5 -41t41.5 -103q0 -61 -41 -102t-103 -41q-61 0 -102 41t-41 102z" />
<glyph unicode="&#x2da;" horiz-adv-x="552" d="M61 1229q0 86 61.5 145.5t153.5 59.5t154 -59.5t62 -145.5t-61.5 -145.5t-154.5 -59.5q-92 0 -153.5 59.5t-61.5 145.5zM164 1229q0 -59 31.5 -96t80.5 -37q50 0 81.5 36.5t31.5 96.5q0 59 -31.5 96t-81.5 37q-49 0 -80.5 -37t-31.5 -96z" />
<glyph unicode="&#x2db;" horiz-adv-x="450" d="M41 -236q0 109 137 183q53 29 139 53h93q-57 -29 -99 -63q-96 -84 -96 -193q0 -82 82 -82q33 0 65 21q16 10 27 20v-61q-4 -2 -37 -17q-37 -14 -96 -14q-104 0 -159.5 44t-55.5 109z" />
<glyph unicode="&#x2dc;" horiz-adv-x="645" d="M41 1198q0 119 48 177.5t136 58.5q45 0 78 -15.5t72 -44.5q29 -20 51.5 -31.5t44.5 -11.5q39 0 65.5 26.5t26.5 65.5h41q0 -119 -48 -177t-136 -58q-45 0 -78 15.5t-72 43.5q-29 23 -50 33t-46 10q-39 0 -65.5 -26.5t-26.5 -65.5h-41z" />
<glyph unicode="&#x2dd;" horiz-adv-x="645" d="M41 1126l92 308h205l-225 -308h-72zM307 1126l92 308h205l-225 -308h-72z" />
<glyph unicode="&#x300;" horiz-adv-x="0" d="M-410 1434h267l82 -308h-72z" />
<glyph unicode="&#x301;" horiz-adv-x="0" d="M-389 1126l82 308h266l-276 -308h-72z" />
<glyph unicode="&#x302;" horiz-adv-x="0" d="M-635 1126l297 338l297 -338h-72l-225 144l-225 -144h-72z" />
<glyph unicode="&#x303;" horiz-adv-x="0" d="M-604 1198q0 119 48 177.5t136 58.5q45 0 78 -15.5t72 -44.5q29 -20 50 -31.5t46 -11.5q39 0 65.5 26.5t26.5 65.5h41q0 -119 -48 -177t-136 -58q-45 0 -78 15.5t-72 43.5q-29 23 -50 33t-46 10q-39 0 -65.5 -26.5t-26.5 -65.5h-41z" />
<glyph unicode="&#x304;" horiz-adv-x="0" d="M-573 1341v93h532v-93h-532z" />
<glyph unicode="&#x306;" horiz-adv-x="0" d="M-645 1300q0 53 35 88t88 35q4 0 47 -6l24 -4v-225q2 0 30 -10.5t83 -10.5t83 10.5t30 10.5v225l24 4q43 6 47 6q53 0 88 -34.5t35 -88.5q0 -76 -74.5 -125t-232.5 -49t-232.5 49.5t-74.5 124.5z" />
<glyph unicode="&#x307;" horiz-adv-x="0" d="M-328 1290q0 61 41 102.5t103 41.5q61 0 102 -41t41 -103q0 -61 -41 -102t-102 -41q-62 0 -103 41t-41 102z" />
<glyph unicode="&#x308;" horiz-adv-x="0" d="M-707 1290q0 61 41 102.5t103 41.5q61 0 102 -41t41 -103q0 -61 -41 -102t-102 -41q-62 0 -103 41t-41 102zM-328 1290q0 61 41 102.5t103 41.5q61 0 102 -41t41 -103q0 -61 -41 -102t-102 -41q-62 0 -103 41t-41 102z" />
<glyph unicode="&#x309;" horiz-adv-x="0" d="M-838 1470q0 113 191 113q250 0 250 -166q0 -59 -50.5 -99t-140.5 -54l-4 -58h-55l-4 68q43 16 66.5 49t23.5 94q0 68 -24.5 97.5t-76.5 29.5q-10 0 -40 -6l-17 -4v-115l-8 -2h-6q-104 0 -105 53z" />
<glyph unicode="&#x30a;" horiz-adv-x="0" d="M-492 1331q0 86 61.5 145.5t154.5 59.5q92 0 153.5 -59.5t61.5 -145.5t-61.5 -145.5t-153.5 -59.5q-93 0 -154.5 59.5t-61.5 145.5zM-389 1331q0 -59 31.5 -96t81.5 -37q49 0 80.5 37t31.5 96t-31.5 96t-80.5 37t-81 -36.5t-32 -96.5z" />
<glyph unicode="&#x30b;" horiz-adv-x="0" d="M-604 1126l92 308h205l-225 -308h-72zM-338 1126l92 308h205l-225 -308h-72z" />
<glyph unicode="&#x30c;" horiz-adv-x="0" d="M-635 1464h72l225 -143l225 143h72l-297 -338z" />
<glyph unicode="&#x31b;" horiz-adv-x="0" d="M-700 977v41q44 0 116 10l60 8v260l24 7q14 4 58 4q41 0 65.5 -41t24.5 -111q0 -90 -78 -134t-270 -44z" />
<glyph unicode="&#x323;" horiz-adv-x="0" d="M-342 -221q0 39 27.5 67.5t66.5 28.5t67.5 -28.5t28.5 -67.5t-28.5 -66.5t-67.5 -27.5t-66.5 27.5t-27.5 66.5z" />
<glyph unicode="&#x326;" horiz-adv-x="0" d="M-338 -266q0 61 41 102t102 41q72 0 113 -45t41 -129q0 -92 -31.5 -158.5t-81.5 -109.5q-51 -45 -112 -70l-21 41q39 14 76 45q78 66 98 170q-6 -6 -12 -9t-10 -7q-18 -14 -60 -15q-61 0 -102 41t-41 103z" />
<glyph unicode="&#x327;" horiz-adv-x="0" d="M-371 -338q12 -8 21 -10q25 -10 53 -10q47 0 74.5 27.5t27.5 74.5t-29.5 74.5t-82.5 27.5v154h71v-102q88 0 141.5 -45.5t53.5 -108.5q0 -66 -55.5 -110t-159.5 -44q-35 0 -80 4l-35 7v61z" />
<glyph unicode="&#x328;" horiz-adv-x="0" d="M-410 -236q0 109 138 183q53 29 139 53h92q-57 -29 -98 -63q-96 -84 -97 -193q0 -82 82 -82q33 0 66 21q16 10 27 20v-61q-4 -2 -37 -17q-37 -14 -97 -14q-104 0 -159.5 44t-55.5 109z" />
<glyph unicode="&#x335;" horiz-adv-x="0" d="M-819 645v51h717v-51h-717z" />
<glyph unicode="&#x400;" horiz-adv-x="1320" d="M102 0v31l123 30v1311l-123 31v31h1096v-369h-61q-39 31 -68 78q-66 111 -65 239h-441v-645h236q14 78 53 146q16 31 39 59h61v-461h-61q-23 29 -39 60q-39 68 -53 145h-236v-635h481q0 129 66 240q29 47 68 78h61v-369h-1137zM424 1844h267l82 -308h-72z" />
<glyph unicode="&#x401;" horiz-adv-x="1320" d="M102 0v31l123 30v1311l-123 31v31h1096v-369h-61q-39 31 -68 78q-66 111 -65 239h-441v-645h236q14 78 53 146q16 31 39 59h61v-461h-61q-23 29 -39 60q-39 68 -53 145h-236v-635h481q0 129 66 240q29 47 68 78h61v-369h-1137zM369 1720q0 61 41 102.5t102 41.5t102 -41 t41 -103q0 -61 -41 -102t-102 -41t-102 41t-41 102zM748 1720q0 61 40.5 102.5t102.5 41.5q61 0 102 -41t41 -103q0 -61 -41 -102t-102 -41q-62 0 -102.5 41t-40.5 102z" />
<glyph unicode="&#x402;" horiz-adv-x="1576" d="M51 1065v369h1055v-369h-62q-39 31 -67 78q-66 111 -66 239h-174v-553q27 14 72 31q100 31 195 31q250 0 370.5 -95.5t120.5 -263.5v-348q0 -117 -104.5 -181t-356.5 -64v41q51 0 87 51t36 153v348q0 166 -57.5 237t-177.5 71q-61 0 -131 -31l-54 -31v-717l123 -30v-31 h-584v31l123 30v1321h-153q0 -125 -68 -239q-29 -47 -65 -78h-62z" />
<glyph unicode="&#x403;" horiz-adv-x="1249" d="M102 0v31l123 30v1311l-123 31v31h1096v-369h-61q-39 31 -68 78q-66 111 -65 239h-441v-1321l123 -30v-31h-584zM629 1536l82 308h266l-276 -308h-72z" />
<glyph unicode="&#x404;" horiz-adv-x="1331" d="M92 717q0 236 81 404.5t227.5 255.5t338.5 87q117 0 236 -67q45 -25 90 -66q35 53 72 84q37 27 41 29h51v-389h-82q-27 98 -80 178q-49 78 -122 129t-167 51q-141 0 -234 -159.5t-93 -516.5h266q14 78 53 146q16 31 39 59h61v-461h-61q-23 29 -39 60q-39 68 -53 145h-266 q8 -365 106 -515.5t272 -150.5q96 0 183.5 54.5t141.5 144.5t54 191h52q0 -117 -62.5 -218.5t-170 -162t-239.5 -60.5q-327 0 -511.5 194.5t-184.5 553.5z" />
<glyph unicode="&#x405;" horiz-adv-x="1218" d="M72 -10v389h82q31 -100 86 -180q125 -178 323 -179q117 0 186.5 70t69.5 186q0 68 -40 121.5t-99 94t-166 102.5q-135 76 -219 137.5t-143.5 154.5t-59.5 220q0 100 56.5 181t169 129t276.5 48q119 0 237 -67q45 -25 91 -66q35 53 71 84q37 27 41 29h51v-389h-81 q-27 98 -80 178q-49 78 -122 129t-167 51q-80 0 -137.5 -63.5t-57.5 -161.5q0 -76 44 -136.5t108.5 -105.5t175.5 -108q129 -74 209 -131.5t135 -142.5t55 -195q0 -111 -63.5 -202t-190.5 -144.5t-309 -53.5q-145 0 -272 66q-57 29 -96 67q-29 -47 -72 -84q-37 -27 -41 -28 h-51z" />
<glyph unicode="&#x406;" horiz-adv-x="788" d="M102 0v31l123 30v1311l-123 31v31h584v-31l-123 -31v-1311l123 -30v-31h-584z" />
<glyph unicode="&#x407;" horiz-adv-x="788" d="M61 1700q0 61 41 102.5t103 41.5q61 0 102 -41t41 -103q0 -61 -41 -102t-102 -41q-62 0 -103 41t-41 102zM102 0v31l123 30v1311l-123 31v31h584v-31l-123 -31v-1311l123 -30v-31h-584zM440 1700q0 61 41 102.5t103 41.5q61 0 102 -41t41 -103q0 -61 -41 -102t-102 -41 q-62 0 -103 41t-41 102z" />
<glyph unicode="&#x408;" horiz-adv-x="1126" d="M0 195q0 70 42 111.5t112 41.5q16 0 32.5 -3t22.5 -3l27 -4v-307q14 -8 28 -11q35 -10 74 -10q246 0 246 400v962l-123 31v31h583v-31l-122 -31v-962q0 -213 -133.5 -327t-409.5 -114q-189 0 -284 65.5t-95 160.5z" />
<glyph unicode="&#x409;" horiz-adv-x="2048" d="M-20 154q0 78 47 126t116 48q16 0 33 -3t23 -3l26 -5v-286q68 20 116 123.5t58 357.5l41 850l-143 41v31h1055v-31l-123 -31v-512h133q340 0 487.5 -109.5t147.5 -320.5t-147.5 -320.5t-487.5 -109.5h-594v31l123 30v1321h-389l-41 -870q-16 -293 -90 -418t-187 -125 q-90 0 -147 52.5t-57 132.5zM1229 51h133q129 0 208 97.5t79 281.5t-79 281.5t-208 97.5h-133v-758z" />
<glyph unicode="&#x40a;" horiz-adv-x="2160" d="M102 0v31l123 30v1311l-123 31v31h584v-31l-123 -31v-553h441v553l-123 31v31h583v-31l-123 -31v-553h134q338 0 486 -106.5t148 -302.5q0 -197 -148.5 -303.5t-485.5 -106.5h-594v31l123 30v707h-441v-707l123 -30v-31h-584zM1341 51h134q127 0 206.5 93.5t79.5 265.5 t-79.5 265t-206.5 93h-134v-717z" />
<glyph unicode="&#x40b;" horiz-adv-x="1648" d="M51 1065v369h1055v-369h-62q-39 31 -67 78q-66 111 -66 239h-174v-553q27 14 72 31q100 31 195 31q250 0 370.5 -95.5t120.5 -263.5v-471l123 -30v-31h-584v31l123 30v471q0 166 -57.5 237t-177.5 71q-61 0 -131 -31l-54 -31v-717l123 -30v-31h-584v31l123 30v1321h-153 q0 -125 -68 -239q-29 -47 -65 -78h-62z" />
<glyph unicode="&#x40c;" horiz-adv-x="1454" d="M102 0v31l123 30v1311l-123 31v31h584v-31l-123 -31v-584h103q154 0 204 195l72 266q25 94 81 149.5t134 55.5q90 0 147.5 -52t57.5 -132q0 -78 -47 -126t-117 -48q-29 0 -57 4l-25 6v287q-35 -8 -65.5 -46t-46.5 -98l-72 -266q-31 -113 -82 -164q-23 -25 -51 -41h51 q250 0 307 -174l184 -543l103 -30v-31h-246q-109 0 -168 45t-88 129l-194 563h-185v-676l123 -30v-31h-584zM731 1536l82 308h266l-276 -308h-72z" />
<glyph unicode="&#x40d;" horiz-adv-x="1607" d="M102 0v31l123 30v1311l-123 31v31h584v-31l-123 -31v-1034l481 881v153l-122 31v31h583v-31l-123 -31v-1311l123 -30v-31h-583v31l122 30v1035l-481 -881v-154l123 -30v-31h-584zM505 1844h267l82 -308h-72z" />
<glyph unicode="&#x40e;" horiz-adv-x="1351" d="M-20 1403v31h266q100 0 163.5 -46.5t112.5 -127.5l346 -601l299 682l-153 62v31h379v-31l-164 -62l-461 -1054q-72 -168 -145.5 -243t-161.5 -75q-90 0 -147.5 52.5t-57.5 132.5q0 78 47 126t117 48q16 0 32.5 -3t22.5 -3l27 -5v-286q106 16 205 256l-625 1085zM430 1751 q0 53 35 88t88 35q4 0 47 -6l25 -4v-226q2 0 29.5 -10t82.5 -10t83 10t30 10v226l25 4q43 6 47 6q53 0 88 -35t35 -88q0 -76 -75 -125t-233 -49q-157 0 -232 49t-75 125z" />
<glyph unicode="&#x40f;" horiz-adv-x="1566" d="M102 0v31l123 30v1311l-123 31v31h584v-31l-123 -31v-1321h441v1321l-123 31v31h583v-31l-123 -31v-1311l123 -30v-31h-573q0 -127 -37 -246q-14 -47 -35 -92h-71q-21 39 -37 92q-35 113 -35 246h-574z" />
<glyph unicode="&#x410;" horiz-adv-x="1392" d="M-41 0v31l164 61l563 1362h62l583 -1393l103 -30v-31h-246q-106 0 -174 48t-101 126l-104 246h-490l-135 -328l154 -61v-31h-379zM340 471h448l-225 539z" />
<glyph unicode="&#x411;" horiz-adv-x="1372" d="M102 0v31l123 30v1311l-123 31v31h1086v-369h-62q-39 31 -67 78q-66 111 -66 239h-430v-542h113q338 0 486.5 -108.5t148.5 -311.5t-148.5 -311.5t-486.5 -108.5h-574zM563 51h113q129 0 208 95.5t79 273.5t-79 273t-208 95h-113v-737z" />
<glyph unicode="&#x412;" horiz-adv-x="1392" d="M102 0v31l123 30v1311l-123 31v31h553q311 0 458 -99.5t147 -259.5q0 -111 -63.5 -178.5t-162.5 -99.5q-104 -37 -225 -39v-10q150 -6 260 -46q113 -37 187.5 -114.5t74.5 -198.5q0 -182 -149.5 -285.5t-485.5 -103.5h-594zM563 51h133q127 0 207 90t80 248t-80 248 t-207 90h-133v-676zM563 778h92q68 0 126.5 38t94 106.5t35.5 152.5q0 90 -35.5 160t-94 108.5t-126.5 38.5h-92v-604z" />
<glyph unicode="&#x413;" horiz-adv-x="1249" d="M102 0v31l123 30v1311l-123 31v31h1096v-369h-61q-39 31 -68 78q-66 111 -65 239h-441v-1321l123 -30v-31h-584z" />
<glyph unicode="&#x414;" horiz-adv-x="1433" d="M-20 51h163q49 37 101 107q104 150 114 354l41 850l-143 41v31h1075v-31l-123 -31v-1321h195v-399h-62q-49 35 -88 90q-86 119 -86 258h-952q0 -137 -88 -258q-39 -55 -86 -90h-61v399zM215 51h655v1331h-409l-41 -870q-10 -207 -109 -354q-45 -68 -96 -107z" />
<glyph unicode="&#x415;" horiz-adv-x="1320" d="M102 0v31l123 30v1311l-123 31v31h1096v-369h-61q-39 31 -68 78q-66 111 -65 239h-441v-645h236q14 78 53 146q16 31 39 59h61v-461h-61q-23 29 -39 60q-39 68 -53 145h-236v-635h481q0 129 66 240q29 47 68 78h61v-369h-1137z" />
<glyph unicode="&#x416;" horiz-adv-x="2099" d="M10 0v31l103 30l184 543q57 174 307 174h49q-6 0 -30.5 21.5t-53 67.5t-47.5 116l-71 266q-16 59 -47 97t-66 47v-287l-27 -6q-33 -4 -55 -4q-70 0 -117 48t-47 126q0 80 57.5 132t147.5 52q78 0 134 -55.5t81 -149.5l72 -266q51 -195 204 -195h93v584l-123 31v31h583 v-31l-122 -31v-584h92q154 0 205 195l71 266q25 94 81 149.5t134 55.5q90 0 147.5 -52t57.5 -132q0 -78 -47 -126t-117 -48q-29 0 -57 4l-25 6v287q-35 -8 -65.5 -46t-46.5 -98l-72 -266q-31 -113 -82 -164q-23 -25 -51 -41h51q250 0 307 -174l185 -543l102 -30v-31h-246 q-109 0 -168 45t-88 129l-194 563h-174v-676l122 -30v-31h-583v31l123 30v676h-174l-195 -563q-29 -84 -88 -129t-168 -45h-246z" />
<glyph unicode="&#x417;" horiz-adv-x="1259" d="M51 410h51q0 -102 56.5 -191.5t153 -144t210.5 -54.5q156 0 242 90.5t86 258.5q0 172 -80 265t-207 93h-153v51h133q113 0 179 81t66 237t-65.5 236.5t-169.5 80.5q-90 0 -160.5 -51t-118.5 -129q-51 -80 -79 -178h-82v389h51q4 -2 41 -29q37 -31 71 -84q45 41 91 66 q115 68 227 67q172 0 295 -52t185.5 -136t62.5 -180q0 -209 -226 -295q-98 -37 -225 -43v-10q139 -6 256 -48q256 -100 256 -331q0 -113 -66.5 -203t-209 -143.5t-359.5 -53.5q-147 0 -265 60.5t-182.5 161t-64.5 219.5z" />
<glyph unicode="&#x418;" horiz-adv-x="1607" d="M102 0v31l123 30v1311l-123 31v31h584v-31l-123 -31v-1034l481 881v153l-122 31v31h583v-31l-123 -31v-1311l123 -30v-31h-583v31l122 30v1035l-481 -881v-154l123 -30v-31h-584z" />
<glyph unicode="&#x419;" horiz-adv-x="1607" d="M102 0v31l123 30v1311l-123 31v31h584v-31l-123 -31v-1034l481 881v153l-122 31v31h583v-31l-123 -31v-1311l123 -30v-31h-583v31l122 30v1035l-481 -881v-154l123 -30v-31h-584zM492 1751q0 53 34.5 88t87.5 35q4 0 48 -6l24 -4v-226q2 0 29.5 -10t83.5 -10 q55 0 82.5 10t29.5 10v226l25 4q43 6 47 6q53 0 88 -35t35 -88q0 -76 -75 -125t-232 -49q-158 0 -232.5 49t-74.5 125z" />
<glyph unicode="&#x41a;" horiz-adv-x="1454" d="M102 0v31l123 30v1311l-123 31v31h584v-31l-123 -31v-584h103q154 0 204 195l72 266q25 94 81 149.5t134 55.5q90 0 147.5 -52t57.5 -132q0 -78 -47 -126t-117 -48q-29 0 -57 4l-25 6v287q-35 -8 -65.5 -46t-46.5 -98l-72 -266q-31 -113 -82 -164q-23 -25 -51 -41h51 q250 0 307 -174l184 -543l103 -30v-31h-246q-109 0 -168 45t-88 129l-194 563h-185v-676l123 -30v-31h-584z" />
<glyph unicode="&#x41b;" horiz-adv-x="1454" d="M-20 154q0 78 47 126t116 48q16 0 33 -3t23 -3l26 -5v-286q68 20 116 123.5t58 357.5l41 850l-143 41v31h1055v-31l-123 -31v-1311l123 -30v-31h-584v31l123 30v1321h-389l-41 -870q-16 -293 -90 -418t-187 -125q-90 0 -147 52.5t-57 132.5z" />
<glyph unicode="&#x41c;" horiz-adv-x="2017" d="M61 0v31l164 61v1280l-143 31v31h276q106 0 169 -44t108 -130l446 -854l342 854q35 90 94.5 132t182.5 42h215v-31l-123 -31v-1311l123 -30v-31h-584v31l123 30v1117l-481 -1198h-62l-624 1198v-1086l164 -61v-31h-390z" />
<glyph unicode="&#x41d;" horiz-adv-x="1566" d="M102 0v31l123 30v1311l-123 31v31h584v-31l-123 -31v-635h441v635l-123 31v31h583v-31l-123 -31v-1311l123 -30v-31h-583v31l123 30v625h-441v-625l123 -30v-31h-584z" />
<glyph unicode="&#x41e;" horiz-adv-x="1515" d="M92 717q0 238 82 405.5t232.5 254.5t351.5 87t351.5 -87t232 -255t81.5 -405q0 -238 -81.5 -406t-232.5 -255t-351 -87q-201 0 -351.5 87t-232.5 255t-82 406zM451 717q0 -256 45 -414t113.5 -225.5t148.5 -67.5t148.5 67.5t113.5 225.5t45 414t-45 413.5t-113.5 225 t-148.5 67.5t-148.5 -67.5t-113.5 -225t-45 -413.5z" />
<glyph unicode="&#x41f;" horiz-adv-x="1566" d="M102 0v31l123 30v1311l-123 31v31h1362v-31l-123 -31v-1311l123 -30v-31h-583v31l123 30v1321h-441v-1321l123 -30v-31h-584z" />
<glyph unicode="&#x420;" horiz-adv-x="1382" d="M102 0v31l123 30v1311l-123 31v31h574q340 0 487.5 -112t147.5 -329t-147.5 -328.5t-487.5 -111.5h-113v-492l123 -30v-31h-584zM563 604h113q129 0 208 98.5t79 290.5q0 190 -79 289.5t-208 99.5h-113v-778z" />
<glyph unicode="&#x421;" horiz-adv-x="1331" d="M92 717q0 236 81 404.5t227.5 255.5t338.5 87q117 0 236 -67q45 -25 90 -66q35 53 72 84q37 27 41 29h51v-389h-82q-27 98 -80 178q-49 78 -122 129t-167 51q-141 0 -234 -164t-93 -532q0 -375 101 -536t277 -161q96 0 183.5 54.5t141.5 144.5t54 191h52 q0 -117 -62.5 -218.5t-170 -162t-239.5 -60.5q-327 0 -511.5 194.5t-184.5 553.5z" />
<glyph unicode="&#x422;" horiz-adv-x="1300" d="M51 1065v369h1198v-369h-61q-39 31 -68 78q-66 111 -65 239h-236v-1321l123 -30v-31h-584v31l123 30v1321h-235q0 -125 -68 -239q-29 -47 -65 -78h-62z" />
<glyph unicode="&#x423;" horiz-adv-x="1351" d="M-20 1403v31h266q100 0 163.5 -46.5t112.5 -127.5l346 -601l299 682l-153 62v31h379v-31l-164 -62l-461 -1054q-72 -168 -145.5 -243t-161.5 -75q-90 0 -147.5 52.5t-57.5 132.5q0 78 47 126t117 48q16 0 32.5 -3t22.5 -3l27 -5v-286q106 16 205 256l-625 1085z" />
<glyph unicode="&#x424;" horiz-adv-x="1832" d="M41 737q0 152 82 276t241.5 200.5t383.5 86.5v103l-123 31v30h583v-30l-123 -31v-103q223 -10 383 -86.5t242 -200.5t82 -276t-82 -275.5t-241.5 -200.5t-383.5 -87v-113l123 -30v-31h-583v31l123 30v113q-223 10 -383 87t-242 201t-82 275zM399 737q0 -240 99.5 -372 t249.5 -150v1045q-150 -18 -249.5 -150.5t-99.5 -372.5zM1085 215q150 18 249.5 150.5t99.5 371.5q0 240 -99.5 372t-249.5 151v-1045z" />
<glyph unicode="&#x425;" horiz-adv-x="1361" d="M-10 1403v31h297q102 0 162.5 -43t113.5 -131l197 -336l284 417l-153 62v31h389v-31l-164 -62l-321 -473l475 -807l102 -30v-31h-297q-100 0 -161.5 43t-114.5 131l-221 375l-312 -457l154 -61v-31h-389v31l164 61l348 514l-451 766z" />
<glyph unicode="&#x426;" horiz-adv-x="1566" d="M102 0v31l123 30v1311l-123 31v31h584v-31l-123 -31v-1321h441v1321l-123 31v31h583v-31l-123 -31v-1321h195v-399h-61q-50 35 -89 90q-86 119 -86 258h-1198z" />
<glyph unicode="&#x427;" horiz-adv-x="1484" d="M41 1403v31h584v-31l-123 -31v-471q0 -166 57 -236.5t178 -70.5q70 0 131 31q31 14 54 30v717l-123 31v31h583v-31l-122 -31v-1311l122 -30v-31h-583v31l123 30v543q-37 -20 -72 -31q-88 -31 -195 -30q-252 0 -371.5 94t-119.5 264v471z" />
<glyph unicode="&#x428;" horiz-adv-x="2222" d="M102 0v31l123 30v1311l-123 31v31h584v-31l-123 -31v-1321h379v1321l-123 31v31h584v-31l-123 -31v-1321h379v1321l-123 31v31h584v-31l-123 -31v-1311l123 -30v-31h-2018z" />
<glyph unicode="&#x429;" horiz-adv-x="2222" d="M102 0v31l123 30v1311l-123 31v31h584v-31l-123 -31v-1321h379v1321l-123 31v31h584v-31l-123 -31v-1321h379v1321l-123 31v31h584v-31l-123 -31v-1321h194v-399h-61q-49 35 -88 90q-86 119 -86 258h-1854z" />
<glyph unicode="&#x42a;" horiz-adv-x="1546" d="M51 1065v369h819v-31l-122 -31v-512h112q340 0 487.5 -109.5t147.5 -320.5t-147.5 -320.5t-487.5 -109.5h-573v31l123 30v1321h-164q0 -125 -68 -239q-29 -47 -65 -78h-62zM748 51h112q129 0 208 97.5t79 281.5t-79 281.5t-208 97.5h-112v-758z" />
<glyph unicode="&#x42b;" horiz-adv-x="2078" d="M102 0v31l123 30v1311l-123 31v31h584v-31l-123 -31v-512h133q340 0 487.5 -109.5t147.5 -320.5t-147.5 -320.5t-487.5 -109.5h-594zM563 51h133q129 0 208 97.5t79 281.5t-79 281.5t-208 97.5h-133v-758zM1393 0v31l123 30v1311l-123 31v31h583v-31l-123 -31v-1311 l123 -30v-31h-583z" />
<glyph unicode="&#x42c;" horiz-adv-x="1382" d="M102 0v31l123 30v1311l-123 31v31h584v-31l-123 -31v-512h133q340 0 487.5 -109.5t147.5 -320.5t-147.5 -320.5t-487.5 -109.5h-594zM563 51h133q129 0 208 97.5t79 281.5t-79 281.5t-208 97.5h-133v-758z" />
<glyph unicode="&#x42d;" horiz-adv-x="1331" d="M72 410h51q0 -100 54 -190.5t141.5 -145t183.5 -54.5q174 0 272 151t107 515h-267q-14 -78 -53 -145q-16 -31 -39 -60h-61v461h61q23 -29 39 -59q39 -68 53 -146h267q0 242 -46.5 393.5t-120 217t-161.5 65.5q-174 0 -289 -180q-51 -80 -80 -178h-82v389h52q4 -2 41 -29 q37 -31 71 -84q45 41 90 66q119 68 236 67q193 0 339 -87t227 -256t81 -404q0 -358 -184.5 -553t-511.5 -195q-131 0 -238.5 60.5t-170 162t-62.5 218.5z" />
<glyph unicode="&#x42e;" horiz-adv-x="2078" d="M102 0v31l123 30v1311l-123 31v31h584v-31l-123 -31v-635h174q4 231 84 395t219.5 248t321.5 84q180 0 322.5 -88t222.5 -256t80 -403q0 -236 -80 -404t-222.5 -256t-322.5 -88q-176 0 -316.5 84t-222.5 246t-86 387h-174v-625l123 -30v-31h-584zM1096 717 q0 -385 77.5 -546t188.5 -161t188.5 161t77.5 546t-77.5 545.5t-188.5 160.5t-188.5 -160.5t-77.5 -545.5z" />
<glyph unicode="&#x42f;" horiz-adv-x="1443" d="M10 0v31l103 30l184 410q53 119 188 162q55 18 129 22v11q-129 2 -235 45q-102 37 -169 116.5t-67 206.5q0 190 153 295t503 105h542v-31l-122 -31v-1311l122 -30v-31h-604v31l144 30v574h-144l-205 -461q-78 -174 -245 -174h-277zM492 1034q0 -168 81.5 -258t225.5 -90 h82v696h-82q-143 0 -225 -90t-82 -258z" />
<glyph unicode="&#x430;" horiz-adv-x="1239" d="M102 246q0 80 35 157q14 37 37 68q84 20 182 37q221 37 392 45v61q0 227 -55.5 313.5t-170.5 86.5q-43 0 -73 -10l-29 -11v-307l-27 -6q-33 -4 -55 -4q-70 0 -112 42t-42 111q0 94 95.5 160t283.5 66q160 0 275.5 -56.5t176 -156t60.5 -228.5v-553l123 -30v-31h-184 q-123 0 -191 76q-29 31 -45 78q-29 -51 -67 -93q-92 -92 -230 -92q-182 0 -280.5 78t-98.5 199zM440 266q0 -115 35 -170t88 -55q76 0 137 82q23 31 48 82v297q-94 0 -181 -10q-63 -8 -86 -11q-10 -23 -20 -61q-20 -78 -21 -154z" />
<glyph unicode="&#x431;" horiz-adv-x="1228" d="M102 492v122q0 365 118 532t343 206l471 82l31 102h31v-184q0 -90 -43 -139.5t-131 -65.5l-471 -82q-70 -12 -133.5 -66.5t-103.5 -151.5t-40 -233q20 74 82.5 148t158 122t210.5 48q254 0 388 -128t134 -353t-134 -353.5t-388 -128.5q-256 0 -389.5 133.5t-133.5 389.5z M451 451q0 -240 50 -340.5t124 -100.5q73 0 123.5 100.5t50.5 340.5t-50.5 340t-123.5 100q-74 0 -124 -100.5t-50 -339.5z" />
<glyph unicode="&#x432;" horiz-adv-x="1239" d="M82 0v31l123 30v902l-123 30v31h522q178 0 294 -37t167 -95t51 -124q0 -82 -52 -133t-132 -74q-86 -27 -184 -29v-10q121 -2 215 -30q94 -31 154.5 -81.5t60.5 -134.5q0 -121 -126 -198.5t-407 -77.5h-563zM532 51h113q88 0 141.5 59.5t53.5 165.5t-53.5 166t-141.5 60 h-113v-451zM532 553h72q72 0 123 59.5t51 155.5q0 90 -51 147.5t-123 57.5h-72v-420z" />
<glyph unicode="&#x433;" horiz-adv-x="1085" d="M82 0v31l123 30v902l-123 30v31h952v-358h-61q-39 35 -68 79q-66 111 -65 228h-308v-912l123 -30v-31h-573z" />
<glyph unicode="&#x434;" horiz-adv-x="1259" d="M-20 51h163q33 23 72 72q72 90 82 225l41 604l-143 41v31h972v-31l-123 -30v-912h185v-389h-62q-53 35 -88 84q-86 111 -86 254h-778q0 -141 -88 -254q-35 -49 -86 -84h-61v389zM215 51h502v922h-318l-41 -625q-10 -129 -77 -225q-31 -43 -66 -72z" />
<glyph unicode="&#x435;" d="M82 512q0 166 63.5 289t177 188.5t261.5 65.5q147 0 258.5 -55.5t172 -148.5t60.5 -206q0 -51 -10 -88l-10 -35q-88 -18 -191 -30q-215 -31 -434 -31q0 -238 65.5 -339.5t180.5 -101.5q80 0 148.5 38t108.5 100.5t40 128.5h51q0 -82 -49 -156t-137 -118t-203 -44 q-262 0 -407.5 144.5t-145.5 398.5zM430 512q131 0 213 10q35 2 74 10q2 10 10 46q10 51 10 108q0 170 -45 249t-108 79q-154 0 -154 -502z" />
<glyph unicode="&#x436;" horiz-adv-x="1802" d="M10 0v31l103 30l102 318q29 78 97.5 126t189.5 48h61q-29 12 -45 29q-51 47 -67 114l-52 185q-20 86 -82 102v-276l-26 -7q-33 -4 -55 -4q-70 0 -112 43t-42 121q0 86 51 135t143 49q135 0 185 -163l51 -185q18 -59 57 -96t97 -37h71v400l-123 30v31h574v-31l-123 -30 v-400h61q59 0 102.5 38t61.5 95l51 185q49 164 185 163q92 0 143 -49t51 -135q0 -78 -42 -121t-111 -43q-29 0 -58 4l-24 7v276q-61 -16 -82 -102l-51 -185q-20 -72 -68 -114q-16 -16 -45 -29h61q121 0 190 -48t97 -126l103 -318l102 -30v-31h-215q-109 0 -175.5 49 t-90.5 125l-113 338h-133v-451l123 -30v-31h-574v31l123 30v451h-133l-112 -338q-25 -76 -91.5 -125t-175.5 -49h-215z" />
<glyph unicode="&#x437;" horiz-adv-x="1085" d="M61 287h52q0 -68 43 -129.5t119.5 -99.5t175.5 -38q236 0 235 246q0 119 -53 182.5t-141 63.5h-134v51h93q88 0 141 59.5t53 165.5t-53 166t-141 60q-51 0 -89 -10l-34 -11v-307l-27 -6q-33 -4 -55 -4q-70 0 -112 42t-42 111q0 94 99.5 160t300.5 66q170 0 280.5 -37 t160.5 -97.5t50 -132.5q0 -86 -52 -135t-138 -80q-84 -29 -189 -30v-11q109 -2 209 -32q92 -29 151.5 -85.5t59.5 -148.5q0 -135 -125 -216t-407 -81q-134 0 -231 44t-148.5 117t-51.5 157z" />
<glyph unicode="&#x438;" horiz-adv-x="1392" d="M82 0v31l123 30v902l-123 30v31h573v-31l-123 -30v-676l328 563v113l-123 30v31h574v-31l-123 -30v-902l123 -30v-31h-574v31l123 30v676l-328 -563v-113l123 -30v-31h-573z" />
<glyph unicode="&#x439;" horiz-adv-x="1392" d="M82 0v31l123 30v902l-123 30v31h573v-31l-123 -30v-676l328 563v113l-123 30v31h574v-31l-123 -30v-902l123 -30v-31h-574v31l123 30v676l-328 -563v-113l123 -30v-31h-573zM389 1341q0 53 35 88t88 35q4 0 47 -6l25 -4v-225q2 0 29.5 -10.5t82.5 -10.5t83 10.5t30 10.5 v225l25 4q43 6 47 6q53 0 88 -34.5t35 -88.5q0 -76 -75 -125t-233 -49q-157 0 -232 49.5t-75 124.5z" />
<glyph unicode="&#x43a;" horiz-adv-x="1280" d="M82 0v31l123 30v902l-123 30v31h573v-31l-123 -30v-400h72q59 0 102.5 38t61.5 95l51 185q49 164 185 163q92 0 143 -49t51 -135q0 -78 -42 -121t-112 -43q-29 0 -57 4l-24 7v276q-61 -16 -82 -102l-52 -185q-20 -72 -67 -114q-16 -16 -45 -29h61q121 0 189.5 -48 t97.5 -126l102 -318l103 -30v-31h-215q-109 0 -175.5 49t-91.5 125l-112 338h-144v-451l123 -30v-31h-573z" />
<glyph unicode="&#x43b;" horiz-adv-x="1280" d="M-20 154q0 68 46 115.5t107 47.5q16 0 32.5 -3t22.5 -3l27 -4v-276q49 23 86 90t47 227l41 604l-143 41v31h952v-31l-123 -30v-902l123 -30v-31h-573v31l123 30v912h-297l-41 -625q-12 -195 -78 -287t-158 -92t-143 49.5t-51 135.5z" />
<glyph unicode="&#x43c;" horiz-adv-x="1658" d="M41 0v31l164 61v871l-144 30v31h277q100 0 161.5 -43t104.5 -121l279 -493l223 493q39 82 98.5 123t167.5 41h205v-31l-123 -30v-902l123 -30v-31h-573v31l122 30v717l-360 -798h-49l-451 798v-686l164 -61v-31h-389z" />
<glyph unicode="&#x43d;" horiz-adv-x="1372" d="M82 0v31l123 30v902l-123 30v31h573v-31l-123 -30v-420h308v420l-123 30v31h573v-31l-123 -30v-902l123 -30v-31h-573v31l123 30v431h-308v-431l123 -30v-31h-573z" />
<glyph unicode="&#x43e;" horiz-adv-x="1249" d="M82 512q0 254 144.5 398.5t398.5 144.5t398 -144.5t144 -398.5t-144 -398.5t-398 -144.5t-398.5 144.5t-144.5 398.5zM430 512q0 -272 56.5 -387t138.5 -115t138 115t56 387t-56 387t-138 115t-138.5 -115t-56.5 -387z" />
<glyph unicode="&#x43f;" horiz-adv-x="1372" d="M82 0v31l123 30v902l-123 30v31h1208v-31l-123 -30v-902l123 -30v-31h-573v31l123 30v912h-308v-912l123 -30v-31h-573z" />
<glyph unicode="&#x440;" horiz-adv-x="1280" d="M61 -379l123 31v1311l-123 30v31h185q121 0 190 -78q27 -31 45 -76q27 53 68 93q92 92 229 92q121 0 215 -62.5t149.5 -184.5t55.5 -296q0 -262 -122 -402.5t-328 -140.5q-98 0 -173 41q-31 14 -63 41v-399l123 -31v-31h-574v31zM512 113q29 -29 45 -41q55 -41 109 -41 q88 0 136 102.5t48 378.5q0 264 -44 367.5t-110 103.5q-78 0 -139 -82q-27 -35 -45 -82v-706z" />
<glyph unicode="&#x441;" horiz-adv-x="1085" d="M82 512q0 254 145.5 398.5t407.5 144.5q188 0 283.5 -65.5t95.5 -160.5q0 -70 -42 -111.5t-112 -41.5q-29 0 -57 4l-25 6v307l-28 11q-31 10 -74 10q-117 0 -181.5 -110.5t-64.5 -391.5q0 -272 64.5 -382t181.5 -110q80 0 148.5 38t108.5 100.5t40 128.5h51 q0 -82 -49 -156t-137 -118t-203 -44q-262 0 -407.5 144.5t-145.5 398.5z" />
<glyph unicode="&#x442;" horiz-adv-x="1126" d="M51 666v358h1024v-358h-61q-39 35 -68 79q-66 111 -65 228h-154v-912l123 -30v-31h-574v31l123 30v912h-153q0 -113 -68 -228q-27 -43 -65 -79h-62z" />
<glyph unicode="&#x443;" d="M-41 993v31h256q106 0 168.5 -44t108.5 -130l256 -473l215 555l-154 61v31h379v-31l-164 -61l-410 -1055q-66 -168 -139.5 -242.5t-167.5 -74.5q-92 0 -143 49t-51 135q0 78 42 121t111 43q16 0 32.5 -3t23.5 -3l26 -4v-277q59 10 104.5 65.5t100.5 190.5l41 103 l-533 983z" />
<glyph unicode="&#x444;" horiz-adv-x="1658" d="M61 512q0 143 73 261t210 187.5t322 73.5v338l-123 31v31h266q184 0 184 -185v-215q184 -4 321.5 -73.5t210 -187.5t72.5 -261t-72.5 -261t-209.5 -187.5t-322 -73.5v-338l123 -31v-31h-573v31l123 31v338q-184 4 -321.5 73.5t-210.5 187.5t-73 261zM410 512 q0 -244 71.5 -358.5t184.5 -122.5v962q-113 -8 -184.5 -122.5t-71.5 -358.5zM993 31q113 8 184.5 122.5t71.5 358.5t-71.5 358.5t-184.5 122.5v-962z" />
<glyph unicode="&#x445;" horiz-adv-x="1136" d="M-10 993v31h276q98 0 159.5 -44t117.5 -130l104 -166l193 248l-154 61v31h389v-31l-164 -61l-233 -297l366 -574l103 -30v-31h-277q-98 0 -159.5 43t-116.5 131l-123 193l-215 -275l154 -61v-31h-390v31l164 61l254 326l-346 545z" />
<glyph unicode="&#x446;" horiz-adv-x="1382" d="M82 0v31l123 30v902l-123 30v31h573v-31l-123 -30v-912h308v912l-123 30v31h573v-31l-123 -30v-912h185v-389h-62q-53 35 -88 84q-86 111 -86 254h-1034z" />
<glyph unicode="&#x447;" horiz-adv-x="1300" d="M31 993v31h573v-31l-123 -30v-297q0 -133 40 -189.5t114 -56.5q82 0 133 51v492l-123 30v31h574v-31l-123 -30v-902l123 -30v-31h-574v31l123 30v359q-41 -25 -99.5 -38t-115.5 -13q-201 0 -300 79.5t-99 217.5v297z" />
<glyph unicode="&#x448;" horiz-adv-x="1925" d="M82 0v31l123 30v902l-123 30v31h563v-31l-113 -30v-912h267v912l-113 30v31h553v-31l-113 -30v-912h267v912l-113 30v31h563v-31l-123 -30v-902l123 -30v-31h-1761z" />
<glyph unicode="&#x449;" horiz-adv-x="1935" d="M82 0v31l123 30v902l-123 30v31h563v-31l-113 -30v-912h267v912l-113 30v31h553v-31l-113 -30v-912h267v912l-113 30v31h563v-31l-123 -30v-912h185v-389h-62q-53 35 -88 84q-86 111 -86 254h-1587z" />
<glyph unicode="&#x44a;" horiz-adv-x="1372" d="M51 666v358h789v-31l-123 -30v-349h82q532 0 532 -307t-532 -307h-533v31l123 30v912h-143q0 -113 -68 -228q-27 -43 -65 -79h-62zM717 51h82q90 0 142 64.5t52 191.5t-52 191.5t-142 64.5h-82v-512z" />
<glyph unicode="&#x44b;" horiz-adv-x="1863" d="M82 0v31l123 30v902l-123 30v31h573v-31l-123 -30v-349h103q532 0 532 -307t-532 -307h-553zM532 51h103q90 0 142 64.5t52 191.5t-52 191.5t-142 64.5h-103v-512zM1208 0v31l123 30v902l-123 30v31h574v-31l-123 -30v-902l123 -30v-31h-574z" />
<glyph unicode="&#x44c;" horiz-adv-x="1208" d="M82 0v31l123 30v902l-123 30v31h573v-31l-123 -30v-349h103q532 0 532 -307t-532 -307h-553zM532 51h103q90 0 142 64.5t52 191.5t-52 191.5t-142 64.5h-103v-512z" />
<glyph unicode="&#x44d;" horiz-adv-x="1085" d="M61 287h52q0 -66 40 -128.5t108.5 -100.5t148.5 -38q111 0 174 99.5t71 351.5h-153q-12 -45 -49 -109q-10 -16 -18.5 -26t-14.5 -19h-51v359h51l33 -47q39 -63 49 -107h153q0 272 -64.5 382t-180.5 110q-43 0 -74 -10l-29 -11v-307l-26 -6q-33 -4 -56 -4q-70 0 -111.5 42 t-41.5 111q0 94 95 160t284 66q260 0 406.5 -144.5t146.5 -398.5t-146.5 -398.5t-406.5 -144.5q-115 0 -203 44t-137.5 118t-49.5 156z" />
<glyph unicode="&#x44e;" horiz-adv-x="1812" d="M82 0v31l123 30v902l-123 30v31h573v-31l-123 -30v-420h154q4 158 70.5 273.5t182.5 177t269 61.5q158 0 276 -65.5t182.5 -187.5t64.5 -290t-64.5 -290t-182.5 -187.5t-276 -65.5q-231 0 -372.5 139.5t-149.5 383.5h-154v-431l123 -30v-31h-573zM1034 512 q0 -279 50.5 -390.5t123.5 -111.5q74 0 124 111.5t50 390.5t-50 390.5t-124 111.5t-124 -111.5t-50 -390.5z" />
<glyph unicode="&#x44f;" horiz-adv-x="1290" d="M10 0v31l103 30l82 246q33 98 174 144q57 16 133 20v10q-94 2 -185 33q-184 66 -184 223q0 127 126 207t407 80h542v-31l-123 -30v-902l123 -30v-31h-573v31l123 30v390h-164l-92 -287q-23 -68 -87.5 -116t-158.5 -48h-246zM471 737q0 -115 53.5 -175t141.5 -60h92v471 h-92q-88 0 -141.5 -60.5t-53.5 -175.5z" />
<glyph unicode="&#x450;" d="M82 512q0 166 63.5 289t177 188.5t261.5 65.5q147 0 258.5 -55.5t172 -148.5t60.5 -206q0 -51 -10 -88l-10 -35q-88 -18 -191 -30q-215 -31 -434 -31q0 -238 65.5 -339.5t180.5 -101.5q80 0 148.5 38t108.5 100.5t40 128.5h51q0 -82 -49 -156t-137 -118t-203 -44 q-262 0 -407.5 144.5t-145.5 398.5zM274 1434h267l82 -308h-72zM430 512q131 0 213 10q35 2 74 10q2 10 10 46q10 51 10 108q0 170 -45 249t-108 79q-154 0 -154 -502z" />
<glyph unicode="&#x451;" d="M82 512q0 166 63.5 289t177 188.5t261.5 65.5q147 0 258.5 -55.5t172 -148.5t60.5 -206q0 -51 -10 -88l-10 -35q-88 -18 -191 -30q-215 -31 -434 -31q0 -238 65.5 -339.5t180.5 -101.5q80 0 148.5 38t108.5 100.5t40 128.5h51q0 -82 -49 -156t-137 -118t-203 -44 q-262 0 -407.5 144.5t-145.5 398.5zM246 1331q0 61 41 102.5t102 41.5t102 -41t41 -103q0 -61 -40.5 -102t-102.5 -41q-61 0 -102 41t-41 102zM430 512q131 0 213 10q35 2 74 10q2 10 10 46q10 51 10 108q0 170 -45 249t-108 79q-154 0 -154 -502zM625 1331q0 61 41 102.5 t102 41.5t102 -41t41 -103q0 -61 -41 -102t-102 -41t-102 41t-41 102z" />
<glyph unicode="&#x452;" horiz-adv-x="1341" d="M72 1116v51h133v205l-123 31v31h266q184 0 184 -185v-82h256v-51h-256v-256q31 41 64 66q88 68 203 67q115 0 206 -48t142 -126t51 -164v-471q0 -117 -102.5 -181t-347.5 -64v41q51 0 86.5 51t35.5 153v471q0 129 -46 198t-107 69q-78 0 -139 -82q-27 -35 -46 -82v-697 l123 -30v-31h-573v31l123 30v1055h-133z" />
<glyph unicode="&#x453;" horiz-adv-x="1085" d="M82 0v31l123 30v902l-123 30v31h952v-358h-61q-39 35 -68 79q-66 111 -65 228h-308v-912l123 -30v-31h-573zM608 1126l82 308h266l-276 -308h-72z" />
<glyph unicode="&#x454;" horiz-adv-x="1085" d="M82 512q0 254 145.5 398.5t407.5 144.5q188 0 283.5 -65.5t95.5 -160.5q0 -70 -42 -111.5t-112 -41.5q-29 0 -57 4l-25 6v307l-28 11q-31 10 -74 10q-117 0 -181.5 -109.5t-64.5 -382.5h154q10 43 49 107l33 47h51v-359h-51q-6 8 -14.5 18.5t-18.5 26.5q-37 63 -49 109 h-154q8 -252 71.5 -351.5t174.5 -99.5q80 0 148.5 38t108.5 100.5t40 128.5h51q0 -82 -49 -156t-137 -118t-203 -44q-262 0 -407.5 144.5t-145.5 398.5z" />
<glyph unicode="&#x455;" horiz-adv-x="1105" d="M92 -10v348h82q27 -86 78 -160q109 -158 270 -158q86 0 130 42t44 122q0 68 -60.5 114t-189.5 114q-111 55 -179 99t-116.5 110.5t-48.5 156.5q0 123 105.5 200t324.5 77q109 0 201 -58q45 -27 78 -55q27 37 72 70q35 20 41 22h51v-348h-82q-31 88 -76 158 q-102 160 -244 160q-55 0 -94 -41t-39 -103q0 -78 65.5 -130t199.5 -120q109 -55 173 -97t110 -103.5t46 -143.5q0 -297 -471 -297q-127 1 -227 56q-49 27 -80 57q-33 -45 -72 -70q-18 -12 -41 -22h-51z" />
<glyph unicode="&#x456;" horiz-adv-x="696" d="M82 0v31l123 30v902l-123 30v31h266q184 0 184 -184v-779l123 -30v-31h-573zM195 1280q0 70 52 122t122 52t122 -52t52 -122t-52.5 -122t-121.5 -52q-70 0 -122 52t-52 122z" />
<glyph unicode="&#x457;" horiz-adv-x="696" d="M14 1290q0 61 41 102.5t103 41.5q61 0 102 -41t41 -103q0 -61 -41 -102t-102 -41q-62 0 -103 41t-41 102zM82 0v31l123 30v902l-123 30v31h266q184 0 184 -184v-779l123 -30v-31h-573zM393 1290q0 61 41 102.5t103 41.5q61 0 102 -41t41 -103q0 -61 -41 -102t-102 -41 q-62 0 -103 41t-41 102z" />
<glyph unicode="&#x458;" horiz-adv-x="675" d="M-225 -246q0 70 42 112t111 42q16 0 32.5 -3t23.5 -3l26 -4v-287l13 -6q20 -4 28 -4q63 0 103.5 76.5t40.5 261.5v1024l-123 30v31h266q184 0 184 -184v-901q0 -109 -53 -195t-155.5 -135t-241.5 -49q-154 0 -225.5 51t-71.5 143zM184 1280q0 70 52.5 122t121.5 52 q70 0 122 -52t52 -122t-52 -122t-122 -52q-69 0 -121.5 52t-52.5 122z" />
<glyph unicode="&#x459;" horiz-adv-x="1751" d="M-20 154q0 68 46 115.5t107 47.5q16 0 32.5 -3t22.5 -3l27 -4v-276q49 23 86 90t47 227l41 604l-143 41v31h952v-31l-123 -30v-349h103q532 0 532 -307t-532 -307h-553v31l123 30v912h-297l-41 -625q-12 -195 -78 -287t-158 -92t-143 49.5t-51 135.5zM1075 51h103 q90 0 142 64.5t52 191.5t-52 191.5t-142 64.5h-103v-512z" />
<glyph unicode="&#x45a;" horiz-adv-x="1843" d="M82 0v31l123 30v902l-123 30v31h573v-31l-123 -30v-379h308v379l-123 30v31h573v-31l-123 -30v-369h103q283 0 407.5 -81t124.5 -216t-125 -216t-407 -81h-553v31l123 30v471h-308v-471l123 -30v-31h-573zM1167 51h103q88 0 141 63.5t53 182.5t-53 182.5t-141 63.5h-103 v-492z" />
<glyph unicode="&#x45b;" horiz-adv-x="1361" d="M72 1116v51h133v205l-123 31v31h266q184 0 184 -185v-82h256v-51h-256v-256q31 41 64 66q88 68 203 67q115 0 206 -48t142 -126t51 -164v-594l123 -30v-31h-266q-184 0 -185 184v471q0 129 -46 198t-107 69q-78 0 -139 -82q-27 -35 -46 -82v-697l123 -30v-31h-573v31 l123 30v1055h-133z" />
<glyph unicode="&#x45c;" horiz-adv-x="1280" d="M82 0v31l123 30v902l-123 30v31h573v-31l-123 -30v-400h72q59 0 102.5 38t61.5 95l51 185q49 164 185 163q92 0 143 -49t51 -135q0 -78 -42 -121t-112 -43q-29 0 -57 4l-24 7v276q-61 -16 -82 -102l-52 -185q-20 -72 -67 -114q-16 -16 -45 -29h61q121 0 189.5 -48 t97.5 -126l102 -318l103 -30v-31h-215q-109 0 -175.5 49t-91.5 125l-112 338h-144v-451l123 -30v-31h-573zM666 1126l82 308h266l-276 -308h-72z" />
<glyph unicode="&#x45d;" horiz-adv-x="1392" d="M82 0v31l123 30v902l-123 30v31h573v-31l-123 -30v-676l328 563v113l-123 30v31h574v-31l-123 -30v-902l123 -30v-31h-574v31l123 30v676l-328 -563v-113l123 -30v-31h-573zM397 1434h267l82 -308h-72z" />
<glyph unicode="&#x45e;" d="M-41 993v31h256q106 0 168.5 -44t108.5 -130l256 -473l215 555l-154 61v31h379v-31l-164 -61l-410 -1055q-66 -168 -139.5 -242.5t-167.5 -74.5q-92 0 -143 49t-51 135q0 78 42 121t111 43q16 0 32.5 -3t23.5 -3l26 -4v-277q59 10 104.5 65.5t100.5 190.5l41 103 l-533 983zM266 1341q0 53 35 88t88 35q4 0 47 -6l25 -4v-225q2 0 29.5 -10.5t82.5 -10.5t83 10.5t30 10.5v225l25 4q43 6 47 6q53 0 88 -34.5t35 -88.5q0 -76 -75 -125t-233 -49q-157 0 -232 49.5t-75 124.5z" />
<glyph unicode="&#x45f;" horiz-adv-x="1372" d="M82 0v31l123 30v902l-123 30v31h573v-31l-123 -30v-912h308v912l-123 30v31h573v-31l-123 -30v-902l123 -30v-31h-502q0 -131 -36 -242q-14 -49 -35 -86h-62q-23 33 -37 86q-35 104 -34 242h-502z" />
<glyph unicode="&#x462;" horiz-adv-x="1636" d="M51 999v287h428v148l-123 30v31h584v-31l-123 -30v-148h432v-287h-61q-61 35 -97 101.5t-36 134.5h-238v-416h133q340 0 487.5 -104.5t147.5 -304.5q0 -201 -147.5 -305.5t-487.5 -104.5h-594v31l123 30v1174h-233q0 -68 -37 -133.5t-96 -102.5h-62zM817 51h133 q152 0 219.5 87t67.5 272q0 184 -67.5 271t-219.5 87h-133v-717z" />
<glyph unicode="&#x463;" horiz-adv-x="1402" d="M51 799v276h348v297l-123 31v31h267q184 0 184 -185v-174h348v-276h-61q-53 43 -93 105.5t-40 119.5h-154v-410h102q533 0 533 -307t-533 -307h-553v31l123 30v963h-153q0 -55 -40 -116.5t-93 -108.5h-62zM727 51h102q91 0 143 64.5t52 191.5t-52 191.5t-143 64.5h-102 v-512z" />
<glyph unicode="&#x46a;" horiz-adv-x="2099" d="M10 0v31l103 30l184 543q57 174 307 174h266l-454 594l-103 31v31h1485v-31l-164 -62l-405 -563h266q250 0 307 -174l185 -543l102 -30v-31h-246q-109 0 -168 45t-88 129l-194 563h-174v-676l122 -30v-31h-583v31l123 30v676h-174l-195 -563q-29 -84 -88 -129t-168 -45 h-246zM727 1382q53 -39 109 -122l327 -482h2l434 604h-872z" />
<glyph unicode="&#x46b;" horiz-adv-x="1802" d="M10 0v31l103 30l102 318q29 78 97.5 126t189.5 48h215l-348 410l-103 30v31h1250v-31l-164 -61l-269 -379h217q121 0 190 -48t97 -126l103 -318l102 -30v-31h-215q-109 0 -175.5 49t-90.5 125l-113 338h-133v-451l123 -30v-31h-574v31l123 30v451h-133l-112 -338 q-25 -76 -91.5 -125t-175.5 -49h-215zM674 973q35 -25 65.5 -68t38.5 -55l215 -297h13l294 420h-626z" />
<glyph unicode="&#x472;" horiz-adv-x="1515" d="M92 717q0 238 82 405.5t232.5 254.5t351.5 87q200 0 351 -87t232.5 -255t81.5 -405q0 -238 -81.5 -406t-232.5 -255t-351 -87q-201 0 -351.5 87t-232.5 255t-82 406zM451 690q2 -246 47 -398.5t113.5 -217t146.5 -64.5t146.5 64.5t113.5 217t47 398.5h-614zM451 741h614 q-2 246 -47 398.5t-113.5 218t-146.5 65.5t-146.5 -65.5t-113.5 -218t-47 -398.5z" />
<glyph unicode="&#x473;" horiz-adv-x="1249" d="M82 512q0 254 144.5 398.5t398.5 144.5t398 -144.5t144 -398.5t-144 -398.5t-398 -144.5t-398.5 144.5t-144.5 398.5zM430 485q2 -258 58.5 -366.5t136.5 -108.5t136 108.5t58 366.5h-389zM430 537h389q-2 260 -58 368.5t-136 108.5t-136.5 -108.5t-58.5 -368.5z" />
<glyph unicode="&#x474;" horiz-adv-x="1640" d="M-41 1403v31h246q106 0 173.5 -48.5t102.5 -125.5l363 -826l276 760q45 123 114 187.5t191 64.5q111 0 173.5 -47t62.5 -152q0 -82 -59.5 -133t-139.5 -51q-43 0 -84 18l2 305q-66 -2 -114.5 -51t-89.5 -159l-439 -1196h-61l-615 1392z" />
<glyph unicode="&#x475;" horiz-adv-x="1335" d="M-41 993v31h256q106 0 168.5 -44t108.5 -130l241 -469l131 364q51 143 120 216t181 73q190 0 191 -151q0 -61 -45 -97t-101 -36q-35 0 -65 12l2 221q-74 0 -123 -55.5t-96 -182.5l-293 -765h-62l-512 983z" />
<glyph unicode="&#x490;" horiz-adv-x="1208" d="M102 0v31l123 30v1311l-123 31v31h902q0 129 65 239q29 47 68 78h61v-369h-635v-1321l123 -30v-31h-584z" />
<glyph unicode="&#x491;" horiz-adv-x="1044" d="M82 0v31l123 30v902l-123 30v31h758q0 117 65 227q29 47 68 80h61v-358h-502v-912l123 -30v-31h-573z" />
<glyph unicode="&#x492;" horiz-adv-x="1249" d="M82 690v51h143v631l-123 31v31h1096v-369h-61q-39 31 -68 78q-66 111 -65 239h-441v-641h236v-51h-236v-629l123 -30v-31h-584v31l123 30v629h-143z" />
<glyph unicode="&#x493;" horiz-adv-x="1085" d="M41 485v52h164v426l-123 30v31h952v-358h-61q-39 35 -68 79q-66 111 -65 228h-308v-436h226v-52h-226v-424l123 -30v-31h-573v31l123 30v424h-164z" />
<glyph unicode="&#x494;" horiz-adv-x="1351" d="M102 0v31l123 30v1311l-123 31v31h1096v-369h-61q-39 31 -68 78q-66 111 -65 239h-441v-651q127 37 256 37q492 0 492 -379v-102q0 -180 -127 -264t-375 -84v41q88 0 126 57t38 209v164q0 160 -52.5 229.5t-164.5 69.5q-78 0 -193 -31v-617l123 -30v-31h-584z" />
<glyph unicode="&#x495;" horiz-adv-x="1198" d="M82 0v31l123 30v902l-123 30v31h952v-358h-61q-39 35 -68 79q-66 111 -65 228h-308v-438q133 41 252 40q166 0 269.5 -81.5t103.5 -247.5v-144q0 -205 -127 -327.5t-364 -122.5v41q90 0 126.5 99t36.5 310v123q0 264 -196 264q-45 0 -101 -12v-416l123 -30v-31h-573z" />
<glyph unicode="&#x496;" horiz-adv-x="2099" d="M10 0v31l103 30l184 543q57 174 307 174h49q-6 0 -30.5 21.5t-53 67.5t-47.5 116l-71 266q-16 59 -47 97t-66 47v-287l-27 -6q-33 -4 -55 -4q-70 0 -117 48t-47 126q0 80 57.5 132t147.5 52q78 0 134 -55.5t81 -149.5l72 -266q51 -195 204 -195h93v584l-123 31v31h583 v-31l-122 -31v-584h92q154 0 205 195l71 266q25 94 81 149.5t134 55.5q90 0 147.5 -52t57.5 -132q0 -78 -47 -126t-117 -48q-29 0 -57 4l-25 6v287q-35 -8 -65.5 -46t-46.5 -98l-72 -266q-31 -113 -82 -164q-23 -25 -51 -41h51q250 0 307 -174l185 -541l102 -12v-399h-61 q-49 35 -89 90q-86 119 -86 258h-10q-109 0 -168 45t-88 129l-194 563h-174v-676l122 -30v-31h-583v31l123 30v676h-174l-195 -563q-29 -84 -88 -129t-168 -45h-246z" />
<glyph unicode="&#x497;" horiz-adv-x="1802" d="M10 0v31l103 30l102 318q29 78 97.5 126t189.5 48h61q-29 12 -45 29q-51 47 -67 114l-52 185q-20 86 -82 102v-276l-26 -7q-33 -4 -55 -4q-70 0 -112 43t-42 121q0 86 51 135t143 49q135 0 185 -163l51 -185q18 -59 57 -96t97 -37h71v400l-123 30v31h574v-31l-123 -30 v-400h61q59 0 102.5 38t61.5 95l51 185q49 164 185 163q92 0 143 -49t51 -135q0 -78 -42 -121t-111 -43q-29 0 -58 4l-24 7v276q-61 -16 -82 -102l-51 -185q-20 -72 -68 -114q-16 -16 -45 -29h61q121 0 190 -48t97 -126l103 -318l102 -10v-389h-61q-41 27 -89 84 q-86 106 -86 254q-100 6 -161.5 54t-83.5 120l-113 338h-133v-451l123 -30v-31h-574v31l123 30v451h-133l-112 -338q-25 -76 -91.5 -125t-175.5 -49h-215z" />
<glyph unicode="&#x498;" horiz-adv-x="1259" d="M51 410h51q0 -102 56.5 -191.5t153 -144t210.5 -54.5q156 0 242 90.5t86 258.5q0 172 -80 265t-207 93h-153v51h133q113 0 179 81t66 237t-65.5 236.5t-169.5 80.5q-90 0 -160.5 -51t-118.5 -129q-51 -80 -79 -178h-82v389h51q4 -2 41 -29q37 -31 71 -84q45 41 91 66 q115 68 227 67q172 0 295 -52t185.5 -136t62.5 -180q0 -209 -226 -295q-98 -37 -225 -43v-10q139 -6 256 -48q256 -100 256 -331q0 -152 -121 -258.5t-364 -133.5l-47 -325h-62q-94 166 -102 319q-133 12 -235.5 75t-159 159t-56.5 205z" />
<glyph unicode="&#x499;" horiz-adv-x="1085" d="M61 287h52q0 -68 43 -129.5t119.5 -99.5t175.5 -38q236 0 235 246q0 119 -53 182.5t-141 63.5h-134v51h93q88 0 141 59.5t53 165.5t-53 166t-141 60q-51 0 -89 -10l-34 -11v-307l-27 -6q-33 -4 -55 -4q-70 0 -112 42t-42 111q0 94 99.5 160t300.5 66q170 0 280.5 -37 t160.5 -97.5t50 -132.5q0 -86 -52 -135t-138 -80q-84 -29 -189 -30v-11q109 -2 209 -32q92 -29 151.5 -85.5t59.5 -148.5q0 -116 -93 -194t-302 -97l-58 -313h-61q-45 72 -67.5 145.5t-24.5 165.5q-166 18 -261.5 107.5t-95.5 206.5z" />
<glyph unicode="&#x49a;" horiz-adv-x="1454" d="M102 0v31l123 30v1311l-123 31v31h584v-31l-123 -31v-584h103q154 0 204 195l72 266q25 94 81 149.5t134 55.5q90 0 147.5 -52t57.5 -132q0 -78 -47 -126t-117 -48q-29 0 -57 4l-25 6v287q-35 -8 -65.5 -46t-46.5 -98l-72 -266q-31 -113 -82 -164q-23 -25 -51 -41h51 q250 0 307 -174l184 -541l103 -12v-399h-62q-49 35 -88 90q-86 119 -86 258h-10q-109 0 -168 45t-88 129l-194 563h-185v-676l123 -30v-31h-584z" />
<glyph unicode="&#x49b;" horiz-adv-x="1280" d="M82 0v31l123 30v902l-123 30v31h573v-31l-123 -30v-400h72q59 0 102.5 38t61.5 95l51 185q49 164 185 163q92 0 143 -49t51 -135q0 -78 -42 -121t-112 -43q-29 0 -57 4l-24 7v276q-61 -16 -82 -102l-52 -185q-20 -72 -67 -114q-16 -16 -45 -29h61q121 0 189.5 -48 t97.5 -126l102 -318l103 -10v-389h-62q-41 27 -88 84q-86 106 -86 254q-100 6 -161.5 54t-84.5 120l-112 338h-144v-451l123 -30v-31h-573z" />
<glyph unicode="&#x49c;" horiz-adv-x="1454" d="M102 0v31l123 30v1311l-123 31v31h584v-31l-123 -31v-584h103h8v252h51v-243q104 33 145 186l72 266q25 94 81 149.5t134 55.5q90 0 147.5 -52t57.5 -132q0 -78 -47 -126t-117 -48q-29 0 -57 4l-25 6v287q-35 -8 -65.5 -46t-46.5 -98l-72 -266q-31 -113 -82 -164 q-23 -25 -51 -41h51q250 0 307 -174l184 -543l103 -30v-31h-246q-109 0 -168 45t-88 129l-194 563h-23v-250h-51v250h-111v-676l123 -30v-31h-584z" />
<glyph unicode="&#x49d;" horiz-adv-x="1320" d="M82 0v31l123 30v902l-123 30v31h573v-31l-123 -30v-400h103v207h51v-201q45 12 77 46t46 81l51 185q49 164 184 163q92 0 143.5 -49t51.5 -135q0 -78 -42 -121t-112 -43q-29 0 -57 4l-24 7v276q-61 -16 -82 -102l-52 -185q-20 -72 -67 -114q-16 -16 -45 -29h61 q121 0 189.5 -48t97.5 -126l102 -318l103 -30v-31h-215q-109 0 -175.5 49t-91.5 125l-112 338h-31v-213h-51v213h-103v-451l123 -30v-31h-573z" />
<glyph unicode="&#x4a0;" horiz-adv-x="1710" d="M51 1065v369h891v-31l-123 -31v-584h103q154 0 204 195l72 266q25 94 81 149.5t134 55.5q90 0 147.5 -52t57.5 -132q0 -78 -47 -126t-117 -48q-29 0 -57 4l-25 6v287q-35 -8 -65.5 -46t-46.5 -98l-72 -266q-31 -113 -82 -164q-23 -25 -51 -41h51q250 0 307 -174l184 -543 l103 -30v-31h-246q-109 0 -168 45t-88 129l-194 563h-185v-676l123 -30v-31h-584v31l123 30v1321h-235q0 -92 -37 -180t-96 -137h-62z" />
<glyph unicode="&#x4a1;" horiz-adv-x="1474" d="M51 666v358h799v-31l-123 -30v-400h72q59 0 102 38t62 95l51 185q49 164 184 163q92 0 143.5 -49t51.5 -135q0 -78 -42 -121t-112 -43q-29 0 -57 4l-25 7v276q-61 -16 -82 -102l-51 -185q-20 -72 -68 -114q-16 -16 -45 -29h62q121 0 189.5 -48t97.5 -126l102 -318 l102 -30v-31h-215q-109 0 -175 49t-91 125l-113 338h-143v-451l123 -30v-31h-574v31l123 30v912h-153q0 -113 -68 -228q-27 -43 -65 -79h-62z" />
<glyph unicode="&#x4a2;" horiz-adv-x="1566" d="M102 0v31l123 30v1311l-123 31v31h584v-31l-123 -31v-635h441v635l-123 31v31h583v-31l-123 -31v-1311l197 -10v-399h-61q-49 35 -88 90q-86 119 -86 258h-422v31l123 30v625h-441v-625l123 -30v-31h-584z" />
<glyph unicode="&#x4a3;" horiz-adv-x="1372" d="M82 0v31l123 30v902l-123 30v31h573v-31l-123 -30v-420h308v420l-123 30v31h573v-31l-123 -30v-902l185 -10v-389h-62q-41 27 -88 84q-86 106 -86 254h-399v31l123 30v431h-308v-431l123 -30v-31h-573z" />
<glyph unicode="&#x4a4;" horiz-adv-x="2027" d="M102 0v31l123 30v1311l-123 31v31h584v-31l-123 -31v-635h441v635l-123 31v31h1095v-369h-61q-61 47 -97 136t-36 181h-441v-1321l123 -30v-31h-583v31l123 30v625h-441v-625l123 -30v-31h-584z" />
<glyph unicode="&#x4a5;" horiz-adv-x="1720" d="M82 0v31l123 30v902l-123 30v31h573v-31l-123 -30v-420h308v420l-123 30v31h952v-358h-61q-61 51 -97 136t-36 171h-308v-912l123 -30v-31h-573v31l123 30v431h-308v-431l123 -30v-31h-573z" />
<glyph unicode="&#x4aa;" horiz-adv-x="1331" d="M92 717q0 236 81 404.5t227.5 255.5t338.5 87q117 0 236 -67q45 -25 90 -66q35 53 72 84q37 27 41 29h51v-389h-82q-27 98 -80 178q-49 78 -122 129t-167 51q-141 0 -234 -164t-93 -532q0 -375 101 -536t277 -161q96 0 183.5 54.5t141.5 144.5t54 191h52 q0 -107 -53.5 -203t-147.5 -158.5t-211 -75.5l-47 -321h-62q-96 176 -102 330q-258 41 -401.5 231t-143.5 504z" />
<glyph unicode="&#x4ab;" horiz-adv-x="1085" d="M82 512q0 254 145.5 398.5t407.5 144.5q188 0 283.5 -65.5t95.5 -160.5q0 -70 -42 -111.5t-112 -41.5q-29 0 -57 4l-25 6v307l-28 11q-31 10 -74 10q-117 0 -181.5 -110.5t-64.5 -391.5q0 -272 64.5 -382t181.5 -110q80 0 148.5 38t108.5 100.5t40 128.5h51 q0 -111 -84 -199t-221 -113l-57 -313h-62q-45 72 -67.5 147.5t-24.5 170.5q-205 33 -315.5 172t-110.5 360z" />
<glyph unicode="&#x4ae;" horiz-adv-x="1361" d="M0 1403v31h256q106 0 171 -45.5t105 -128.5l304 -605l311 686l-154 62v31h389v-31l-163 -62l-359 -788v-492l123 -30v-31h-584v31l123 30v471l-420 840z" />
<glyph unicode="&#x4af;" d="M-41 993v31h256q106 0 168.5 -44t108.5 -130l243 -473l228 555l-154 61v31h379v-31l-164 -61l-270 -662v-618l123 -31v-31h-574v31l123 31v610l-365 701z" />
<glyph unicode="&#x4b0;" horiz-adv-x="1361" d="M0 1403v31h256q106 0 171 -45.5t105 -128.5l304 -605l311 686l-154 62v31h389v-31l-163 -62l-359 -788v-10h180v-51h-180v-431l123 -30v-31h-584v31l123 30v431h-198v51h194l-416 829z" />
<glyph unicode="&#x4b1;" d="M-41 993v31h256q106 0 168.5 -44t108.5 -130l243 -473l228 555l-154 61v31h379v-31l-164 -61l-270 -662v-204h198v-52h-198v-362l123 -31v-31h-574v31l123 31v362h-190v52h190v196l-365 701z" />
<glyph unicode="&#x4b6;" horiz-adv-x="1484" d="M41 1403v31h584v-31l-123 -31v-471q0 -166 57 -236.5t178 -70.5q70 0 131 31q31 14 54 30v717l-123 31v31h583v-31l-122 -31v-1311l122 -30v-31h-419q0 -139 -86 -258q-39 -55 -89 -90h-61v399l195 10v543q-37 -20 -72 -31q-88 -31 -195 -30q-252 0 -371.5 94t-119.5 264 v471z" />
<glyph unicode="&#x4b7;" horiz-adv-x="1300" d="M31 993v31h573v-31l-123 -30v-297q0 -133 40 -189.5t114 -56.5q82 0 133 51v492l-123 30v31h574v-31l-123 -30v-902l123 -30v-31h-400q0 -147 -86 -254q-47 -57 -88 -84h-61v389l184 10v359q-41 -25 -99.5 -38t-115.5 -13q-201 0 -300 79.5t-99 217.5v297z" />
<glyph unicode="&#x4b8;" horiz-adv-x="1484" d="M41 1403v31h584v-31l-123 -31v-471q0 -152 48 -223.5t146 -81.5v252h52v-254q61 2 120 31q31 14 54 30v717l-123 31v31h583v-31l-122 -31v-1311l122 -30v-31h-583v31l123 30v543q-37 -20 -72 -31q-45 -16 -102 -24v-254h-52v250q-12 -2 -41 -2q-252 0 -371.5 94 t-119.5 264v471z" />
<glyph unicode="&#x4b9;" horiz-adv-x="1341" d="M31 993v31h573v-31l-123 -30v-297q0 -133 40 -189.5t114 -56.5h12v235h51v-231q68 12 111 47v492l-123 30v31h574v-31l-123 -30v-902l123 -30v-31h-574v31l123 30v359q-45 -25 -111 -37v-199h-51v191q-47 -6 -94 -6q-201 0 -300 79.5t-99 217.5v297z" />
<glyph unicode="&#x4ba;" horiz-adv-x="1484" d="M102 0v31l123 30v1311l-123 31v31h584v-31l-123 -31v-543q37 20 72 31q88 31 194 31q252 0 372 -94.5t120 -264.5v-471l123 -30v-31h-584v31l123 30v471q0 166 -57.5 237t-177.5 71q-70 0 -132 -31q-31 -14 -53 -31v-717l123 -30v-31h-584z" />
<glyph unicode="&#x4bb;" horiz-adv-x="1361" d="M82 0v31l123 30v1311l-123 31v31h266q184 0 184 -185v-327q31 41 64 65q88 68 203 68t206 -48.5t142 -126t51 -163.5v-656l123 -30v-31h-266q-184 0 -185 184v533q0 129 -46 197.5t-107 68.5q-78 0 -139 -82q-27 -35 -46 -82v-758l123 -30v-31h-573z" />
<glyph unicode="&#x4c0;" horiz-adv-x="788" d="M102 0v31l123 30v1311l-123 31v31h584v-31l-123 -31v-1311l123 -30v-31h-584z" />
<glyph unicode="&#x4c1;" horiz-adv-x="2099" d="M10 0v31l103 30l184 543q57 174 307 174h49q-6 0 -30.5 21.5t-53 67.5t-47.5 116l-71 266q-16 59 -47 97t-66 47v-287l-27 -6q-33 -4 -55 -4q-70 0 -117 48t-47 126q0 80 57.5 132t147.5 52q78 0 134 -55.5t81 -149.5l72 -266q51 -195 204 -195h93v584l-123 31v31h583 v-31l-122 -31v-584h92q154 0 205 195l71 266q25 94 81 149.5t134 55.5q90 0 147.5 -52t57.5 -132q0 -78 -47 -126t-117 -48q-29 0 -57 4l-25 6v287q-35 -8 -65.5 -46t-46.5 -98l-72 -266q-31 -113 -82 -164q-23 -25 -51 -41h51q250 0 307 -174l185 -543l102 -30v-31h-246 q-109 0 -168 45t-88 129l-194 563h-174v-676l122 -30v-31h-583v31l123 30v676h-174l-195 -563q-29 -84 -88 -129t-168 -45h-246zM743 1751q0 53 35 88t88 35q4 0 47 -6l25 -4v-226q2 0 29.5 -10t82.5 -10t83 10t30 10v226l25 4q43 6 47 6q53 0 88 -35t35 -88q0 -76 -75 -125 t-233 -49q-157 0 -232 49t-75 125z" />
<glyph unicode="&#x4c2;" horiz-adv-x="1802" d="M10 0v31l103 30l102 318q29 78 97.5 126t189.5 48h61q-29 12 -45 29q-51 47 -67 114l-52 185q-20 86 -82 102v-276l-26 -7q-33 -4 -55 -4q-70 0 -112 43t-42 121q0 86 51 135t143 49q135 0 185 -163l51 -185q18 -59 57 -96t97 -37h71v400l-123 30v31h574v-31l-123 -30 v-400h61q59 0 102.5 38t61.5 95l51 185q49 164 185 163q92 0 143 -49t51 -135q0 -78 -42 -121t-111 -43q-29 0 -58 4l-24 7v276q-61 -16 -82 -102l-51 -185q-20 -72 -68 -114q-16 -16 -45 -29h61q121 0 190 -48t97 -126l103 -318l102 -30v-31h-215q-109 0 -175.5 49 t-90.5 125l-113 338h-133v-451l123 -30v-31h-574v31l123 30v451h-133l-112 -338q-25 -76 -91.5 -125t-175.5 -49h-215zM594 1341q0 53 35 88t88 35q4 0 47 -6l25 -4v-225q2 0 29.5 -10.5t82.5 -10.5t83 10.5t30 10.5v225l25 4q43 6 47 6q53 0 88 -34.5t35 -88.5 q0 -76 -75 -125t-233 -49q-157 0 -232 49.5t-75 124.5z" />
<glyph unicode="&#x4cb;" horiz-adv-x="1484" d="M41 1403v31h584v-31l-123 -31v-471q0 -166 57 -236.5t178 -70.5q70 0 131 31q31 14 54 30v717l-123 31v31h583v-31l-122 -31v-1311l194 -10v-399h-61q-49 35 -88 90q-86 119 -86 258h-420v31l123 30v543q-37 -20 -72 -31q-88 -31 -195 -30q-252 0 -371.5 94t-119.5 264 v471z" />
<glyph unicode="&#x4cc;" horiz-adv-x="1300" d="M31 993v31h573v-31l-123 -30v-297q0 -133 40 -189.5t114 -56.5q82 0 133 51v492l-123 30v31h574v-31l-123 -30v-902l184 -10v-389h-61q-41 27 -89 84q-86 106 -86 254h-399v31l123 30v359q-41 -25 -99.5 -38t-115.5 -13q-201 0 -300 79.5t-99 217.5v297z" />
<glyph unicode="&#x4cf;" horiz-adv-x="696" d="M82 0v31l123 30v1311l-123 31v31h266q184 0 184 -185v-1188l123 -30v-31h-573z" />
<glyph unicode="&#x4d0;" horiz-adv-x="1392" d="M-41 0v31l164 61l563 1362h62l583 -1393l103 -30v-31h-246q-106 0 -174 48t-101 126l-104 246h-490l-135 -328l154 -61v-31h-379zM340 471h448l-225 539zM405 1751q0 53 35 88t88 35q4 0 47 -6l25 -4v-226q2 0 29.5 -10t82.5 -10t83 10t30 10v226l25 4q43 6 47 6 q53 0 88 -35t35 -88q0 -76 -75 -125t-233 -49q-157 0 -232 49t-75 125z" />
<glyph unicode="&#x4d1;" horiz-adv-x="1239" d="M102 246q0 80 35 157q14 37 37 68q84 20 182 37q221 37 392 45v61q0 227 -55.5 313.5t-170.5 86.5q-43 0 -73 -10l-29 -11v-307l-27 -6q-33 -4 -55 -4q-70 0 -112 42t-42 111q0 94 95.5 160t283.5 66q160 0 275.5 -56.5t176 -156t60.5 -228.5v-553l123 -30v-31h-184 q-123 0 -191 76q-29 31 -45 78q-29 -51 -67 -93q-92 -92 -230 -92q-182 0 -280.5 78t-98.5 199zM313 1341q0 53 35 88t88 35q4 0 47 -6l25 -4v-225q2 0 29.5 -10.5t82.5 -10.5t83 10.5t30 10.5v225l25 4q43 6 47 6q53 0 88 -34.5t35 -88.5q0 -76 -75 -125t-233 -49 q-157 0 -232 49.5t-75 124.5zM440 266q0 -115 35 -170t88 -55q76 0 137 82q23 31 48 82v297q-94 0 -181 -10q-63 -8 -86 -11q-10 -23 -20 -61q-20 -78 -21 -154z" />
<glyph unicode="&#x4d2;" horiz-adv-x="1392" d="M-41 0v31l164 61l563 1362h62l583 -1393l103 -30v-31h-246q-106 0 -174 48t-101 126l-104 246h-490l-135 -328l154 -61v-31h-379zM340 471h448l-225 539zM378 1700q0 61 41 102.5t103 41.5q61 0 102 -41t41 -103q0 -61 -41 -102t-102 -41q-62 0 -103 41t-41 102z M757 1700q0 61 41 102.5t103 41.5q61 0 102 -41t41 -103q0 -61 -41 -102t-102 -41q-62 0 -103 41t-41 102z" />
<glyph unicode="&#x4d3;" horiz-adv-x="1239" d="M102 246q0 80 35 157q14 37 37 68q84 20 182 37q221 37 392 45v61q0 227 -55.5 313.5t-170.5 86.5q-43 0 -73 -10l-29 -11v-307l-27 -6q-33 -4 -55 -4q-70 0 -112 42t-42 111q0 94 95.5 160t283.5 66q160 0 275.5 -56.5t176 -156t60.5 -228.5v-553l123 -30v-31h-184 q-123 0 -191 76q-29 31 -45 78q-29 -51 -67 -93q-92 -92 -230 -92q-182 0 -280.5 78t-98.5 199zM286 1290q0 61 41 102.5t103 41.5q61 0 102 -41t41 -103q0 -61 -41 -102t-102 -41q-62 0 -103 41t-41 102zM440 266q0 -115 35 -170t88 -55q76 0 137 82q23 31 48 82v297 q-94 0 -181 -10q-63 -8 -86 -11q-10 -23 -20 -61q-20 -78 -21 -154zM665 1290q0 61 41 102.5t103 41.5q61 0 102 -41t41 -103q0 -61 -41 -102t-102 -41q-62 0 -103 41t-41 102z" />
<glyph unicode="&#x4d4;" horiz-adv-x="2029" d="M-61 0v31l163 61l750 1342h1053v-369h-62q-39 31 -67 78q-66 111 -66 239h-420v-645h215q14 78 54 146q16 31 38 59h62v-461h-62q-23 29 -38 60q-39 68 -54 145h-215v-635h461q0 129 66 240q29 47 67 78h62v-369h-1117v31l123 30v482h-526l-250 -451l154 -61v-31h-391z M457 594h495v788h-55z" />
<glyph unicode="&#x4d5;" horiz-adv-x="1802" d="M102 246q0 74 35 147q14 29 37 58q84 20 182 36q221 37 392 45v82q0 227 -55.5 313.5t-170.5 86.5q-43 0 -73 -10l-29 -11v-307l-27 -6q-33 -4 -55 -4q-70 0 -112 42t-42 111q0 94 95.5 160t283.5 66q166 0 279 -92q49 -41 80 -93q27 49 75 93q109 92 263 92 q139 0 245.5 -55.5t166 -148.5t59.5 -206q0 -43 -11 -74l-10 -28q-88 -18 -190 -31q-215 -31 -435 -31v-45q4 -227 68 -321.5t178 -94.5q80 0 148.5 38t108.5 100.5t40 128.5h51q0 -82 -49 -156t-137 -118t-203 -44q-176 0 -289 97q-53 43 -79 98q-45 -57 -101 -98 q-133 -96 -299 -97q-211 0 -315.5 77t-104.5 200zM440 246q0 -115 35 -170.5t88 -55.5q87 1 146 97q23 39 39 98v266q-94 0 -181 -10q-63 -8 -86 -10q-10 -23 -20 -62q-20 -78 -21 -153zM1085 532q131 1 213 11q35 2 74 10q2 14 10 43q10 41 11 90q0 170 -45 249t-109 79 q-66 0 -107.5 -101.5t-46.5 -369.5v-11z" />
<glyph unicode="&#x4d6;" horiz-adv-x="1320" d="M102 0v31l123 30v1311l-123 31v31h1096v-369h-61q-39 31 -68 78q-66 111 -65 239h-441v-645h236q14 78 53 146q16 31 39 59h61v-461h-61q-23 29 -39 60q-39 68 -53 145h-236v-635h481q0 129 66 240q29 47 68 78h61v-369h-1137zM416 1751q0 53 35 88t88 35q4 0 47 -6 l25 -4v-226q2 0 29.5 -10t82.5 -10t83 10t30 10v226l25 4q43 6 47 6q53 0 88 -35t35 -88q0 -76 -75 -125t-233 -49q-157 0 -232 49t-75 125z" />
<glyph unicode="&#x4d7;" d="M82 512q0 166 63.5 289t177 188.5t261.5 65.5q147 0 258.5 -55.5t172 -148.5t60.5 -206q0 -51 -10 -88l-10 -35q-88 -18 -191 -30q-215 -31 -434 -31q0 -238 65.5 -339.5t180.5 -101.5q80 0 148.5 38t108.5 100.5t40 128.5h51q0 -82 -49 -156t-137 -118t-203 -44 q-262 0 -407.5 144.5t-145.5 398.5zM266 1341q0 53 35 88t88 35q4 0 47 -6l25 -4v-225q2 0 29.5 -10.5t82.5 -10.5t83 10.5t30 10.5v225l25 4q43 6 47 6q53 0 88 -34.5t35 -88.5q0 -76 -75 -125t-233 -49q-157 0 -232 49.5t-75 124.5zM430 512q131 0 213 10q35 2 74 10 q2 10 10 46q10 51 10 108q0 170 -45 249t-108 79q-154 0 -154 -502z" />
<glyph unicode="&#x4d8;" horiz-adv-x="1353" d="M72 551q0 84 14 158q190 41 404.5 62.5t410.5 23.5q-2 322 -86 470t-219 148q-131 0 -234.5 -94t-154.5 -264h-82v389h51q66 -37 113 -113q66 59 153.5 96t171.5 37q193 0 338.5 -87t227.5 -254t82 -400q0 -229 -84 -399t-233.5 -262.5t-348.5 -92.5q-164 0 -281.5 75 t-180 207t-62.5 300zM367 586q0 -141 26.5 -274.5t78.5 -217.5t124 -84q135 0 221 178.5t84 554.5q-129 0 -288.5 -13t-241.5 -32q-4 -37 -4 -112z" />
<glyph unicode="&#x4d9;" horiz-adv-x="1132" d="M72 379q0 33 5 60.5t15 62.5q127 27 302 44t308 17q-6 223 -62 337t-177 114q-68 0 -129 -21v-307q-39 -10 -82 -10q-70 0 -112 42t-42 111q0 59 43 110.5t132 83.5t225 32q262 0 407.5 -144.5t145.5 -398.5q0 -166 -63.5 -289t-177.5 -188.5t-261 -65.5 q-143 0 -251 55.5t-167 148.5t-59 206zM395 338q0 -170 46 -249t108 -79q153 0 153 502q-100 0 -158.5 -3t-127.5 -17q-20 -76 -21 -154z" />
<glyph unicode="&#x4dc;" horiz-adv-x="2099" d="M10 0v31l103 30l184 543q57 174 307 174h49q-6 0 -30.5 21.5t-53 67.5t-47.5 116l-71 266q-16 59 -47 97t-66 47v-287l-27 -6q-33 -4 -55 -4q-70 0 -117 48t-47 126q0 80 57.5 132t147.5 52q78 0 134 -55.5t81 -149.5l72 -266q51 -195 204 -195h93v584l-123 31v31h583 v-31l-122 -31v-584h92q154 0 205 195l71 266q25 94 81 149.5t134 55.5q90 0 147.5 -52t57.5 -132q0 -78 -47 -126t-117 -48q-29 0 -57 4l-25 6v287q-35 -8 -65.5 -46t-46.5 -98l-72 -266q-31 -113 -82 -164q-23 -25 -51 -41h51q250 0 307 -174l185 -543l102 -30v-31h-246 q-109 0 -168 45t-88 129l-194 563h-174v-676l122 -30v-31h-583v31l123 30v676h-174l-195 -563q-29 -84 -88 -129t-168 -45h-246zM716 1700q0 61 41 102.5t103 41.5q61 0 102 -41t41 -103q0 -61 -41 -102t-102 -41q-62 0 -103 41t-41 102zM1095 1700q0 61 41 102.5t103 41.5 q61 0 102 -41t41 -103q0 -61 -41 -102t-102 -41q-62 0 -103 41t-41 102z" />
<glyph unicode="&#x4dd;" horiz-adv-x="1802" d="M10 0v31l103 30l102 318q29 78 97.5 126t189.5 48h61q-29 12 -45 29q-51 47 -67 114l-52 185q-20 86 -82 102v-276l-26 -7q-33 -4 -55 -4q-70 0 -112 43t-42 121q0 86 51 135t143 49q135 0 185 -163l51 -185q18 -59 57 -96t97 -37h71v400l-123 30v31h574v-31l-123 -30 v-400h61q59 0 102.5 38t61.5 95l51 185q49 164 185 163q92 0 143 -49t51 -135q0 -78 -42 -121t-111 -43q-29 0 -58 4l-24 7v276q-61 -16 -82 -102l-51 -185q-20 -72 -68 -114q-16 -16 -45 -29h61q121 0 190 -48t97 -126l103 -318l102 -30v-31h-215q-109 0 -175.5 49 t-90.5 125l-113 338h-133v-451l123 -30v-31h-574v31l123 30v451h-133l-112 -338q-25 -76 -91.5 -125t-175.5 -49h-215zM567 1290q0 61 41 102.5t103 41.5q61 0 102 -41t41 -103q0 -61 -41 -102t-102 -41q-62 0 -103 41t-41 102zM946 1290q0 61 41 102.5t103 41.5 q61 0 102 -41t41 -103q0 -61 -41 -102t-102 -41q-62 0 -103 41t-41 102z" />
<glyph unicode="&#x4de;" horiz-adv-x="1259" d="M51 410h51q0 -102 56.5 -191.5t153 -144t210.5 -54.5q156 0 242 90.5t86 258.5q0 172 -80 265t-207 93h-153v51h133q113 0 179 81t66 237t-65.5 236.5t-169.5 80.5q-90 0 -160.5 -51t-118.5 -129q-51 -80 -79 -178h-82v389h51q4 -2 41 -29q37 -31 71 -84q45 41 91 66 q115 68 227 67q172 0 295 -52t185.5 -136t62.5 -180q0 -209 -226 -295q-98 -37 -225 -43v-10q139 -6 256 -48q256 -100 256 -331q0 -113 -66.5 -203t-209 -143.5t-359.5 -53.5q-147 0 -265 60.5t-182.5 161t-64.5 219.5zM235 1700q0 61 41 102.5t103 41.5q61 0 102 -41 t41 -103q0 -61 -41 -102t-102 -41q-62 0 -103 41t-41 102zM614 1700q0 61 41 102.5t103 41.5q61 0 102 -41t41 -103q0 -61 -41 -102t-102 -41q-62 0 -103 41t-41 102z" />
<glyph unicode="&#x4df;" horiz-adv-x="1085" d="M61 287h52q0 -68 43 -129.5t119.5 -99.5t175.5 -38q236 0 235 246q0 119 -53 182.5t-141 63.5h-134v51h93q88 0 141 59.5t53 165.5t-53 166t-141 60q-51 0 -89 -10l-34 -11v-307l-27 -6q-33 -4 -55 -4q-70 0 -112 42t-42 111q0 94 99.5 160t300.5 66q170 0 280.5 -37 t160.5 -97.5t50 -132.5q0 -86 -52 -135t-138 -80q-84 -29 -189 -30v-11q109 -2 209 -32q92 -29 151.5 -85.5t59.5 -148.5q0 -135 -125 -216t-407 -81q-134 0 -231 44t-148.5 117t-51.5 157zM188 1290q0 61 41 102.5t103 41.5q61 0 102 -41t41 -103q0 -61 -41 -102t-102 -41 q-62 0 -103 41t-41 102zM567 1290q0 61 41 102.5t103 41.5q61 0 102 -41t41 -103q0 -61 -41 -102t-102 -41q-62 0 -103 41t-41 102z" />
<glyph unicode="&#x4e2;" horiz-adv-x="1607" d="M102 0v31l123 30v1311l-123 31v31h584v-31l-123 -31v-1034l481 881v153l-122 31v31h583v-31l-123 -31v-1311l123 -30v-31h-583v31l122 30v1035l-481 -881v-154l123 -30v-31h-584zM539 1751v93h532v-93h-532z" />
<glyph unicode="&#x4e3;" horiz-adv-x="1392" d="M82 0v31l123 30v902l-123 30v31h573v-31l-123 -30v-676l328 563v113l-123 30v31h574v-31l-123 -30v-902l123 -30v-31h-574v31l123 30v676l-328 -563v-113l123 -30v-31h-573zM431 1341v93h532v-93h-532z" />
<glyph unicode="&#x4e4;" horiz-adv-x="1607" d="M102 0v31l123 30v1311l-123 31v31h584v-31l-123 -31v-1034l481 881v153l-122 31v31h583v-31l-123 -31v-1311l123 -30v-31h-583v31l122 30v1035l-481 -881v-154l123 -30v-31h-584zM471 1700q0 61 41 102.5t103 41.5q61 0 102 -41t41 -103q0 -61 -41 -102t-102 -41 q-62 0 -103 41t-41 102zM850 1700q0 61 41 102.5t103 41.5q61 0 102 -41t41 -103q0 -61 -41 -102t-102 -41q-62 0 -103 41t-41 102z" />
<glyph unicode="&#x4e5;" horiz-adv-x="1392" d="M82 0v31l123 30v902l-123 30v31h573v-31l-123 -30v-676l328 563v113l-123 30v31h574v-31l-123 -30v-902l123 -30v-31h-574v31l123 30v676l-328 -563v-113l123 -30v-31h-573zM362 1290q0 61 41 102.5t103 41.5q61 0 102 -41t41 -103q0 -61 -41 -102t-102 -41 q-62 0 -103 41t-41 102zM741 1290q0 61 41 102.5t103 41.5q61 0 102 -41t41 -103q0 -61 -41 -102t-102 -41q-62 0 -103 41t-41 102z" />
<glyph unicode="&#x4e6;" horiz-adv-x="1515" d="M92 717q0 238 82 405.5t232.5 254.5t351.5 87t351.5 -87t232 -255t81.5 -405q0 -238 -81.5 -406t-232.5 -255t-351 -87q-201 0 -351.5 87t-232.5 255t-82 406zM423 1700q0 61 41 102.5t103 41.5q61 0 102 -41t41 -103q0 -61 -41 -102t-102 -41q-62 0 -103 41t-41 102z M451 717q0 -256 45 -414t113.5 -225.5t148.5 -67.5t148.5 67.5t113.5 225.5t45 414t-45 413.5t-113.5 225t-148.5 67.5t-148.5 -67.5t-113.5 -225t-45 -413.5zM802 1700q0 61 41 102.5t103 41.5q61 0 102 -41t41 -103q0 -61 -41 -102t-102 -41q-62 0 -103 41t-41 102z" />
<glyph unicode="&#x4e7;" horiz-adv-x="1249" d="M82 512q0 254 144.5 398.5t398.5 144.5t398 -144.5t144 -398.5t-144 -398.5t-398 -144.5t-398.5 144.5t-144.5 398.5zM290 1290q0 61 41 102.5t103 41.5q61 0 102 -41t41 -103q0 -61 -41 -102t-102 -41q-62 0 -103 41t-41 102zM430 512q0 -272 56.5 -387t138.5 -115 t138 115t56 387t-56 387t-138 115t-138.5 -115t-56.5 -387zM669 1290q0 61 41 102.5t103 41.5q61 0 102 -41t41 -103q0 -61 -41 -102t-102 -41q-62 0 -103 41t-41 102z" />
<glyph unicode="&#x4e8;" horiz-adv-x="1515" d="M92 717q0 238 82 405.5t232.5 254.5t351.5 87q200 0 351 -87t232.5 -255t81.5 -405q0 -238 -81.5 -406t-232.5 -255t-351 -87q-201 0 -351.5 87t-232.5 255t-82 406zM451 690q2 -246 47 -398.5t113.5 -217t146.5 -64.5t146.5 64.5t113.5 217t47 398.5h-614zM451 741h614 q-2 246 -47 398.5t-113.5 218t-146.5 65.5t-146.5 -65.5t-113.5 -218t-47 -398.5z" />
<glyph unicode="&#x4e9;" horiz-adv-x="1249" d="M82 512q0 254 144.5 398.5t398.5 144.5t398 -144.5t144 -398.5t-144 -398.5t-398 -144.5t-398.5 144.5t-144.5 398.5zM430 485q2 -258 58.5 -366.5t136.5 -108.5t136 108.5t58 366.5h-389zM430 537h389q-2 260 -58 368.5t-136 108.5t-136.5 -108.5t-58.5 -368.5z" />
<glyph unicode="&#x4ee;" horiz-adv-x="1351" d="M-20 1403v31h266q100 0 163.5 -46.5t112.5 -127.5l346 -601l299 682l-153 62v31h379v-31l-164 -62l-461 -1054q-72 -168 -145.5 -243t-161.5 -75q-90 0 -147.5 52.5t-57.5 132.5q0 78 47 126t117 48q16 0 32.5 -3t22.5 -3l27 -5v-286q106 16 205 256l-625 1085zM471 1751 v93h532v-93h-532z" />
<glyph unicode="&#x4ef;" d="M-41 993v31h256q106 0 168.5 -44t108.5 -130l256 -473l215 555l-154 61v31h379v-31l-164 -61l-410 -1055q-66 -168 -139.5 -242.5t-167.5 -74.5q-92 0 -143 49t-51 135q0 78 42 121t111 43q16 0 32.5 -3t23.5 -3l26 -4v-277q59 10 104.5 65.5t100.5 190.5l41 103 l-533 983zM308 1341v93h532v-93h-532z" />
<glyph unicode="&#x4f0;" horiz-adv-x="1351" d="M-20 1403v31h266q100 0 163.5 -46.5t112.5 -127.5l346 -601l299 682l-153 62v31h379v-31l-164 -62l-461 -1054q-72 -168 -145.5 -243t-161.5 -75q-90 0 -147.5 52.5t-57.5 132.5q0 78 47 126t117 48q16 0 32.5 -3t22.5 -3l27 -5v-286q106 16 205 256l-625 1085zM403 1700 q0 61 41 102.5t103 41.5q61 0 102 -41t41 -103q0 -61 -41 -102t-102 -41q-62 0 -103 41t-41 102zM782 1700q0 61 41 102.5t103 41.5q61 0 102 -41t41 -103q0 -61 -41 -102t-102 -41q-62 0 -103 41t-41 102z" />
<glyph unicode="&#x4f1;" d="M-41 993v31h256q106 0 168.5 -44t108.5 -130l256 -473l215 555l-154 61v31h379v-31l-164 -61l-410 -1055q-66 -168 -139.5 -242.5t-167.5 -74.5q-92 0 -143 49t-51 135q0 78 42 121t111 43q16 0 32.5 -3t23.5 -3l26 -4v-277q59 10 104.5 65.5t100.5 190.5l41 103 l-533 983zM239 1290q0 61 41 102.5t103 41.5q61 0 102 -41t41 -103q0 -61 -41 -102t-102 -41q-62 0 -103 41t-41 102zM618 1290q0 61 41 102.5t103 41.5q61 0 102 -41t41 -103q0 -61 -41 -102t-102 -41q-62 0 -103 41t-41 102z" />
<glyph unicode="&#x4f2;" horiz-adv-x="1351" d="M-20 1403v31h266q100 0 163.5 -46.5t112.5 -127.5l346 -601l299 682l-153 62v31h379v-31l-164 -62l-461 -1054q-72 -168 -145.5 -243t-161.5 -75q-90 0 -147.5 52.5t-57.5 132.5q0 78 47 126t117 48q16 0 32.5 -3t22.5 -3l27 -5v-286q106 16 205 256l-625 1085zM561 1536 l92 308h205l-225 -308h-72zM827 1536l92 308h205l-225 -308h-72z" />
<glyph unicode="&#x4f3;" d="M-41 993v31h256q106 0 168.5 -44t108.5 -130l256 -473l215 555l-154 61v31h379v-31l-164 -61l-410 -1055q-66 -168 -139.5 -242.5t-167.5 -74.5q-92 0 -143 49t-51 135q0 78 42 121t111 43q16 0 32.5 -3t23.5 -3l26 -4v-277q59 10 104.5 65.5t100.5 190.5l41 103 l-533 983zM397 1126l92 308h205l-225 -308h-72zM663 1126l92 308h205l-225 -308h-72z" />
<glyph unicode="&#x4f4;" horiz-adv-x="1484" d="M41 1403v31h584v-31l-123 -31v-471q0 -166 57 -236.5t178 -70.5q70 0 131 31q31 14 54 30v717l-123 31v31h583v-31l-122 -31v-1311l122 -30v-31h-583v31l123 30v543q-37 -20 -72 -31q-88 -31 -195 -30q-252 0 -371.5 94t-119.5 264v471zM368 1700q0 61 41 102.5t103 41.5 q61 0 102 -41t41 -103q0 -61 -41 -102t-102 -41q-62 0 -103 41t-41 102zM747 1700q0 61 41 102.5t103 41.5q61 0 102 -41t41 -103q0 -61 -41 -102t-102 -41q-62 0 -103 41t-41 102z" />
<glyph unicode="&#x4f5;" horiz-adv-x="1300" d="M31 993v31h573v-31l-123 -30v-297q0 -133 40 -189.5t114 -56.5q82 0 133 51v492l-123 30v31h574v-31l-123 -30v-902l123 -30v-31h-574v31l123 30v359q-41 -25 -99.5 -38t-115.5 -13q-201 0 -300 79.5t-99 217.5v297zM290 1290q0 61 41 102.5t103 41.5q61 0 102 -41 t41 -103q0 -61 -41 -102t-102 -41q-62 0 -103 41t-41 102zM669 1290q0 61 41 102.5t103 41.5q61 0 102 -41t41 -103q0 -61 -41 -102t-102 -41q-62 0 -103 41t-41 102z" />
<glyph unicode="&#x4f6;" horiz-adv-x="1249" d="M102 0v31l123 30v1311l-123 31v31h1096v-369h-61q-39 31 -68 78q-66 111 -65 239h-441v-1321l195 -10v-399h-62q-49 35 -88 90q-86 119 -86 258h-420z" />
<glyph unicode="&#x4f7;" horiz-adv-x="1085" d="M82 0v31l123 30v902l-123 30v31h952v-358h-61q-39 35 -68 79q-66 111 -65 228h-308v-912l185 -10v-389h-62q-41 27 -88 84q-86 106 -86 254h-399z" />
<glyph unicode="&#x4f8;" horiz-adv-x="2078" d="M102 0v31l123 30v1311l-123 31v31h584v-31l-123 -31v-512h133q340 0 487.5 -109.5t147.5 -320.5t-147.5 -320.5t-487.5 -109.5h-594zM563 51h133q129 0 208 97.5t79 281.5t-79 281.5t-208 97.5h-133v-758zM706 1700q0 61 41 102.5t103 41.5q61 0 102 -41t41 -103 q0 -61 -41 -102t-102 -41q-62 0 -103 41t-41 102zM1085 1700q0 61 41 102.5t103 41.5q61 0 102 -41t41 -103q0 -61 -41 -102t-102 -41q-62 0 -103 41t-41 102zM1393 0v31l123 30v1311l-123 31v31h583v-31l-123 -31v-1311l123 -30v-31h-583z" />
<glyph unicode="&#x4f9;" horiz-adv-x="1863" d="M82 0v31l123 30v902l-123 30v31h573v-31l-123 -30v-349h103q532 0 532 -307t-532 -307h-553zM532 51h103q90 0 142 64.5t52 191.5t-52 191.5t-142 64.5h-103v-512zM598 1290q0 61 41 102.5t103 41.5q61 0 102 -41t41 -103q0 -61 -41 -102t-102 -41q-62 0 -103 41t-41 102 zM977 1290q0 61 41 102.5t103 41.5q61 0 102 -41t41 -103q0 -61 -41 -102t-102 -41q-62 0 -103 41t-41 102zM1208 0v31l123 30v902l-123 30v31h574v-31l-123 -30v-902l123 -30v-31h-574z" />
<glyph unicode="&#x51a;" horiz-adv-x="1515" d="M92 717q0 238 82 405.5t232.5 254.5t351.5 87t351.5 -87t232 -255t81.5 -405q0 -303 -133 -490.5t-368 -236.5q0 -276 102 -277q29 0 45 11q2 0 16 10l21 -51q-8 -6 -33 -17q-37 -14 -110 -14q-111 0 -195 44t-129 121t-45 173q-236 49 -369 236.5t-133 490.5zM451 717 q0 -256 45 -414t113.5 -225.5t148.5 -67.5t148.5 67.5t113.5 225.5t45 414t-45 413.5t-113.5 225t-148.5 67.5t-148.5 -67.5t-113.5 -225t-45 -413.5z" />
<glyph unicode="&#x51b;" horiz-adv-x="1259" d="M82 512q0 174 55.5 296t149.5 184.5t215 62.5q137 0 229 -92q39 -39 68 -93q14 45 49 82q78 82 227 82h21v-1382l123 -31v-31h-574v31l123 31v399q-33 -27 -63 -41q-74 -41 -173 -41q-207 0 -328.5 140.5t-121.5 402.5zM430 512q0 -276 48 -378.5t136 -102.5q52 0 107 41 q25 18 47 41v706q-25 51 -47 82q-61 82 -137 82q-66 0 -110 -103.5t-44 -367.5z" />
<glyph unicode="&#x51c;" horiz-adv-x="2017" d="M-41 1403v31h246q109 0 178.5 -49.5t97.5 -124.5l310 -789l180 528l-152 383l-112 21v31h245q109 0 176.5 -48.5t100.5 -125.5l309 -789l295 870l-154 62v31h379v-31l-164 -62l-460 -1361h-62l-368 935l-318 -935h-61l-553 1402z" />
<glyph unicode="&#x51d;" horiz-adv-x="1710" d="M-41 993v31h236q109 0 172 -45t104 -129l225 -471l117 299l-137 285l-103 30v31h236q109 0 172 -45t104 -129l226 -471l215 553l-154 61v31h379v-31l-164 -61l-379 -952h-61l-303 630l-250 -630h-62l-471 983z" />
<glyph unicode="&#x524;" horiz-adv-x="1566" d="M102 0v31l123 30v1311l-123 31v31h1362v-31l-123 -31v-1311l195 -10v-399h-61q-49 35 -89 90q-86 119 -86 258h-419v31l123 30v1321h-441v-1321l123 -30v-31h-584z" />
<glyph unicode="&#x525;" horiz-adv-x="1372" d="M82 0v31l123 30v902l-123 30v31h1208v-31l-123 -30v-902l185 -10v-389h-62q-41 27 -88 84q-86 106 -86 254h-399v31l123 30v912h-308v-912l123 -30v-31h-573z" />
<glyph unicode="&#x1e80;" horiz-adv-x="2017" d="M-41 1403v31h246q109 0 178.5 -49.5t97.5 -124.5l310 -789l180 528l-152 383l-112 21v31h245q109 0 176.5 -48.5t100.5 -125.5l309 -789l295 870l-154 62v31h379v-31l-164 -62l-460 -1361h-62l-368 935l-318 -935h-61l-553 1402zM710 1844h267l82 -308h-72z" />
<glyph unicode="&#x1e81;" horiz-adv-x="1710" d="M-41 993v31h236q109 0 172 -45t104 -129l225 -471l117 299l-137 285l-103 30v31h236q109 0 172 -45t104 -129l226 -471l215 553l-154 61v31h379v-31l-164 -61l-379 -952h-61l-303 630l-250 -630h-62l-471 983zM557 1434h267l82 -308h-72z" />
<glyph unicode="&#x1e82;" horiz-adv-x="2017" d="M-41 1403v31h246q109 0 178.5 -49.5t97.5 -124.5l310 -789l180 528l-152 383l-112 21v31h245q109 0 176.5 -48.5t100.5 -125.5l309 -789l295 870l-154 62v31h379v-31l-164 -62l-460 -1361h-62l-368 935l-318 -935h-61l-553 1402zM952 1536l82 308h266l-276 -308h-72z" />
<glyph unicode="&#x1e83;" horiz-adv-x="1710" d="M-41 993v31h236q109 0 172 -45t104 -129l225 -471l117 299l-137 285l-103 30v31h236q109 0 172 -45t104 -129l226 -471l215 553l-154 61v31h379v-31l-164 -61l-379 -952h-61l-303 630l-250 -630h-62l-471 983zM799 1126l82 308h266l-276 -308h-72z" />
<glyph unicode="&#x1e84;" horiz-adv-x="2017" d="M-41 1403v31h246q109 0 178.5 -49.5t97.5 -124.5l310 -789l180 528l-152 383l-112 21v31h245q109 0 176.5 -48.5t100.5 -125.5l309 -789l295 870l-154 62v31h379v-31l-164 -62l-460 -1361h-62l-368 935l-318 -935h-61l-553 1402zM675 1700q0 61 41 102.5t103 41.5 q61 0 102 -41t41 -103q0 -61 -41 -102t-102 -41q-62 0 -103 41t-41 102zM1054 1700q0 61 41 102.5t103 41.5q61 0 102 -41t41 -103q0 -61 -41 -102t-102 -41q-62 0 -103 41t-41 102z" />
<glyph unicode="&#x1e85;" horiz-adv-x="1710" d="M-41 993v31h236q109 0 172 -45t104 -129l225 -471l117 299l-137 285l-103 30v31h236q109 0 172 -45t104 -129l226 -471l215 553l-154 61v31h379v-31l-164 -61l-379 -952h-61l-303 630l-250 -630h-62l-471 983zM522 1290q0 61 41 102.5t103 41.5q61 0 102 -41t41 -103 q0 -61 -41 -102t-102 -41q-62 0 -103 41t-41 102zM901 1290q0 61 41 102.5t103 41.5q61 0 102 -41t41 -103q0 -61 -41 -102t-102 -41q-62 0 -103 41t-41 102z" />
<glyph unicode="&#x1ea0;" horiz-adv-x="1392" d="M-41 0v31l164 61l563 1362h62l583 -1393l103 -30v-31h-246q-106 0 -174 48t-101 126l-104 246h-490l-135 -328l154 -61v-31h-379zM340 471h448l-225 539zM602 -221q0 39 27.5 67.5t66.5 28.5t67.5 -28.5t28.5 -67.5t-28.5 -66.5t-67.5 -27.5t-66.5 27.5t-27.5 66.5z" />
<glyph unicode="&#x1ea1;" horiz-adv-x="1239" d="M102 246q0 80 35 157q14 37 37 68q84 20 182 37q221 37 392 45v61q0 227 -55.5 313.5t-170.5 86.5q-43 0 -73 -10l-29 -11v-307l-27 -6q-33 -4 -55 -4q-70 0 -112 42t-42 111q0 94 95.5 160t283.5 66q160 0 275.5 -56.5t176 -156t60.5 -228.5v-553l123 -30v-31h-184 q-123 0 -191 76q-29 31 -45 78q-29 -51 -67 -93q-92 -92 -230 -92q-182 0 -280.5 78t-98.5 199zM440 266q0 -115 35 -170t88 -55q76 0 137 82q23 31 48 82v297q-94 0 -181 -10q-63 -8 -86 -11q-10 -23 -20 -61q-20 -78 -21 -154zM485 -221q0 39 27.5 67.5t66.5 28.5 t67.5 -28.5t28.5 -67.5t-28.5 -66.5t-67.5 -27.5t-66.5 27.5t-27.5 66.5z" />
<glyph unicode="&#x1ea2;" horiz-adv-x="1392" d="M-41 0v31l164 61l563 1362h62l583 -1393l103 -30v-31h-246q-106 0 -174 48t-101 126l-104 246h-490l-135 -328l154 -61v-31h-379zM340 471h448l-225 539zM495 1880q0 113 191 113q250 0 250 -166q0 -59 -50.5 -99t-140.5 -54l-4 -58h-55l-4 68q43 16 66.5 49t23.5 94 q0 68 -24.5 97.5t-76.5 29.5q-10 0 -40 -6l-17 -4v-115l-8 -2h-6q-104 0 -105 53z" />
<glyph unicode="&#x1ea3;" horiz-adv-x="1239" d="M102 246q0 80 35 157q14 37 37 68q84 20 182 37q221 37 392 45v61q0 227 -55.5 313.5t-170.5 86.5q-43 0 -73 -10l-29 -11v-307l-27 -6q-33 -4 -55 -4q-70 0 -112 42t-42 111q0 94 95.5 160t283.5 66q160 0 275.5 -56.5t176 -156t60.5 -228.5v-553l123 -30v-31h-184 q-123 0 -191 76q-29 31 -45 78q-29 -51 -67 -93q-92 -92 -230 -92q-182 0 -280.5 78t-98.5 199zM399 1470q0 113 191 113q250 0 250 -166q0 -59 -50.5 -99t-140.5 -54l-4 -58h-55l-4 68q43 16 66.5 49t23.5 94q0 68 -24.5 97.5t-76.5 29.5q-10 0 -40 -6l-17 -4v-115l-8 -2 h-6q-104 0 -105 53zM440 266q0 -115 35 -170t88 -55q76 0 137 82q23 31 48 82v297q-94 0 -181 -10q-63 -8 -86 -11q-10 -23 -20 -61q-20 -78 -21 -154z" />
<glyph unicode="&#x1ea4;" horiz-adv-x="1392" d="M-41 0v31l164 61l563 1362h62l583 -1393l103 -30v-31h-246q-106 0 -174 48t-101 126l-104 246h-490l-135 -328l154 -61v-31h-379zM340 471h448l-225 539zM420 1536l297 338l297 -338h-72l-225 144l-225 -144h-72zM975 1685l82 308h266l-276 -308h-72z" />
<glyph unicode="&#x1ea5;" horiz-adv-x="1239" d="M102 246q0 80 35 157q14 37 37 68q84 20 182 37q221 37 392 45v61q0 227 -55.5 313.5t-170.5 86.5q-43 0 -73 -10l-29 -11v-307l-27 -6q-33 -4 -55 -4q-70 0 -112 42t-42 111q0 94 95.5 160t283.5 66q160 0 275.5 -56.5t176 -156t60.5 -228.5v-553l123 -30v-31h-184 q-123 0 -191 76q-29 31 -45 78q-29 -51 -67 -93q-92 -92 -230 -92q-182 0 -280.5 78t-98.5 199zM323 1126l297 338l297 -338h-72l-225 144l-225 -144h-72zM440 266q0 -115 35 -170t88 -55q76 0 137 82q23 31 48 82v297q-94 0 -181 -10q-63 -8 -86 -11q-10 -23 -20 -61 q-20 -78 -21 -154zM879 1276l82 308h266l-276 -308h-72z" />
<glyph unicode="&#x1ea6;" horiz-adv-x="1392" d="M-41 0v31l164 61l563 1362h62l583 -1393l103 -30v-31h-246q-106 0 -174 48t-101 126l-104 246h-490l-135 -328l154 -61v-31h-379zM340 471h448l-225 539zM420 1536l297 338l297 -338h-72l-225 144l-225 -144h-72zM665 2093h267l82 -308h-72z" />
<glyph unicode="&#x1ea7;" horiz-adv-x="1239" d="M102 246q0 80 35 157q14 37 37 68q84 20 182 37q221 37 392 45v61q0 227 -55.5 313.5t-170.5 86.5q-43 0 -73 -10l-29 -11v-307l-27 -6q-33 -4 -55 -4q-70 0 -112 42t-42 111q0 94 95.5 160t283.5 66q160 0 275.5 -56.5t176 -156t60.5 -228.5v-553l123 -30v-31h-184 q-123 0 -191 76q-29 31 -45 78q-29 -51 -67 -93q-92 -92 -230 -92q-182 0 -280.5 78t-98.5 199zM323 1126l297 338l297 -338h-72l-225 144l-225 -144h-72zM440 266q0 -115 35 -170t88 -55q76 0 137 82q23 31 48 82v297q-94 0 -181 -10q-63 -8 -86 -11q-10 -23 -20 -61 q-20 -78 -21 -154zM569 1684h267l82 -308h-72z" />
<glyph unicode="&#x1ea8;" horiz-adv-x="1392" d="M-41 0v31l164 61l563 1362h62l583 -1393l103 -30v-31h-246q-106 0 -174 48t-101 126l-104 246h-490l-135 -328l154 -61v-31h-379zM340 471h448l-225 539zM420 1536l297 338l297 -338h-72l-225 144l-225 -144h-72zM741 2005q0 113 191 113q250 0 250 -166q0 -59 -50.5 -99 t-140.5 -54l-4 -58h-55l-4 68q43 16 66.5 49t23.5 94q0 68 -24.5 97.5t-76.5 29.5q-10 0 -40 -6l-17 -4v-115l-8 -2h-6q-104 0 -105 53z" />
<glyph unicode="&#x1ea9;" horiz-adv-x="1239" d="M102 246q0 80 35 157q14 37 37 68q84 20 182 37q221 37 392 45v61q0 227 -55.5 313.5t-170.5 86.5q-43 0 -73 -10l-29 -11v-307l-27 -6q-33 -4 -55 -4q-70 0 -112 42t-42 111q0 94 95.5 160t283.5 66q160 0 275.5 -56.5t176 -156t60.5 -228.5v-553l123 -30v-31h-184 q-123 0 -191 76q-29 31 -45 78q-29 -51 -67 -93q-92 -92 -230 -92q-182 0 -280.5 78t-98.5 199zM323 1126l297 338l297 -338h-72l-225 144l-225 -144h-72zM440 266q0 -115 35 -170t88 -55q76 0 137 82q23 31 48 82v297q-94 0 -181 -10q-63 -8 -86 -11q-10 -23 -20 -61 q-20 -78 -21 -154zM645 1595q0 113 191 113q250 0 250 -166q0 -59 -50.5 -99t-140.5 -54l-4 -58h-55l-4 68q43 16 66.5 49t23.5 94q0 68 -24.5 97.5t-76.5 29.5q-10 0 -40 -6l-17 -4v-115l-8 -2h-6q-104 0 -105 53z" />
<glyph unicode="&#x1eaa;" horiz-adv-x="1392" d="M-41 0v31l164 61l563 1362h62l583 -1393l103 -30v-31h-246q-106 0 -174 48t-101 126l-104 246h-490l-135 -328l154 -61v-31h-379zM340 471h448l-225 539zM420 1536l297 338l297 -338h-72l-225 144l-225 -144h-72zM434 1923q0 119 48 177.5t136 58.5q45 0 78 -15.5 t72 -44.5q29 -20 50 -31.5t46 -11.5q39 0 65.5 26.5t26.5 65.5h41q0 -119 -48 -177t-136 -58q-45 0 -78 15.5t-72 43.5q-29 23 -50 33t-46 10q-39 0 -65.5 -26.5t-26.5 -65.5h-41z" />
<glyph unicode="&#x1eab;" horiz-adv-x="1239" d="M102 246q0 80 35 157q14 37 37 68q84 20 182 37q221 37 392 45v61q0 227 -55.5 313.5t-170.5 86.5q-43 0 -73 -10l-29 -11v-307l-27 -6q-33 -4 -55 -4q-70 0 -112 42t-42 111q0 94 95.5 160t283.5 66q160 0 275.5 -56.5t176 -156t60.5 -228.5v-553l123 -30v-31h-184 q-123 0 -191 76q-29 31 -45 78q-29 -51 -67 -93q-92 -92 -230 -92q-182 0 -280.5 78t-98.5 199zM323 1126l297 338l297 -338h-72l-225 144l-225 -144h-72zM338 1513q0 119 48 177.5t136 58.5q45 0 78 -15.5t72 -44.5q29 -20 50 -31.5t46 -11.5q39 0 65.5 26.5t26.5 65.5h41 q0 -119 -48 -177t-136 -58q-45 0 -78 15.5t-72 43.5q-29 23 -50 33t-46 10q-39 0 -65.5 -26.5t-26.5 -65.5h-41zM440 266q0 -115 35 -170t88 -55q76 0 137 82q23 31 48 82v297q-94 0 -181 -10q-63 -8 -86 -11q-10 -23 -20 -61q-20 -78 -21 -154z" />
<glyph unicode="&#x1eac;" horiz-adv-x="1392" d="M-41 0v31l164 61l563 1362h62l583 -1393l103 -30v-31h-246q-106 0 -174 48t-101 126l-104 246h-490l-135 -328l154 -61v-31h-379zM340 471h448l-225 539zM420 1536l297 338l297 -338h-72l-225 144l-225 -144h-72zM602 -221q0 39 27.5 67.5t66.5 28.5t67.5 -28.5 t28.5 -67.5t-28.5 -66.5t-67.5 -27.5t-66.5 27.5t-27.5 66.5z" />
<glyph unicode="&#x1ead;" horiz-adv-x="1239" d="M102 246q0 80 35 157q14 37 37 68q84 20 182 37q221 37 392 45v61q0 227 -55.5 313.5t-170.5 86.5q-43 0 -73 -10l-29 -11v-307l-27 -6q-33 -4 -55 -4q-70 0 -112 42t-42 111q0 94 95.5 160t283.5 66q160 0 275.5 -56.5t176 -156t60.5 -228.5v-553l123 -30v-31h-184 q-123 0 -191 76q-29 31 -45 78q-29 -51 -67 -93q-92 -92 -230 -92q-182 0 -280.5 78t-98.5 199zM323 1126l297 338l297 -338h-72l-225 144l-225 -144h-72zM440 266q0 -115 35 -170t88 -55q76 0 137 82q23 31 48 82v297q-94 0 -181 -10q-63 -8 -86 -11q-10 -23 -20 -61 q-20 -78 -21 -154zM485 -221q0 39 27.5 67.5t66.5 28.5t67.5 -28.5t28.5 -67.5t-28.5 -66.5t-67.5 -27.5t-66.5 27.5t-27.5 66.5z" />
<glyph unicode="&#x1eae;" horiz-adv-x="1392" d="M-41 0v31l164 61l563 1362h62l583 -1393l103 -30v-31h-246q-106 0 -174 48t-101 126l-104 246h-490l-135 -328l154 -61v-31h-379zM340 471h448l-225 539zM410 1710q0 53 35 88t88 35q4 0 47 -6l24 -4v-225q2 0 30 -10.5t83 -10.5t83 10.5t30 10.5v225l24 4q43 6 47 6 q53 0 88 -34.5t35 -88.5q0 -76 -74.5 -125t-232.5 -49t-232.5 49.5t-74.5 124.5zM672 1843l82 308h266l-276 -308h-72z" />
<glyph unicode="&#x1eaf;" horiz-adv-x="1239" d="M102 246q0 80 35 157q14 37 37 68q84 20 182 37q221 37 392 45v61q0 227 -55.5 313.5t-170.5 86.5q-43 0 -73 -10l-29 -11v-307l-27 -6q-33 -4 -55 -4q-70 0 -112 42t-42 111q0 94 95.5 160t283.5 66q160 0 275.5 -56.5t176 -156t60.5 -228.5v-553l123 -30v-31h-184 q-123 0 -191 76q-29 31 -45 78q-29 -51 -67 -93q-92 -92 -230 -92q-182 0 -280.5 78t-98.5 199zM313 1300q0 53 35 88t88 35q4 0 47 -6l24 -4v-225q2 0 30 -10.5t83 -10.5t83 10.5t30 10.5v225l24 4q43 6 47 6q53 0 88 -34.5t35 -88.5q0 -76 -74.5 -125t-232.5 -49 t-232.5 49.5t-74.5 124.5zM440 266q0 -115 35 -170t88 -55q76 0 137 82q23 31 48 82v297q-94 0 -181 -10q-63 -8 -86 -11q-10 -23 -20 -61q-20 -78 -21 -154zM576 1433l82 308h266l-276 -308h-72z" />
<glyph unicode="&#x1eb0;" horiz-adv-x="1392" d="M-41 0v31l164 61l563 1362h62l583 -1393l103 -30v-31h-246q-106 0 -174 48t-101 126l-104 246h-490l-135 -328l154 -61v-31h-379zM340 471h448l-225 539zM401 2157h267l82 -308h-72zM410 1710q0 53 35 88t88 35q4 0 47 -6l24 -4v-225q2 0 30 -10.5t83 -10.5t83 10.5 t30 10.5v225l24 4q43 6 47 6q53 0 88 -34.5t35 -88.5q0 -76 -74.5 -125t-232.5 -49t-232.5 49.5t-74.5 124.5z" />
<glyph unicode="&#x1eb1;" horiz-adv-x="1239" d="M102 246q0 80 35 157q14 37 37 68q84 20 182 37q221 37 392 45v61q0 227 -55.5 313.5t-170.5 86.5q-43 0 -73 -10l-29 -11v-307l-27 -6q-33 -4 -55 -4q-70 0 -112 42t-42 111q0 94 95.5 160t283.5 66q160 0 275.5 -56.5t176 -156t60.5 -228.5v-553l123 -30v-31h-184 q-123 0 -191 76q-29 31 -45 78q-29 -51 -67 -93q-92 -92 -230 -92q-182 0 -280.5 78t-98.5 199zM305 1747h267l82 -308h-72zM313 1300q0 53 35 88t88 35q4 0 47 -6l24 -4v-225q2 0 30 -10.5t83 -10.5t83 10.5t30 10.5v225l24 4q43 6 47 6q53 0 88 -34.5t35 -88.5 q0 -76 -74.5 -125t-232.5 -49t-232.5 49.5t-74.5 124.5zM440 266q0 -115 35 -170t88 -55q76 0 137 82q23 31 48 82v297q-94 0 -181 -10q-63 -8 -86 -11q-10 -23 -20 -61q-20 -78 -21 -154z" />
<glyph unicode="&#x1eb2;" horiz-adv-x="1392" d="M-41 0v31l164 61l563 1362h62l583 -1393l103 -30v-31h-246q-106 0 -174 48t-101 126l-104 246h-490l-135 -328l154 -61v-31h-379zM340 471h448l-225 539zM410 1710q0 53 35 88t88 35q4 0 47 -6l24 -4v-225q2 0 30 -10.5t83 -10.5t83 10.5t30 10.5v225l24 4q43 6 47 6 q53 0 88 -34.5t35 -88.5q0 -76 -74.5 -125t-232.5 -49t-232.5 49.5t-74.5 124.5zM495 2097q0 113 191 113q250 0 250 -166q0 -59 -50.5 -99t-140.5 -54l-4 -58h-55l-4 68q43 16 66.5 49t23.5 94q0 68 -24.5 97.5t-76.5 29.5q-10 0 -40 -6l-17 -4v-115l-8 -2h-6 q-104 0 -105 53z" />
<glyph unicode="&#x1eb3;" horiz-adv-x="1239" d="M102 246q0 80 35 157q14 37 37 68q84 20 182 37q221 37 392 45v61q0 227 -55.5 313.5t-170.5 86.5q-43 0 -73 -10l-29 -11v-307l-27 -6q-33 -4 -55 -4q-70 0 -112 42t-42 111q0 94 95.5 160t283.5 66q160 0 275.5 -56.5t176 -156t60.5 -228.5v-553l123 -30v-31h-184 q-123 0 -191 76q-29 31 -45 78q-29 -51 -67 -93q-92 -92 -230 -92q-182 0 -280.5 78t-98.5 199zM313 1300q0 53 35 88t88 35q4 0 47 -6l24 -4v-225q2 0 30 -10.5t83 -10.5t83 10.5t30 10.5v225l24 4q43 6 47 6q53 0 88 -34.5t35 -88.5q0 -76 -74.5 -125t-232.5 -49 t-232.5 49.5t-74.5 124.5zM399 1687q0 113 191 113q250 0 250 -166q0 -59 -50.5 -99t-140.5 -54l-4 -58h-55l-4 68q43 16 66.5 49t23.5 94q0 68 -24.5 97.5t-76.5 29.5q-10 0 -40 -6l-17 -4v-115l-8 -2h-6q-104 0 -105 53zM440 266q0 -115 35 -170t88 -55q76 0 137 82 q23 31 48 82v297q-94 0 -181 -10q-63 -8 -86 -11q-10 -23 -20 -61q-20 -78 -21 -154z" />
<glyph unicode="&#x1eb4;" horiz-adv-x="1392" d="M-41 0v31l164 61l563 1362h62l583 -1393l103 -30v-31h-246q-106 0 -174 48t-101 126l-104 246h-490l-135 -328l154 -61v-31h-379zM340 471h448l-225 539zM410 1710q0 53 35 88t88 35q4 0 47 -6l24 -4v-225q2 0 30 -10.5t83 -10.5t83 10.5t30 10.5v225l24 4q43 6 47 6 q53 0 88 -34.5t35 -88.5q0 -76 -74.5 -125t-232.5 -49t-232.5 49.5t-74.5 124.5zM434 1917q0 119 48 177.5t136 58.5q45 0 78 -15.5t72 -44.5q29 -20 50 -31.5t46 -11.5q39 0 65.5 26.5t26.5 65.5h41q0 -119 -48 -177t-136 -58q-45 0 -78 15.5t-72 43.5q-29 23 -50 33 t-46 10q-39 0 -65.5 -26.5t-26.5 -65.5h-41z" />
<glyph unicode="&#x1eb5;" horiz-adv-x="1239" d="M102 246q0 80 35 157q14 37 37 68q84 20 182 37q221 37 392 45v61q0 227 -55.5 313.5t-170.5 86.5q-43 0 -73 -10l-29 -11v-307l-27 -6q-33 -4 -55 -4q-70 0 -112 42t-42 111q0 94 95.5 160t283.5 66q160 0 275.5 -56.5t176 -156t60.5 -228.5v-553l123 -30v-31h-184 q-123 0 -191 76q-29 31 -45 78q-29 -51 -67 -93q-92 -92 -230 -92q-182 0 -280.5 78t-98.5 199zM313 1300q0 53 35 88t88 35q4 0 47 -6l24 -4v-225q2 0 30 -10.5t83 -10.5t83 10.5t30 10.5v225l24 4q43 6 47 6q53 0 88 -34.5t35 -88.5q0 -76 -74.5 -125t-232.5 -49 t-232.5 49.5t-74.5 124.5zM338 1507q0 119 48 177.5t136 58.5q45 0 78 -15.5t72 -44.5q29 -20 50 -31.5t46 -11.5q39 0 65.5 26.5t26.5 65.5h41q0 -119 -48 -177t-136 -58q-45 0 -78 15.5t-72 43.5q-29 23 -50 33t-46 10q-39 0 -65.5 -26.5t-26.5 -65.5h-41zM440 266 q0 -115 35 -170t88 -55q76 0 137 82q23 31 48 82v297q-94 0 -181 -10q-63 -8 -86 -11q-10 -23 -20 -61q-20 -78 -21 -154z" />
<glyph unicode="&#x1eb6;" horiz-adv-x="1392" d="M-41 0v31l164 61l563 1362h62l583 -1393l103 -30v-31h-246q-106 0 -174 48t-101 126l-104 246h-490l-135 -328l154 -61v-31h-379zM340 471h448l-225 539zM410 1710q0 53 35 88t88 35q4 0 47 -6l24 -4v-225q2 0 30 -10.5t83 -10.5t83 10.5t30 10.5v225l24 4q43 6 47 6 q53 0 88 -34.5t35 -88.5q0 -76 -74.5 -125t-232.5 -49t-232.5 49.5t-74.5 124.5zM602 -221q0 39 27.5 67.5t66.5 28.5t67.5 -28.5t28.5 -67.5t-28.5 -66.5t-67.5 -27.5t-66.5 27.5t-27.5 66.5z" />
<glyph unicode="&#x1eb7;" horiz-adv-x="1239" d="M102 246q0 80 35 157q14 37 37 68q84 20 182 37q221 37 392 45v61q0 227 -55.5 313.5t-170.5 86.5q-43 0 -73 -10l-29 -11v-307l-27 -6q-33 -4 -55 -4q-70 0 -112 42t-42 111q0 94 95.5 160t283.5 66q160 0 275.5 -56.5t176 -156t60.5 -228.5v-553l123 -30v-31h-184 q-123 0 -191 76q-29 31 -45 78q-29 -51 -67 -93q-92 -92 -230 -92q-182 0 -280.5 78t-98.5 199zM313 1300q0 53 35 88t88 35q4 0 47 -6l24 -4v-225q2 0 30 -10.5t83 -10.5t83 10.5t30 10.5v225l24 4q43 6 47 6q53 0 88 -34.5t35 -88.5q0 -76 -74.5 -125t-232.5 -49 t-232.5 49.5t-74.5 124.5zM440 266q0 -115 35 -170t88 -55q76 0 137 82q23 31 48 82v297q-94 0 -181 -10q-63 -8 -86 -11q-10 -23 -20 -61q-20 -78 -21 -154zM485 -221q0 39 27.5 67.5t66.5 28.5t67.5 -28.5t28.5 -67.5t-28.5 -66.5t-67.5 -27.5t-66.5 27.5t-27.5 66.5z" />
<glyph unicode="&#x1eb8;" horiz-adv-x="1320" d="M102 0v31l123 30v1311l-123 31v31h1096v-369h-61q-39 31 -68 78q-66 111 -65 239h-441v-645h236q14 78 53 146q16 31 39 59h61v-461h-61q-23 29 -39 60q-39 68 -53 145h-236v-635h481q0 129 66 240q29 47 68 78h61v-369h-1137zM690 -221q0 39 27.5 67.5t66.5 28.5 t67.5 -28.5t28.5 -67.5t-28.5 -66.5t-67.5 -27.5t-66.5 27.5t-27.5 66.5z" />
<glyph unicode="&#x1eb9;" d="M82 512q0 166 63.5 289t177 188.5t261.5 65.5q147 0 258.5 -55.5t172 -148.5t60.5 -206q0 -51 -10 -88l-10 -35q-88 -18 -191 -30q-215 -31 -434 -31q0 -238 65.5 -339.5t180.5 -101.5q80 0 148.5 38t108.5 100.5t40 128.5h51q0 -82 -49 -156t-137 -118t-203 -44 q-262 0 -407.5 144.5t-145.5 398.5zM430 512q131 0 213 10q35 2 74 10q2 10 10 46q10 51 10 108q0 170 -45 249t-108 79q-154 0 -154 -502zM479 -221q0 39 27.5 67.5t66.5 28.5t67.5 -28.5t28.5 -67.5t-28.5 -66.5t-67.5 -27.5t-66.5 27.5t-27.5 66.5z" />
<glyph unicode="&#x1eba;" horiz-adv-x="1320" d="M102 0v31l123 30v1311l-123 31v31h1096v-369h-61q-39 31 -68 78q-66 111 -65 239h-441v-645h236q14 78 53 146q16 31 39 59h61v-461h-61q-23 29 -39 60q-39 68 -53 145h-236v-635h481q0 129 66 240q29 47 68 78h61v-369h-1137zM522 1880q0 113 191 113q250 0 250 -166 q0 -59 -50.5 -99t-140.5 -54l-4 -58h-55l-4 68q43 16 66.5 49t23.5 94q0 68 -24.5 97.5t-76.5 29.5q-10 0 -40 -6l-17 -4v-115l-8 -2h-6q-104 0 -105 53z" />
<glyph unicode="&#x1ebb;" d="M82 512q0 166 63.5 289t177 188.5t261.5 65.5q147 0 258.5 -55.5t172 -148.5t60.5 -206q0 -51 -10 -88l-10 -35q-88 -18 -191 -30q-215 -31 -434 -31q0 -238 65.5 -339.5t180.5 -101.5q80 0 148.5 38t108.5 100.5t40 128.5h51q0 -82 -49 -156t-137 -118t-203 -44 q-262 0 -407.5 144.5t-145.5 398.5zM352 1470q0 113 191 113q250 0 250 -166q0 -59 -50.5 -99t-140.5 -54l-4 -58h-55l-4 68q43 16 66.5 49t23.5 94q0 68 -24.5 97.5t-76.5 29.5q-10 0 -40 -6l-17 -4v-115l-8 -2h-6q-104 0 -105 53zM430 512q131 0 213 10q35 2 74 10 q2 10 10 46q10 51 10 108q0 170 -45 249t-108 79q-154 0 -154 -502z" />
</font>
</defs>
</svg>
